<?xml version="1.0" encoding="UTF-8"?>
<svg id="Layer_2" data-name="Layer 2" xmlns="http://www.w3.org/2000/svg" viewBox="0 0 273.24 311.46">
  <defs>
    <style>
      .cls-1 {
        fill: #202333;
      }

      .cls-2 {
        fill: #c4e84a;
      }

      .cls-3 {
        fill: #a2966f;
      }

      .cls-4 {
        fill: #dbd4c1;
      }
    </style>
  </defs>
  <g id="Layer_1-2" data-name="Layer 1">
    <g>
      <path class="cls-4" d="M268.76,252.78c.7-1.22-1.12-2.25-1.14-3.03.48-.69,2.47-.37,2.95-.97.76-.94.8-1.89-.94-2.66.62-.94,1.71-.52,3.11-1.49-1.48-.53-2.45-1.24-2.83-3.49-4.56,2.76-9.54,4.53-14.44,6.52-.37-.74-.43-1.12-.28-1.2,3.71-1.35,7.29-3.15,10.48-5.42v-.78c-14.87,4.67-28.59,12.45-43.67,18.38l-5.89-1.92c-7.32-2.39.56.96-8.06-8.41,12.19-4.91,24.34-9.05,35.53-14.92,2.98-1.56,6.67-1.86,9.69-4.02-4-.39-6.86,2.32-9.67,3.27-2.23.75-4.73,1.06-7.31,2.07l-29.29,11.48c-.77-4.07-2.51-6.24-5.49-8.2,8.19-5.06,2.38-12.11,4.64-13.77,2.41-1.78,4.91-3.36,5.53-6.64,1.58-8.36,2.67-9.72-7.09-18.65-2.52-2.31-7.02-1.87-9.21-4.91-2.14-2.98-5.14-9.61-4.36-13.26,2.59-12.12-.42-5.9-2.56-21.73-.52-3.86,1.49-7.3-.14-11.3-4.14-10.15,2.71-20.49-.91-39.59-1-5.28-4.35-9.76-6.51-14.84,1.18-1.3,2.57-3.81,4.09-4.41,6.69.27,4.49-7.16,7.06-6.77,3.85.57,6.11-3.13,9.15-3.57,3.48-.51,7.44,1.97,11.24.97,3.2-.84,4.75-2.57,4.52-5.92-.25-3.72-2.78-7.1-2.79-10.84,0-2.05.87-4.41.98-6.6.21-4.26,2.44-8.03,3.2-12.45,2.92-17.03-5.32-34.16-21.35-41.31-5.63-2.51-12.49-2.81-18.52-2.03-13.53,1.74-18.43,12.45-28.89,16.62-3.22,1.28-3.06,6.29-1.18,8.64,3.33,4.16-2.21,4.67-1.55,10.4-2.42-.14-3.49-1.79-4.73-3.54-1.28,1.88.22,3.54.19,5.43-.03,1.9-3.32.74-4.39.87,1.61,6.06-6.02,4.55-.77,9.8-2.88.86-4.89,4.48-7.93,5.03l-13.39-.09c-6.11-.04-12.24-1.44-18.34-.32-14.37,2.65-30.99,9.22-37.04,23.56l-5.91,14.01c-3.11,7.37-15.07,20.35-15.21,21.2l-1.39,8.55c-8.24,2.42-3.25,9.34-7.49,18.5-2.17,4.68-1.26,9.88,3.78,12.37.58,12.71.47,8.59-4.47,18.83-3.61,7.49,3.3,5.32-1.08,13.67-2.29,4.38-2.35,9.44-4.09,13.96-2.17-6.88.15-16.04-7.32-14.9-3.05.47-4.68,2.14-4.63,5.39.09,5.03.72,10.48,2.1,15.37.91,3.23-1.41,3.62-2.34,5.58-2.08,4.41-.26,10.03-.37,14.76-2.36.99-5.4.4-7.37,2.14-3.35,2.95-5.32,8.01-4.45,12.4.32,1.63,2.65,1.78,3.78,1.67,2.56-.25,2.97-4.18,5.62-5.27.7,3.97,3.36,7.71,5.2,11.27l1.72,46.09c.36,9.56,3.17,12.01,2.88,19.07l57.06-.29c2.54-8.84,4.62-21.84,8.5-29.85,1.12,7.55-.6,22.54-1.28,29.74-.05.54,3.15.24,4.85.29,1.55-6.01-.81-30.72,1.36-39.54,3.64,4.71,17.26,38.63,18.95,39.65l63.35-.16c-2.23-8.04-3.75-7.57,2.54-10.59l80.61-38.78c6.39-3.08,12.21-5.86,17.8-9.4l.09-.75c-1.38.63-2.97,1.17-4.48,1Z"/>
      <g>
        <path class="cls-2" d="M208.47,293.07c-1.47,1.02-3.33-2.69-2.01-3.33,1.47-.72,3.2,2.5,2.01,3.33Z"/>
        <path class="cls-2" d="M221.96,300.58c-.63.6-1.35-.33-1.68-.67-.45-.46-.83-1.97-.2-2.56.41-.38,1.39.04,1.7.52.41.63,1.14,1.8.18,2.71Z"/>
        <path class="cls-2" d="M233.1,286.37c-1.44,1.64-3.65,1-5.34-.4,1.58-.91,3.39-1.04,5.34.4Z"/>
        <path class="cls-2" d="M215.68,292.09c-1.88-.44-2.71-1.63-2.32-3.34.9.04,1.49.54,2.02,1,.59.51.66,1.53.3,2.35Z"/>
        <circle class="cls-2" cx="205.31" cy="297.44" r="1.23"/>
        <path class="cls-2" d="M219.32,287.83c-.59.83-2.24-.08-2.33-.93.06-.48,1.61-.76,2.33.93Z"/>
        <path class="cls-2" d="M173.38,50.57c-7.33-8.57-14.16-18.01-22.58-26.35-1.15-1.14-2.01-3.78-.1-4.93,1.04,4.32,3.92,7.42,7.34,10.26,4.82,7.03,12.26,11.75,15.35,21.02Z"/>
        <path class="cls-2" d="M188.09,51.94c-.27,2.22-1.18,3.68-2.9,4.34-1.68-.84-2.86-1.72-4.29-2.82-.13-1.7.69-3.16,1.98-4.44,1.93.59,3.31,1.52,5.21,2.92Z"/>
        <path class="cls-1" d="M173.46,34.72c-2.09.97-1.68,2.44-2.79,4.81l-4.79-5.66c.89-1.18,1.56-.28,2.46-.01.72.22-.3,1.59,1.04,2.46.55-.01.79-1.08.97-1.48.4-.9,1.23-1.83,3.1-.11Z"/>
        <path class="cls-2" d="M153.5,21.49c-.88-1.26.4-3.91,1.46-4.51,1.81,1.23.5,3.39-1.46,4.51Z"/>
        <path class="cls-2" d="M16.2,199.37c-.07-3.59-.96-6.46-.82-10.65,1.03,3.46,2.02,7.08.82,10.65Z"/>
        <path class="cls-2" d="M164.81,31.66c-1.4.34-2.94-1.42-2.17-1.99.99-.73,2.47.85,2.17,1.99Z"/>
        <path class="cls-2" d="M132.62,202.33c-.28.26-.45.65-.75.89-.61-.17-2.09-1.3-1.36-2.03s1.73.83,2.11,1.14Z"/>
        <path class="cls-2" d="M155.5,198.67c.85-1,2,1.1,2.04.99-.27.75-.85.35-1.14.41-.77.17-1.64-.53-.9-1.4Z"/>
        <circle class="cls-2" cx="156.86" cy="24.81" r=".85"/>
        <circle class="cls-2" cx="15.53" cy="187.09" r=".48"/>
        <circle class="cls-2" cx="174" cy="18.71" r=".48"/>
        <circle class="cls-2" cx="178.57" cy="17.57" r=".38"/>
        <path class="cls-1" d="M202.45,234.01c-2.14,2.74-6.14,3.07-9.2,5.21-1.12-4.53-2.01-7.84-3.95-12.87,4.43.28,8.13.13,12.57-1.22,1.46,2.19,2.52,6.39.58,8.88Z"/>
        <path class="cls-1" d="M199.46,246.42l-1.3.04c.72-1.85,1.17-5.76,3.23-5.42s3.78,6.03,4.33,8.58c-2.15.74-1.56-8.08-4.91-6.27-.79.43-1.88,2.23-1.34,3.07Z"/>
        <path class="cls-1" d="M138.48,241.92c-.26,1.05-.24,2.27-1.16,3.11-.56-1.57.41-2.58-.91-3.15-.41,1.43.59,2.76-1.09,3.23l-.27-4.74,1.96-6.29c3.32,2.55-.55,5.68,1.46,7.84Z"/>
        <path class="cls-2" d="M117.78,227.66c-.72.2-1.55.77-2.31.48-.62-.24-.89-.99-1.28-1.43.59-2.63,2.19-4.71,3.91-6.7-.28,2.2-2.31,4.14-2.25,6.52.57.28,1.48-.13,1.8-.05.6.14.17.84.13,1.19Z"/>
        <path class="cls-2" d="M118.1,220.01c.27-2.1,5.52-7.5,5.24-7.01-1.26,2.62-3.33,4.81-5.24,7.01Z"/>
        <path class="cls-2" d="M125.61,211.29l.05,1.03c-.72.39-1.51.61-2.32.67.64-1.12,1.39-1.01,2.27-1.7Z"/>
        <path class="cls-1" d="M154.52,242.38c-1.09.15-3.54-1.57-4.34-1.99.03-1.8,2.39-1.5,3.54-.97.99.46,2.5,2.5.8,2.96Z"/>
        <path class="cls-1" d="M208.67,211.47c-1.43,4.05.09,9-3.65,9.65,1.95-3.11,2.13-6.35,2.13-9.65h1.52Z"/>
        <path class="cls-1" d="M167.21,254.96c-.45.71-.23,1.56-1.13,2.52-1.42-1.17-2.63-1.73-3.74-2.49.17-1.11,1.57-1.66,2.7-1.48.76.12,1.5.61,2.17,1.45Z"/>
        <path class="cls-1" d="M161.42,254.09c-.15-.45-.11-.96-.19-1.43.66-1.21,1.09-.51,1,.36-.07.72-.09,1.28-.81,1.07Z"/>
        <path class="cls-1" d="M167.53,245.51l-.24,2.52c-1.32,1.19-.6,3.16-1.81,4.65-.63-2.47.91-4.72-1.02-6.15l.16-1.3c.96.16,1.93.25,2.91.27Z"/>
        <path class="cls-1" d="M168.54,247.75l-.26-2.12c.66-.74,2.29-1.74,3.08-.81.54.64.27,2.07-.36,2.39-.77.39-1.68.37-2.46.54Z"/>
        <path class="cls-1" d="M147.85,221.44c.25.36.58.78.61,1.25.03.42-.35,1-.77,1.1.87-2.17-3.81-.34-5.86.42,1.4-2.04,3.67-2.38,6.02-2.78Z"/>
        <path class="cls-1" d="M186.59,264.74c0-.24.03-.49.02-.74,1.15-.34,1.47-1.71,2.67-1.89-.08,1.51-.11,2.65-.83,3.25-.63.52-1.37-.51-1.85-.62Z"/>
        <path class="cls-1" d="M208.67,210.71c.25-.55.57-1.07.91-1.58,1.91,1.39.92,4.11.23,6.26-1.07-1.91-.11-3.41-1.14-4.68Z"/>
        <path class="cls-1" d="M207.99,206.75c.05,1.14.01,2.37-.84,3.2l-.73.07c.33-1.57-.1-2.71.97-3.28.2-.07.4,0,.6,0Z"/>
        <path class="cls-1" d="M191.24,224.84c-1.93.64-4.54-1.88-3.67-4.35,1.11,1.55,1.61,2.45,3.67,4.35Z"/>
        <path class="cls-1" d="M182.2,260.21l-.14.88c-.78.27-2.29-.62-2.18-1.32.78-1.08,1.74.35,2.31.44Z"/>
        <path class="cls-1" d="M200.37,221.34c-.07.53.08.95-.09,1.21-.28.42-.81.56-1.14.36-.42-.27-.54-.68-.38-1.13.15-.43.58-.49,1.61-.43Z"/>
        <path class="cls-1" d="M149.39,244.64c.29-.74.85.25,1.06.4.37.26.14.69-.11.74-.62.15-1.41,0-.96-1.15Z"/>
        <path class="cls-1" d="M145.34,242.83h-.8c.35-1.08.66-2.19,1.38-3.26.8,1.54-.6,2.24-.58,3.26Z"/>
        <path class="cls-1" d="M141.68,227.9c.63-.68,1.02-1.48,2.17-1.95-.27,1-.8,1.69-2.17,1.95Z"/>
        <circle class="cls-1" cx="137.05" cy="229" r=".66"/>
        <path class="cls-1" d="M160.72,219.7l-.95.2-9.39-2.93c-1.79-.56-3.43-.42-4.95-.16v-1.52c5.64.24,11.39.88,15.29,4.41Z"/>
        <path class="cls-1" d="M162.19,206.9v.76c-2.02.02-3.16-1.48-4.74-2.07-2.52-.93-5.65.53-7.95-2.29,4.67.15,9.25,1.11,12.68,3.59Z"/>
        <path class="cls-1" d="M159.78,219.89l.95-.2c.9.81,3.09-.2,2.98,1.57-1.92.93-2.75-1-3.93-1.37Z"/>
        <path class="cls-1" d="M145.43,215.28v1.52c-.38-.04-.83.13-1.14,0-.41-.17-.58-.66-.39-1.12.23-.57.96-.44,1.52-.39Z"/>
        <path class="cls-1" d="M162.19,207.66v-.76c.99,0,.84.83,0,.76Z"/>
        <path class="cls-2" d="M117.99,228.84h.76c.11,1.09-.83,1.06-.76,0Z"/>
        <path class="cls-3" d="M268.76,252.78l-1.43-.16c-.33-.04-.79-.09-1.11.06-.62.3-.45,1.08-.37,1.6-3.31,2.07-7.01,3.38-10.9,5.22l-47.42,22.44-2.98,1.59-49.93,24.04c-.56.27-1.16-1.61-.84-1.93s.54-1.03,1.35-1.46l14.12-7.63c-6.2,1.42-9.5,5.18-15.1,7.24-.25-1.86-1.33-6.22.16-7.78l20.44-10.31-20.24,8.79c-.75.32-.94-1.39-.72-1.81.15-.28.34-.74,1.02-1.05l34.58-15.59c3.16-1.42,7.23-2.11,9.69-4.08,1.58-1.26,2.03-1.2,3.89-1.85,6.63-2.3,12.94-5.38,19.19-8.63,10.37-5.4,21.05-9.57,31.48-14.32-.08.98.68,1.02.71.02.3-.17.51-.61.84-.73-.15.08-.09.46.28,1.2,4.9-1.98,9.88-3.76,14.44-6.52.38,2.25,1.35,2.95,2.83,3.49-1.39.97-2.49.55-3.11,1.49,1.75.76,1.7,1.71.94,2.66-.48.6-2.47.28-2.95.97.02.78,1.84,1.81,1.14,3.03ZM255.92,255.28c1.64.68,2.15-.21,2.15-1.2-.76.74-1.55.73-2.15,1.2ZM255.14,256.04c0-.21-.17-.38-.38-.38s-.38.17-.38.38.17.38.38.38.38-.17.38-.38ZM251.34,257.56c1.64.68,2.15-.21,2.15-1.2-.76.74-1.55.73-2.15,1.2ZM249.79,257.28l-3.81,2.29.81,1.34,3.81-2.29-.81-1.34ZM221.02,267.63c7.44-.58,13.31-3.2,19.81-4.93,1.72-.53,3.76-.54,4.49-2.55l-11.48,3.08c-4.51,1.59-9,2.34-12.81,4.4ZM232.93,268.34c.59-1.55-5.88,1.44-8.34,1.42,2.91,1.23,4.8-.64,8.34-1.42ZM214.67,270.64c0-.63-.51-1.13-1.13-1.13s-1.13.51-1.13,1.13.51,1.13,1.13,1.13,1.13-.51,1.13-1.13ZM210.28,271.66c0-.47-.38-.85-.85-.85s-.85.38-.85.85.38.85.85.85.85-.38.85-.85ZM205.44,275.72c-.24.83.1,1.23.31,1.55.27.42,1.21.69,1.29.09.11-.85-.22-1.23-.5-1.52-.18-.18-1.01-.45-1.1-.13ZM202.66,279.28c0-.47-.38-.85-.85-.85s-.85.38-.85.85.38.85.85.85.85-.38.85-.85ZM182.74,280.9l-3.81,2.29.81,1.34,3.81-2.29-.81-1.34ZM191.91,282.71c0-.21-.17-.38-.38-.38s-.38.17-.38.38.17.38.38.38.38-.17.38-.38ZM190.38,283.47c0-.21-.17-.38-.38-.38s-.38.17-.38.38.17.38.38.38.38-.17.38-.38ZM176.08,284.01c-.76.85.23,1.56.86,1.4.29-.07.29-.37.86-.75.43-.29.45-.77-.04-.78-.7-.01-1.35-.24-1.69.14ZM189.31,284.13c-4.84.27-8.56,2.45-12.17,4.96,4.59-.56,8.2-2.37,12.17-4.96ZM190.11,287.28c0-.27-.22-.48-.48-.48s-.48.22-.48.48.22.48.48.48.48-.22.48-.48ZM187.31,286.99l-3.81,2.29.81,1.34,3.81-2.29-.81-1.34ZM176.67,289.57c0-.21-.17-.38-.38-.38s-.38.17-.38.38.17.38.38.38.38-.17.38-.38ZM174.46,289.34l-17.83,8.91.76,1.52,17.83-8.91-.76-1.52ZM175.21,293.57c3.45.06,5.24-1.66,7.58-3.32-2.76.54-5.81.94-7.58,3.32ZM174.38,294.14c0-.21-.17-.38-.38-.38s-.38.17-.38.38.17.38.38.38.38-.17.38-.38ZM172.86,294.9c0-.21-.17-.38-.38-.38s-.38.17-.38.38.17.38.38.38.38-.17.38-.38ZM171.34,295.66c0-.21-.17-.38-.38-.38s-.38.17-.38.38.17.38.38.38.38-.17.38-.38ZM156.1,299.47c0-.21-.17-.38-.38-.38s-.38.17-.38.38.17.38.38.38.38-.17.38-.38Z"/>
        <path class="cls-1" d="M235.53,243.76l-17.91,6.59c3.66-2.62,7.79-4.18,11.97-5.66l17.95-6.35c-3.85,2.43-7.79,3.87-12.01,5.43Z"/>
        <path class="cls-1" d="M234.44,249.4c-1.24-.13-2.7.11-3.67,1.44-2.72-.74-4.98,1.34-7.79,2.57-.57.25-.98-1.43-.2-1.57s1.71-.28,2.53-.64l22.31-9.58c-.73,3.43-10.92,4.1-13.17,7.78Z"/>
        <path class="cls-1" d="M230.76,250.84c2.07.51,2.99-.32,3.67-1.44.82.08,1.8-.15,2.6.76-4.15,2.27-8.01,3.52-12.35,4.59,1.08-2.46,5.21-1.56,6.08-3.9Z"/>
        <path class="cls-1" d="M230.55,242.51c-2.53.7-4.59,3.28-7.75,1.94l22.67-8.78c-4.15,4.17-9.87,4.7-14.92,6.83Z"/>
        <path class="cls-1" d="M243.58,233.38l.02-.74c2.81-.95,5.67-3.66,9.67-3.27-3.02,2.16-6.71,2.45-9.69,4.02Z"/>
        <path class="cls-1" d="M221.5,246.07c-.9.36-1.57.35-1.34.07.66-.79.91-1.1,1.18-1.16.61-.12,1.64.49.16,1.09Z"/>
        <circle class="cls-1" cx="239.53" cy="248.43" r=".38"/>
        <circle class="cls-1" cx="238" cy="249.19" r=".38"/>
        <path class="cls-3" d="M145.06,291.1c.93-1.39,2.59.36,2.92,1.87l.72-1c.44-.61,1.17-.78,1.61-.48.89.62,1.25,6.7-.73,7.16,2.31,2.21,2.18,5.68,1.51,8.78-5.69-1.47-17.75-3.44-20.13-6.45-.37-.47-.67.07-1.14.9-3.78-.71-7.73-1.45-11.82-3.03.29-4.86.85-9.3.08-14.28,5.17.1,9.65,1.69,13.18,4.72-.97-3.5,6.46-.4,6.97.31l4.7,6.45c-.28-2.33-2.03-3.93-1.7-6.35,2.28.79,2.15,2.91,3.47,4.16,1.27-.44-.3-1.78.35-2.76ZM138,294.64c-1.88-2.15-2.79-4.85-5.95-5.27,2.93,3.56,5.46,6.71,8.6,9.8l-2.65-4.53ZM145.6,294.67c-.64.79.05,1.47.86,1.41.37-.03,1.22.83,1.07.44-.41-1.08-1-2.99-1.92-1.85ZM143.91,297.19c0-.21-.17-.38-.38-.38s-.38.17-.38.38.17.38.38.38.38-.17.38-.38ZM128.77,299.09c0-.27-.22-.48-.48-.48s-.48.22-.48.48.22.48.48.48.48-.22.48-.48Z"/>
        <path class="cls-1" d="M221.02,267.63c3.82-2.06,8.31-2.81,12.81-4.4l11.48-3.08c-.72,2.01-2.77,2.02-4.49,2.55-6.5,1.73-12.38,4.35-19.81,4.93Z"/>
        <rect class="cls-1" x="155.96" y="293.71" width="19.93" height="1.7" transform="translate(-114.21 105.3) rotate(-26.57)"/>
        <path class="cls-1" d="M189.31,284.13c-3.97,2.59-7.59,4.4-12.17,4.96,3.61-2.51,7.33-4.69,12.17-4.96Z"/>
        <path class="cls-1" d="M175.21,293.57c1.77-2.38,4.82-2.78,7.58-3.32-2.34,1.66-4.13,3.38-7.58,3.32Z"/>
        <rect class="cls-1" x="179.02" y="281.93" width="4.44" height="1.57" transform="translate(-119.63 133.54) rotate(-30.96)"/>
        <rect class="cls-1" x="246.07" y="258.31" width="4.44" height="1.57" transform="translate(-97.92 164.67) rotate(-30.96)"/>
        <rect class="cls-1" x="183.59" y="288.02" width="4.44" height="1.57" transform="translate(-122.11 136.76) rotate(-30.96)"/>
        <path class="cls-1" d="M205.44,275.72c.09-.33.92-.05,1.1.13.28.29.61.67.5,1.52-.08.6-1.02.33-1.29-.09-.21-.33-.55-.72-.31-1.55Z"/>
        <circle class="cls-1" cx="213.54" cy="270.64" r="1.13"/>
        <path class="cls-1" d="M232.93,268.34c-3.54.78-5.43,2.65-8.34,1.42,2.46.02,8.93-2.97,8.34-1.42Z"/>
        <path class="cls-1" d="M176.08,284.01c.34-.38.99-.15,1.69-.14.49,0,.47.49.04.78-.57.39-.57.68-.86.75-.63.16-1.62-.55-.86-1.4Z"/>
        <circle class="cls-1" cx="209.43" cy="271.66" r=".85"/>
        <circle class="cls-1" cx="201.81" cy="279.28" r=".85"/>
        <circle class="cls-1" cx="189.62" cy="287.28" r=".48"/>
        <path class="cls-1" d="M251.34,257.56c.61-.47,1.39-.46,2.15-1.2,0,.99-.52,1.88-2.15,1.2Z"/>
        <circle class="cls-1" cx="191.53" cy="282.71" r=".38"/>
        <circle class="cls-1" cx="190" cy="283.47" r=".38"/>
        <circle class="cls-1" cx="176.29" cy="289.57" r=".38"/>
        <circle class="cls-1" cx="174" cy="294.14" r=".38"/>
        <circle class="cls-1" cx="172.48" cy="294.9" r=".38"/>
        <circle class="cls-1" cx="170.96" cy="295.66" r=".38"/>
        <circle class="cls-1" cx="155.72" cy="299.47" r=".38"/>
        <path class="cls-1" d="M148.21,287.25c-.67-2.16,2.18-2.44,4.08-2.79l-1.44-1.42c1.54-.95,9.55-4.46,10.83-1.49-2.46,1.13-4.47,1-5.98,2.87-2.81-.24-3.81,1.79-7.49,2.83Z"/>
        <path class="cls-1" d="M169.91,272.11c-6.08.16-9.12,3.01-14.41,3.21.96-.91,12.19-5.41,14.41-3.21Z"/>
        <path class="cls-1" d="M150.8,274.76c1.51-1.6,3.34-2.74,5.53-2.88,3.09-.21,4.45-4.02,7.98-2.66-4.46,2.88-8.8,4.02-13.51,5.54Z"/>
        <path class="cls-1" d="M136.26,282.21c5.85-2.82,11.78-5,18.36-6.57-5.87,2.76-11.85,4.79-18.36,6.57Z"/>
        <path class="cls-1" d="M146.18,276.43c-1.08,1.56-3.08,2.24-5.41,1.82,1.78-.34,2.54-2.18,5.41-1.82Z"/>
        <path class="cls-1" d="M138.37,279.6c-2.38,1.2-3.55,2.79-5.19,1.54,2.19-.3,3.24-1.8,5.19-1.54Z"/>
        <path class="cls-1" d="M130.2,282.71c.61-.47,1.39-.46,2.15-1.2,0,.99-.52,1.88-2.15,1.2Z"/>
        <path class="cls-1" d="M164.7,280.33c-1.85.68-3.2.32-1.53-.37,1.2-1.11,2.59-.73,1.53.37Z"/>
        <path class="cls-1" d="M149.46,275.76c-1.85.68-3.2.32-1.53-.37,1.2-1.11,2.59-.73,1.53.37Z"/>
        <circle class="cls-1" cx="139.72" cy="278.9" r=".38"/>
        <path class="cls-1" d="M138,294.64l2.65,4.53c-3.14-3.09-5.67-6.24-8.6-9.8,3.15.42,4.07,3.12,5.95,5.27Z"/>
        <path class="cls-1" d="M145.6,294.67c.92-1.13,1.52.78,1.92,1.85.15.39-.7-.46-1.07-.44-.81.06-1.5-.63-.86-1.41Z"/>
        <circle class="cls-1" cx="128.29" cy="299.09" r=".48"/>
        <circle class="cls-1" cx="143.53" cy="297.19" r=".38"/>
        <path class="cls-2" d="M46.93,213.82l-3.61,1.32c-.36-2.14-.11-5.06.86-6.74.82-.28,3.82.87,3.98-.46.51-4.35,1.78-8.02,2-12.66-2.87,2.97-2.78,6.94-4.03,10.75-2.37.29-3.97-1.84-5.94-2.73-3.43-1.54-7.09-2.18-9.86-4.81l2.39-10.68c.33-1.46,1.39-3.22,2.86-3.48,5.83,4.46,12.23,7.65,19.71,9.95-3.78,4.22-3.35,8.36-4.42,12.65-1.92,7.66-3.53,15.01-4.75,22.77-.05.3-4.63,24.45-7.2,20.51-1.34-3.38,1.53-6.16,1.73-9.15.2-3.02-.42-5.83.36-9.04,1.12-4.6-.44-9.61,1.1-14,1.25-1.26,4.3-1.29,4.81-4.2Z"/>
        <path class="cls-2" d="M84.2,208.4c-.17,3.12-.78,5.35-1.65,8.33-9.94-2.43-19.29-5.6-28.63-9.58.23-4.06.89-7.44,3.04-10.68l12.05,5.55c4.96,2.29,9.39,4.99,15.18,6.38ZM67.49,205.96c-2.98-2.04-5-3.76-7.91-3.21,2.62,2.55,5.49,2.82,7.91,3.21Z"/>
        <path class="cls-2" d="M95.72,220.24c-9.53,16.38-3.87,28.77-6.77,45.25-1.63-10.97-.31-21.12.32-31.85,1.37-6.21,3.49-12.44,7.8-17.19,1.77-1.95,4.6-2.74,7.35-4.68,1.37,2.55.36,5.78-1.57,7.41-1.82,1.54-4.59.78-7.12,1.07Z"/>
        <path class="cls-2" d="M36.75,250.36c-4.56-.56-8.2-1.81-12.27-3.32-.24-1.88-.74-3.93-.1-5.84.41-1.24,3.73-3.04,4.78-2.04,2.92,2.77,5.01,5.62,8.51,7.77.76.47-.18,2.51-.92,3.43Z"/>
        <path class="cls-2" d="M125.25,207.48c-2.37,1.98-3.43,4.67-6.03,5.43s-4.72-3.07-5.34-4.97c-.67-2.05.98-7.02,3.42-6.84,2.95,1,4.12,5.3,7.95,6.37Z"/>
        <path class="cls-2" d="M117.34,215.03c.54.91-1.3,3.73-2.46,3.75-3.02.06-5.28-.78-8.92.46,1.41-2.83,1.52-4.82,1.66-7.92.07-1.48,4.14-2.09,5.05-.77,1.22,1.77,3.04,2.89,4.66,4.47Z"/>
        <path class="cls-2" d="M86.56,237.95l-1.21.03c.21-6.25,1.52-11.73,3.98-17.11-1.33-.69-3.73-.74-3.73-2.06,0-3.38.43-7.8,2.58-10.47,3.63.64-.93,3.81.09,8.66.23,1.1,1.88,1.64,3.27,2.75-3.12,5.94-4.14,12.06-4.97,18.19Z"/>
        <path class="cls-2" d="M32.18,202.77c.43,1.26-.21,11.72-1.42,12.18-2.99,1.13-1.71-8.54-3.13-12.8-.62-1.87-1.8-3.87.68-5.35.32,1.55-.22,2.8.4,3.79s3.02,1.18,3.47,2.17Z"/>
        <path class="cls-2" d="M97.13,210.21c-2.01,2.61-2.89,5.52-5.93,7.66-.1-3.45.58-5.72-.71-8.55,2.68-.28,4.34.26,6.63.9Z"/>
        <path class="cls-2" d="M35.69,169.26c-.33,4.1.53,7.27,1.53,11.05-2.92-.23-4.06-2.61-4.23-4.49-.22-2.45-.55-5.05,2.7-6.55Z"/>
        <path class="cls-2" d="M38.87,205.56c4.8.57,2.72,9.55.21,10.84l-.21-10.84Z"/>
        <path class="cls-2" d="M66.7,186.48c-2.34-1.22-3-3.02-4.17-5.3,2.23.72,3.77,2.95,4.17,5.3Z"/>
        <path class="cls-2" d="M38.11,169.44c-1.38.57-2.35-1.02-2.76-1.85s.87-2.23,1.77-2.62c-.03,1.62.45,2.37.99,4.47Z"/>
        <path class="cls-1" d="M49.64,298.51c-1.22.33-1.53.59-2.08.62-.51.02-1.5-.02-.84-.8.4-.46,1.05-.71,1.86-1.18,1.35-1.02,2.36.32,1.06,1.36Z"/>
        <path class="cls-2" d="M69.19,189.24c-1.21.32-2.19-.46-2.15-2.43,1.1.06,1.63.81,2.15,2.43Z"/>
        <path class="cls-2" d="M36.8,212.98c-.54-1.09-.54-2.3-.03-3.85.8.82.71,1.85.03,3.85Z"/>
        <path class="cls-2" d="M37.14,240.42h1.12c.29.31.92.73.49,1.19-.61.66-1.45.44-1.5-.07l-.11-1.12Z"/>
        <path class="cls-2" d="M38.25,234.44c-4.11-5.63-16.32-10.63-22.93-10.1-.61-3.09-.46-5.86-.64-8.36,6.16,2.53,11.54,5.59,18.15,4.32-2.9-1.24-22.22-4.05-18.08-9.62,1.82,3.02,4.81,3.41,7.58,4.48,5.92,2.29,11.43,4.12,18.05,3.22l-2.14,16.07Z"/>
        <circle class="cls-2" cx="69.62" cy="190.52" r=".38"/>
        <path class="cls-1" d="M170.74,203.74c-.32-.01-.71.26-1.02.18.27-1.13-.39-1.47-.69-2.28,1.59-.03,1.13,1.57,1.71,2.09Z"/>
        <path class="cls-1" d="M108.85,311.46c-1.69-1.02-15.31-34.94-18.95-39.65-2.17,8.82.19,33.53-1.36,39.54-1.71-.05-4.9.25-4.85-.29.67-7.19,2.39-22.19,1.28-29.74-3.88,8.01-5.96,21-8.5,29.85l-57.06.29c.29-7.06-2.52-9.51-2.88-19.07l-1.72-46.09c-1.85-3.56-4.51-7.3-5.2-11.27-2.65,1.09-3.06,5.01-5.62,5.27-1.13.11-3.45-.04-3.78-1.67-.87-4.38,1.09-9.44,4.45-12.4,1.97-1.74,5.01-1.14,7.37-2.14.11-4.73-1.7-10.35.37-14.76.92-1.96,3.25-2.35,2.34-5.58-1.38-4.89-2.01-10.34-2.1-15.37-.06-3.24,1.57-4.92,4.63-5.39,7.47-1.14,5.15,8.02,7.32,14.9,1.74-4.52,1.79-9.58,4.09-13.96,4.38-8.35-2.54-6.19,1.08-13.67,4.94-10.24,5.05-6.13,4.47-18.83-5.04-2.5-5.94-7.7-3.78-12.37,4.24-9.17-.74-16.09,7.49-18.5l1.39-8.55c.14-.85,12.1-13.83,15.21-21.2l5.91-14.01c6.05-14.34,22.67-20.91,37.04-23.56,6.1-1.12,12.23.28,18.34.32l13.39.09c3.05-.55,5.06-4.17,7.93-5.03-5.24-5.25,2.38-3.74.77-9.8,1.07-.13,4.36,1.03,4.39-.87s-1.47-3.55-.19-5.43c1.24,1.75,2.31,3.4,4.73,3.54-.65-5.73,4.88-6.24,1.55-10.4-1.88-2.35-2.04-7.36,1.18-8.64,10.47-4.17,15.36-14.88,28.89-16.62,6.03-.78,12.88-.48,18.52,2.03,16.03,7.15,24.27,24.28,21.35,41.31-.76,4.42-2.99,8.18-3.2,12.45-.11,2.19-.99,4.55-.98,6.6.02,3.73,2.54,7.11,2.79,10.84.22,3.35-1.33,5.07-4.52,5.92-3.8,1-7.76-1.47-11.24-.97-3.04.44-5.3,4.14-9.15,3.57-2.57-.38-.37,7.05-7.06,6.77-1.52.6-2.91,3.11-4.09,4.41,2.15,5.08,5.51,9.56,6.51,14.84,3.63,19.1-3.23,29.44.91,39.59,1.63,4-.38,7.44.14,11.3,2.15,15.83,5.15,9.61,2.56,21.73-.78,3.65,2.22,10.27,4.36,13.26,2.19,3.04,6.69,2.6,9.21,4.91,9.76,8.93,8.67,10.29,7.09,18.65-.62,3.28-3.11,4.86-5.53,6.64-2.26,1.66,3.55,8.72-4.64,13.77,2.98,1.96,4.72,4.12,5.49,8.2l29.29-11.47c2.58-1.01,5.07-1.32,7.31-2.07l-.02.74c-11.19,5.86-23.34,10.01-35.53,14.92,8.61,9.37.74,6.02,8.06,8.41l5.89,1.92c15.08-5.93,28.8-13.7,43.66-18.38v.78c-3.18,2.27-6.76,4.07-10.47,5.42-.33.12-.54.56-.84.73-.21.04-.52-.11-.71-.02-10.43,4.75-21.11,8.92-31.48,14.32-6.25,3.25-12.55,6.33-19.19,8.63-1.86.65-2.31.59-3.89,1.85-2.46,1.96-6.53,2.65-9.69,4.08l-34.58,15.59c-.68.3-.87.77-1.02,1.05-.23.43-.03,2.14.72,1.81l20.24-8.79-20.44,10.31c-1.49,1.56-.42,5.91-.16,7.78,5.6-2.07,8.9-5.83,15.1-7.24l-14.12,7.63c-.81.44-1.03,1.15-1.35,1.46s.28,2.2.84,1.93l49.93-24.04,2.98-1.59,47.42-22.44c3.89-1.84,7.59-3.15,10.9-5.22.26-.16.7-.1.99-.31.41-.3.54-.84.48-1.35l1.43.16c1.51.17,3.1-.37,4.48-1l-.09.75c-5.59,3.54-11.41,6.33-17.8,9.4l-80.61,38.78c-6.29,3.03-4.78,2.55-2.54,10.59l-63.35.16ZM176.67,3.47c-.32.1-.75.02-1.12.03-.48.01-1.39.62-.86,1.25,1.02.32,2.42-.78,2.97,1.16-4.03-.78-6.31.43-8.69,2.04-2.33,1.57-14.44,7.7-10.8,11.91,1.29-1.77,3.87-3.01,4.91-5.11,5.55-1.86.49-4.17,10.93-6.28.36-.07.91-1.1,1.16-1.31.69-.6.9.16,1.59.81,2.57,2.42,6.11,3.23,8.93,6.24-1.74,1.54-2.74-.91-4.06-.78-2.2,2.62.26,4.32,1.01,6.7-1.16-.46-1.3-2.67-3.09-1.43.95,1.81,3.02,2.53,2.78,4.66-2.72-1.48-4.26-3.48-7.04-3.05.65,4.27,6.68,4.14,4.91,7.47-.95-.07-1.93-2.07-3.62-1.15.94.35,1.58,2.6,2.23,2.34l2.86-1.16c.64-.26,2.58.24,2.39,1.57-.13.9-1.57,1.84-2.14,2.21-.79.51-1.81-1.21-3.32-1.82-1.39-3.66.92,9.92-.86,4.59.08.25.26.64.39.8.46.55.87-.16,1.63-.92.81,6.43,5.5,10.32,11.83,11.65,5.69,1.19,10.55-1.14,12.35-7.19s2.55-14.59-1.37-19.19c-.32-.26-.82.44-.82.77.01,2.32,1.87,4.7-.25,7.18-2.32-5.61-4.03-10.64-8.37-14.53-1.1-.98-1.99-2.1-1.95-3.41,3.67-.11,4.38,4.4,8.31,6.36-.38.77.3,1.19.69,1.42.34.21.2,1.09,1.22.7.3-.11.4-.39.47-.77.38-2.15-.78-4.42-3.04-4.74-.96-2.89-4.18-4.35-6.64-6.25-4.72-3.65-10.11-4.33-15.53-2.73ZM195.8,5.06c2,2.45,4.4,4.65,6.78,6.73.17,1.36.84,2.73,2.24,3.1-.1.57.55,1.07.69,1.55,2.92,9.58,4.18,20.69-3.35,28.64-4.56,4.82-13.2,3.15-18.3-.02-4.46-2.77-6.6-6.52-11-9.78-.27,3.7,2.13,5.36-.94,7.22,1.85,2.94,3.45,6.04,6.34,8.63,2.18-1.13,2.4-3.26,4.09-5.03,2.83,1.04,5.22,3.1,7.69,5.04.25,2.19-1.28,3.41-1.65,5.98,5.62,2.75,11.11,5.18,17.13,6.57.66.15.88.93.97,1.22-1.37-.03-2.75.02-4.6-.19-5.09-.59-10.01-2.57-14.4-5.91-7.18-.49-11.61-9.23-13.05-6.88-.66,1.07,7.66,10.99,9.79,13.19,7.19,7.41,17.44,11.47,28.16,11.76.88.02,1.71-.72,2.02-1.08.83-.99-1.98-12.92-5.21-11.5-.22-1.68.23-3.31,1.5-4.73.96,1.25-.16,2.03.59,2.53.85-.68.84-1.66.82-2.25,0-.37-.96,0-1.4-.76,1.63-5.73,4.16-11.24,4.81-16.79,1.67-9.54-.12-18.7-6.4-26.4-3.79-4.65-7.52-9.72-13.34-10.87-.95-.2-1.49-2.43-3.23-1.28,1.05.68,2.18.9,3.23,1.28ZM156.87,34.87c-1.77-2.39-2.88-3.24-4.55-4.83-1.41,1.92-1.94,3.64-1.43,5.98,2.13-.37,4.09-.24,5.97-1.14ZM173.46,34.72c-1.87-1.72-2.7-.79-3.1.11-.18.4-.42,1.47-.97,1.48-1.35-.87-.33-2.24-1.04-2.46-.9-.27-1.57-1.17-2.46.01l4.79,5.66c1.1-2.38.7-3.84,2.79-4.81ZM149.53,46.03c-1.3,2.82-1.32,12.03,3.42,13.74,0,1.42-2.39,2.55-3.37,1.3-1.14-1.45-1.48-3.12-2.06-4.86-.59.03-.85.45-1.13.73-.5-.37-1.16-.66-1.66-.37-.76.46-1.16,1.18-1.59,1.79-.9-.19-1.47-.97-3.08-1.45-1.03,9.78-.58,20.31,2.64,30.06,1.16,3.51-1.36,5.88-.59,8.7l3.49,12.9c1.06,3.9-1.29,7.97-.75,12.45l9.46-20.72c-.35-1.59-3.22-.01-3.67-.65-.68-.95-2.78-1.69-3.61-2.39-1-1.94,1.77-4.94,1.18-6.78-1.76-5.5-1.36-10.63-.56-16.18,2.22-15.56,7.15-5.25,10.73-24.08-3.04.02-3.64,2.75-3.87,5.1-1.17.59-2.29-.83-2.38-1.92-.06-.75.82-1.94.58-2.96-.14-.6-1.79-.45-1.74-.86.31-2.28,3.6-.79,4.09-3.07.14-.64-.38-1.29-.94-1.59-1.42-.76-2.61,3.13-3.5,1.14.43-2.44,2.52-2.53,5.35-3.73-3.73-1.5-5.34,1.28-6.45,3.7ZM157.48,45.27c-.59-1.07-.59-1.37-.81-2.24-.88.36-.8,1.14-.2,1.57.22.16.5.82,1.01.66ZM174.88,59.27c-.24-2.68-2.43-4.63-5.33-5.24,1.18,1.98,1.74,4.58,5.33,5.24ZM178.41,125.35c.05.93-.8,2.81.52,3.08.54-.62,1.93-2.1,2.34-.94-2.08,5.27-6.17,8.85-8.67,13.6l-1.23,2.34c-.56,1.05,1.75,1.44,1.87,2.29.47,3.28-2.64,5.7-4.14,8.61,2.55-1.19,5.06-2.34,7.7-1.12-4.7,3.92-8.62,2.7-14.11,8.42,3.62-.43,6.42-2.48,10.04-2.23l11.37.79c3.44-3.91,1.42-13.45-1.59-15.67l1.38-8.36c1.18-7.13,2.11-13.98.7-21.35-1.34.67-3.69,10.22-5.65,9.05,2.78-12.66,9.62-16.17-.97-28.14-.87,2.3-4.03,3.29-4.65,5.51-.79,2.84,1.55,6.62-.88,9.34-.94,1.05-2.4-1.44-3.01-2.67.33,2.48-3.5,1.69-4.36,2.79-6.11,7.79-12.56,14.73-19.49,21.66-2.93,2.93-4.98,6.09-5.8,9.84-.73-1.23.33-2.7-.98-3.09-3.19,3.73-2.69,8.4-3.69,12.82-.82,3.62-6.65,16.95-7.64,17.48-4.36,2.33,2.6-9.87,4.28-16.7,1.38-5.59,2.27-11.01,5.04-16.16,1.62-3.01,4.23-6.16,4.56-9.76l1.64-17.4c.59-6.24-5.91-8.52-5.88-17.56.03-6.29-9.57-.49-15.68-2.24l3.55-19.75c.79-4.37,1-8.57,2.21-12.74-13.81.28-28.42-3.38-40.08,3.5,4.04-.7,6.25,3.23,9,3.53,5.17.55,10.36-2.13,15.77-.94-.15,2.47-9.27.01-14.74,2.97,3.26,6.69,5.04,13.59,3.77,21.18-1.22-7.56-2.63-15.52-7.39-22.05-1.87-2.58-5.79-2.67-8.12-4.9-9.33,5.18-19.93,9.35-22.11,21,2.87-2.67,4.62-5.71,7.87-8.01,2.94,2.34-9.59,13.51-10.95,15.65l-11.33,17.7c-4.14,6.46-9.06,6.82-6.41,13.81,2.97-.39,5.61.24,8.61-.64l-5.97-1.77c5.6-3.76,30.99,8.37,33.52,13.79.66-1.25.77-1.79,1.12-2.31.48-.7,1.1-.11,1.4.41.2.34.51,1.22,1.15,1.59,1.79-1.45,2.24-4.39,3.76-6.17,2.81-3.3,3.97-7.08,3.08-11.53-2.31-11.64-1.89-23.26,1.87-34.22l1.91,17.46,2.39,11.74c8.81-10.39,6.62-21.3,8.65-33.79,1.38,6.26,1.84,12.88.48,19.45l-2.94,14.13,6.93-16.03c.73,8.15-5.75,18.06-8.11,25.62,1.77,1.37-3.29,11.81.59,13.44l13.66,5.73c3.97,1.66,8.26,2.56,12.12.19,2.09-1.28.79-4.51,2.92-6.55-.34,11.94-3.42,8.98-4.27,10.75-3.48,7.27-4.72,15.57-10.36,21.81l8.41-21.01-24.71-8.47c-.51-1.14.05-2.31-1.33-3.1l-3.11,6.55c-2.17,4.57-4.92,8.93-3.37,14.51.99,3.58,5.3,5.55,8.56,7.22,7.26,3.73,14.37,6.5,21.88,9.42,3.99,1.55,7.21,3.63,11.95,3.04,4.88-.6,9.63.66,14.42,2.49l12.05-17.16c3.78-5.39-9.2-1.67-10.18-9.87l-8.35,22.46c-.73-4.65,1.58-8.2,3.08-12.08l7.75-20.08c-.23,7.84-2.54,9.89,4.36,12.89l5.86,2.55c2.28-2.98,3.35-6.63,4.89-10.4-4.23-1.97-8.33-2.16-11.95-4.8,4.2-.47,10.55,3.59,13.05,1.78.78-.56,1.24-2.04,1.76-3.43l7.96-21.34c.84,4.29-1.67,7.22.44,10.53ZM161.49,80.43c-1.13-.38-2.3-.53-3.75-.8-.21.94-.26,1.4.05,2.36,1.17-.88,2.39-.8,3.57-.73-.02.43.03.86.03,1.29-.64.63-2.04.32-2.49,2.12,1.37.38,2.18-.89,3.3-1.07,2.82,5.87,4.9-4.57,15.52,1.3-.6-2.67-.47-4.26.55-6.62-3.89-1.56-12.5-11.88-9.23-16.25-1.35-1.91-2.05-3.58-3.98-5.8-8.62,8.85-3.69,7.5-6.41,15.53.81.72,2.16,1.26,2.06,2.19-.1.86-.75,1.71-.75,2.7,0,1.58,1.85,2.34,1.53,3.78ZM175.91,60.62c.28.57.41,1.31,1.53,1.47-.69-.82-.48-1.99-1.53-2.23-.49-.11-1.03.26,0,.76ZM178.43,71.05c-.08-2.1-3.85-3.22-3.6-4.68l.41-2.31c.2-1.12-3.94-1.07-4.49.06-1.08,2.24,3.27,7.94,4.87,9.66,5.7,6.13,13.83,0,13.17.73,2.03-2.26-8.71-3.28-10.37-3.46ZM181.72,68.82c-1.58-2.28-3.36-3.85-6.32-3.58,2.1,2.11,4.31,2.3,6.32,3.58ZM197.72,77.55c-.78-1.21-3.21-2.02-4.38-1.58-.92.35-1.66,1.86-1.72,3.43,2.08.16,4.72-.26,6.09-1.85ZM182.33,85.19c1.45.4,3.89,2.74,5.02.57,1.28-2.44,1.4-5.46,2.37-8.47-5.47,1.91-10.44,1.19-11.33,4.33-.42,1.49,5.45,2.36,2.55,3.2-.47.14-1.28-.02-1.96.43.56,1.72,2.11-.4,3.34-.06ZM171.29,90.88c2.8.68,4.9,2.08,7.3.17-7.15-2.62-8.95-6.33-13.43-1.42,2.34,1.55,2.66,3.5,3.36,6.13,1.09-1.53,1.32-3.41,2.77-4.87ZM91.86,114.63c-.02-4.49-.49-7.88-1.11-11.54-.66-3.92.48-7.63-.6-11.28-.14,2.64-.9,5.16-.72,7.51l.53,7.01c.23,3.07.4,6,1.91,8.31ZM155.74,117.4c2.74-2.88,5.21-5.95,7.45-9.21,2.31-3.35-3.44-12.87-4.94-9.75-3.17,6.56-5.42,13.22-8.92,19.49-2.11,3.78-5.17,6.82-5.35,11.82l11.77-12.34ZM98.86,120.26c-2.35.44-3.71,2.08-4.93,3.8l-3.98,18.17c4.35-7.65,4.96-14.39,8.91-21.97ZM47.68,140.19l8.67-.24c6.55-.9,12.9-.67,19.33.63,1.96-6.75-5.36-11.93-11.08-13.76-8.07-2.58-16.27-5.06-24.83-3.3-3.14.65-4.58,4.97-3.09,8.15,3.38-2.61,7.37-1.36,11.05-2.05,9.01-1.71,17.89-.68,24.64,6.2-2.82-1.05-4.43-1.22-7.1-.87-3.79.5-8.65-1.12-11.95,1.36-1.74,1.31-2.99,2.72-5.66,3.88ZM46.76,138.14c1.28-1.27-5.64-2.98,14.27-5.44-4.41-2.6-15.34-.68-20.32.67-3.88,1.05-5.53,3.42-6.41,7.33-.53,2.36-2.12,4.81.88,7.02,1.43-6.14,8.24-6.27,11.58-9.58ZM131.87,203.22c.3-.24.47-.63.75-.89,1.78-.06,4.31-.19,5.27-2.02-.93-1.52-2.53-1.69-3.27-3.47,3-1.65,7.72,7.16,11.59,1.76-.87-2.33-5.2-3.89-3.62-7.2l7.18,7.39c.86.89,2.35.72,3.29,0,.81-.63,1.11-2.05.2-3.33l-9.55-13.39c-.63-.89-1.26-1.86-1.2-2.84.06-1.05,1.68-1.56,2.44-2.96-5.96-2.16-12.29-1.11-18.42-2.59-6.71-1.61-29.03-11.11-35-15.8l-13.63-10.69c-2.44-1.91-4.78-4.42-8.18-4.66-7.13-.49-13.87,1.84-21.07,2.61-3.56.38-8.03-1.01-9.84,3.47-1.11,2.74-1.26,7.73.43,10.46.57.93,24.78,15.44,30.89,17.16l37.68,10.61c2.37.67,4.99,1.96,6.29,4.05,3.6,5.76,7.64,11.43,14.08,14.28,1.39.62,2.87-1.31,3.7-1.96ZM162.56,176.81c8.63-4.42,18.06-8.5,25.7-.42,1.37-3.85-1.15-6.61-3.19-9.2-.03-1.46.79-2.62.37-4.04-7.69-2.11-15.83-.49-22.2,3.87,2.67-.91,5.01-.1,7.27-.28,3.18-.25,6.38-2.35,9.55.82-5.97,1.05-10.8,2.57-15.47,5.96-1.08.79-3.65.93-2.05,3.29ZM38.11,169.44c-.54-2.1-1.02-2.85-.99-4.47-.9.39-2.17,1.82-1.77,2.62s1.38,2.41,2.76,1.85ZM161.47,169.15c1.53-.99.52-2.7-.97-1.36-1.88.59-1.37,1.02.97,1.36ZM35.69,169.26c-3.24,1.5-2.92,4.1-2.7,6.55.17,1.88,1.3,4.26,4.23,4.49-1-3.78-1.86-6.95-1.53-11.05ZM158.38,169.95c0-.21-.17-.38-.38-.38s-.38.17-.38.38.17.38.38.38.38-.17.38-.38ZM180.63,198.6c.29.09.52.31.62.59-1.74,2.71-2.94,6.15.02,7.84,1.25.17,4.27-.42,4.9-1.36l1.79-2.68c2.24,2.87,1.63,2.25,4.4,2.09,3.26,6.21,5.96,9.69-.52,15.84,2.41,2.17,4.65.28,6.51-1.43,7.3-6.7-1-10.33,2.39-16.37,1.93,4.49,2.95,9.55,2.24,14.24-.33,1.69-2.61,2.41-2.63,3.99-1.02-.06-1.46,0-1.61.43-.16.46-.04.87.38,1.13.33.21.86.06,1.14-.36.17-.25.01-.68.09-1.21,5.5-.95,4.63-4.45,6.05-11.32l.73-.07v1.52c0,3.3-.17,6.54-2.13,9.65,3.74-.65,2.23-5.6,3.65-9.65.08-.23-.05-.52,0-.76,1.03,1.27.07,2.77,1.14,4.68.69-2.15,1.68-4.87-.23-6.26-.61-.44-.37-2.3-1.59-2.39-.2-.01-.4-.08-.6,0-2.28-9.29-14.13-7.54-17.51-11.56.75-.34,1.42-.39,1.76-.84,0-.01-3.4-10.64-3.82-12.09-1.09-3.74-3.45-6.51-7.69-7.09-6.37-.87-13.04,1.92-17.07,7.29,5.07,5.69,9.91,10.47,14.07,16.44.81,1.16,2.69-.1,3.5-.29ZM169.72,203.92c-.11,1.03,1,.77,1.02-.18,2.23,2.02,3.64,4.3,6.64,5.15.39-3.9-1.29-7.37-3.82-10.44-6.2-7.53-12.9-14.35-20.24-20.76-1.34-1.17-3.26-1.19-4.59-.63-8.31,3.44,10.02,16.87,11.8,23.77,2.98,1.52,6.25,2.35,9.19,3.1ZM161.43,176.81c0-.21-.17-.38-.38-.38s-.38.17-.38.38.17.38.38.38.38-.17.38-.38ZM66.7,186.48c-.41-2.36-1.94-4.58-4.17-5.3,1.18,2.28,1.84,4.08,4.17,5.3ZM115.49,198.28c-3.67-8.3-5.04-7.87-13.9-10.2l-10.89-2.86c-1.02-.27-2.18-.64-2.93,0-.47.41-1.9,1.24-1.27,1.92,3.3,3.52,7.29,5.51,9.39,9.82-.99-.27-2.38-.61-3.12-1.33-3.83-3.72-8.06-6.23-12.68-8.7-3.72-1.99-6.4-5.58-11.33-5.95,4.04,7.72,16.21,12.63,22.19,20.55-6.54,1.15-12.85-9.44-17.76-12.73,1.88,4.46,5.26,8.24,9.33,11.67,8.26,6.96,15.92,1.13,15.93,8.72,6.07-5.11,15.48-4.83,17.03-10.9ZM46.93,213.82c-.51,2.91-3.56,2.94-4.81,4.2-1.54,4.39.02,9.4-1.1,14-.78,3.21-.16,6.02-.36,9.04-.2,2.99-3.08,5.76-1.73,9.15,2.57,3.94,7.15-20.21,7.2-20.51,1.22-7.76,2.83-15.11,4.75-22.77,1.07-4.29.64-8.43,4.42-12.65-7.48-2.31-13.88-5.5-19.71-9.95-1.47.25-2.54,2.02-2.86,3.48l-2.39,10.68c2.77,2.63,6.43,3.27,9.86,4.81,1.97.88,3.56,3.01,5.94,2.73,1.25-3.81,1.17-7.78,4.03-10.75-.22,4.64-1.49,8.31-2,12.66-.16,1.33-3.16.18-3.98.46-.97,1.69-1.21,4.6-.86,6.74l3.61-1.32ZM16.01,187.09c0-.27-.22-.48-.48-.48s-.48.22-.48.48.22.48.48.48.48-.22.48-.48ZM69.19,189.24c-.52-1.63-1.06-2.37-2.15-2.43-.03,1.98.94,2.75,2.15,2.43ZM16.2,199.37c1.21-3.57.21-7.19-.82-10.65-.14,4.19.74,7.06.82,10.65ZM18.35,189.44c.19,8.43,1.55,15.67,2.95,23.08,1.03-2.06-1.15-24.39-2.95-23.08ZM70,190.52c0-.21-.17-.38-.38-.38s-.38.17-.38.38.17.38.38.38.38-.17.38-.38ZM32.18,202.77c-.44-1-2.82-1.14-3.47-2.17s-.08-2.25-.4-3.79c-2.48,1.48-1.3,3.47-.68,5.35,1.42,4.26.14,13.93,3.13,12.8,1.21-.46,1.85-10.92,1.42-12.18ZM84.2,208.4c-5.79-1.38-10.22-4.09-15.18-6.38l-12.05-5.55c-2.15,3.23-2.82,6.61-3.04,10.68,9.34,3.98,18.7,7.16,28.63,9.58.87-2.98,1.48-5.21,1.65-8.33ZM155.5,198.67c-.74.87.13,1.57.9,1.4.29-.06.87.34,1.14-.41-.04.11-1.19-1.99-2.04-.99ZM125.25,207.48c-3.84-1.07-5-5.37-7.95-6.37-2.44-.18-4.09,4.78-3.42,6.84.62,1.9,2.74,5.73,5.34,4.97s3.66-3.46,6.03-5.43ZM125.61,211.29c-.88.69-1.63.59-2.27,1.7.28-.49-4.97,4.91-5.24,7.01-1.73,1.99-3.33,4.07-3.91,6.7-.28,1.25-1.61,2.06-1.78,4.09l15.38,4.29c3.58-10.54,13.03-18.37,24.52-16.12,9.63,1.89,16.88,8.93,19.78,18.33,2.24,1,7.31-1.57,8.09.56.53,1.47.16,2.48-1.18,3.22-1.49.83-3.59.73-4.9,2.13-1.01,1.08-.62,4.95.84,5.8,3.35,1.97,7.27,2.24,10.83,3.94,1.41-3.76.31-6.72,0-10.09-1.36-15.1-9.86-26.84-22.49-35.26,15.37,3.68,26.11,30.23,24.38,43.08-.15,1.15-.58,2.16,0,2.71.79.75,3.13.34,3.2-1.09.7-13.75-3.08-27.49-12.58-37.95-9.37-10.33-24.46-14.59-37.81-11.07-5.73,1.51-10.67,4.7-14.86,7.99ZM38.87,205.56l.21,10.84c2.51-1.29,4.59-10.28-.21-10.84ZM85.35,237.98c-.03,6.52-.47,13.04.21,20.03,1.05-5.23-.29-10.52.46-16.08l.54-3.98c.83-6.14,1.84-12.25,4.97-18.19-1.39-1.11-3.04-1.65-3.27-2.75-1.01-4.85,3.55-8.02-.09-8.66-2.15,2.67-2.58,7.09-2.58,10.47,0,1.31,2.41,1.37,3.73,2.06-2.46,5.38-3.77,10.86-3.98,17.11ZM36.8,212.98c.68-2,.77-3.03-.03-3.85-.51,1.55-.51,2.76.03,3.85ZM97.13,210.21c-2.29-.63-3.95-1.17-6.63-.9,1.28,2.83.6,5.1.71,8.55,3.04-2.13,3.92-5.05,5.93-7.66ZM117.34,215.03c-1.62-1.59-3.45-2.71-4.66-4.47-.91-1.32-4.98-.71-5.05.77-.14,3.1-.26,5.09-1.66,7.92,3.64-1.24,5.89-.41,8.92-.46,1.16-.02,3-2.84,2.46-3.75ZM38.25,234.44l2.14-16.07c-6.62.9-12.13-.93-18.05-3.22-2.77-1.07-5.76-1.46-7.58-4.48-4.14,5.58,15.18,8.38,18.08,9.62-6.62,1.28-11.99-1.79-18.15-4.32.18,2.5.03,5.27.64,8.36,6.61-.53,18.82,4.47,22.93,10.1ZM190.07,214.48c.45-2.59-1.34-3.03-2.71-3.68l2.71,3.68ZM95.72,220.24c2.53-.29,5.3.46,7.12-1.07,1.94-1.63,2.95-4.86,1.57-7.41-2.74,1.94-5.58,2.73-7.35,4.68-4.31,4.75-6.43,10.98-7.8,17.19-.62,10.73-1.95,20.88-.32,31.85,2.9-16.47-2.76-28.86,6.77-45.25ZM36.61,214.93c0-.67-.55-1.22-1.22-1.22s-1.22.55-1.22,1.22.55,1.22,1.22,1.22,1.22-.55,1.22-1.22ZM191.24,224.84c-2.06-1.9-2.57-2.8-3.67-4.35-.86,2.47,1.75,4.99,3.67,4.35ZM147.69,223.79c-2.41.59-.13,9.61.35,11.78-.2.99-2.52,1.79-1.72,3.63,2.7-1.76,5.59-2.98,8.69-1.28,2.07,1.13,3.99,4,4.02,7.13.03,2.83-1.35,5.62-3.35,6.76-2.65,1.5-6.15,1-8.09-1.37s-2.18-5.07-2.25-7.61c-.03-1.02,1.37-1.72.58-3.26-.71,1.07-1.03,2.18-1.38,3.25-.47,0-.95.45-1.43.44-.74,0-.78-1.01-1.19-1.92l-1.58,2.2-.44-3.19-1.41,1.56c-2.01-2.16,1.86-5.29-1.46-7.84l-1.96,6.29c-.44,1.28-1.89,2.06-2.13,4.44-1.58-2.14-.17-4.59-.73-7.52-2.1,4.84-1.66,9.88.08,15.35l41.45,9.76c1.21-2.01,3.33-9.49,2.11-10.02-2.88-1.25,1.36,4.79-4.32,7.82-1.26-.7-2.39-2.98-4.13-2.63.33-1.65.93-2.13.88-3.41-.71-.04-.83.56-1.07.79-.67-.85-1.41-1.33-2.17-1.45-1.13-.18-2.53.38-2.7,1.48-.34-.23-.78-.48-.92-.9.72.21.75-.36.81-1.07.08-.87-.34-1.57-1-.36-2.16-.03.17-4.75.34-7.73,1.05.37.48,1.5,1.1,1.88.47.29,1.3-.33,1.79-.28,1.92,1.42.39,3.68,1.02,6.15,1.21-1.5.49-3.47,1.81-4.65l1.25-.27c.78-.17,1.69-.15,2.46-.54.63-.32.9-1.75.36-2.39-.79-.93-2.42.07-3.08.81-.25-.02-.5-.12-.76-.12-.97-.02-1.95-.11-2.91-.27-3.61-1.93-.63-7.62.41-7.97,1.28-.44,2.68-.02,4.29-.02-1.33-8.45-12.52-17.3-21.47-15.81-2.35.39-4.62.74-6.02,2.78,2.05-.76,6.73-2.59,5.86-.42ZM202.45,234.01c1.94-2.49.88-6.69-.58-8.88-4.44,1.34-8.14,1.5-12.57,1.22,1.94,5.03,2.83,8.33,3.95,12.87,3.06-2.13,7.06-2.47,9.2-5.21ZM141.68,227.9c1.38-.27,1.9-.96,2.17-1.95-1.15.48-1.54,1.27-2.17,1.95ZM37.14,240.42l.11,1.12c.05.51.89.74,1.5.07.42-.46-.21-.88-.49-1.19.1-1.77-.39-4.29-2.35-5.55-9.81-6.34-14.77-9.05-27.08-6.82-4.27.77-6.59,4.1-6.02,8.41,2.05-1.35,2.89-6.39,7.2-5.91,2.17.25,1.19,2.96,2.03,4.15,2.39,3.35,7.54,3.08,11.44,3.58l2.28-4.95c3.53-.05,5.82,2.45,7.29,5.57.74-.72.04-1.77.68-2.94,1.72,1.16,2.49,2.87,3.42,4.46ZM137.71,229c0-.36-.29-.66-.66-.66s-.66.29-.66.66.29.66.66.66.66-.29.66-.66ZM132.75,236.56c.54-1.46,1.13-1.61,1.25-1.87.16-.37.05-1.04-.53-1.14-.16,1.47-1.51,1.89-.72,3.01ZM129.66,251.71c-1.5-5.07-1.82-9-.03-13.97-2.89.17-4.93-.73-8.24-1.88-.56,4.81-.52,9.44.42,14.21,2.77.68,4.84,1.71,7.85,1.65ZM36.75,250.36c.74-.92,1.68-2.96.92-3.43-3.51-2.15-5.59-5-8.51-7.77-1.05-1-4.37.8-4.78,2.04-.64,1.91-.14,3.96.1,5.84,4.07,1.51,7.71,2.76,12.27,3.32ZM154.52,242.38c1.7-.46.19-2.5-.8-2.96-1.15-.53-3.51-.83-3.54.97.8.42,3.25,2.14,4.34,1.99ZM20.53,244.74c1.08-.37.95-3.13.02-3.84-.79-.61-2.85-1.44-3.64-.66-.36,2.26,1.01,5.39,3.62,4.51ZM194.67,248.73l3.89-8.76c-2.03.35-3.42.93-5.11,2.05.5,2.26-.53,4.31,1.22,6.71ZM204.26,267.21c5.14-2.41,9.81-4.12,14.36-6.59-1.98-1.16-4.33-2.27-6.33-2.57-3.62,1.86-21.06,10.37-24.14,9.65l-67.13-15.68c-3.77-.88-7.69-1.26-10.47-3.68l7.76-2.97c.66-.91.35-3.74-.9-4.45l-1.93,3.71-12.24,4.19c-.28.1-.41,1.44-.21,1.66s.58.43,1.31.6l70.46,16.3c6.81,1.58,13.19,3.41,20.08,4.02,1.89.17,3.96-3.36,6.24-1.77-.14-2-1.6-1.72-2.32-2.55,1.83-1.48,3.36,1.09,5.45.11ZM198.16,246.46c-1.62,3.63-1.75,7.95-3.85,11.71-1.21,2.16-3.73,3.79-2.28,6.77l13.47-5.87c-6.91-4.51-.79-4.35-6.04-12.64-.53-.84.56-2.64,1.34-3.07,3.35-1.81,2.75,7.01,4.91,6.27-.54-2.55-2.2-8.23-4.33-8.58s-2.5,3.57-3.23,5.42ZM149.39,244.64c-.45,1.14.34,1.29.96,1.15.24-.06.48-.49.11-.74-.21-.15-.77-1.14-1.06-.4ZM24.2,276.97l-2.88-28.89c-.12-1.24-3.44-1.34-3.4-.24l.92,25.35c.25,6.98,1.11,13.61.85,20.61-.07,1.84.66,3.75,1.99,4.37,7.87,3.68,3.3-13.33,2.52-21.2ZM193.57,255.45c-.25-3-2.8,2-10.3,1.14,1.17,2.1,3.79,2.38,5.81,2.42,1.58.03,3.48-1.61,4.48-3.56ZM171.44,257.19c0-.27-.22-.48-.48-.48s-.48.22-.48.48.22.48.48.48.48-.22.48-.48ZM142.05,271.33c-4.87-3.09-6.87-7.02-9.83-10.87-1.74-1.37-4.84-1.26-7.57-1.69,2.12,5.89,5.31,11.26,10.41,15.02,2.27.62,5.55-1.25,7-2.46ZM182.06,261.09c-.12.76-.77,1.33-1.31,1.95,1.67,1.39,4.22,1.61,5.84,1.7.48.12,1.22,1.14,1.85.62.73-.59.76-1.74.83-3.25-1.19.18-1.51,1.55-2.67,1.89-.06-1.15.35-2.62-1.02-3.32-.83-.42-2.32-.31-3.39-.48-.57-.09-1.54-1.52-2.31-.44-.11.71,1.4,1.59,2.18,1.32ZM136.29,261.38c0-.21-.17-.38-.38-.38s-.38.17-.38.38.17.38.38.38.38-.17.38-.38ZM156.78,266.05l-20.26-4.43c1.73,3.69,5.7,7.4,9.62,8.14,3.65.13,6.81-2.82,10.64-3.71ZM152.59,290.13l36.33-16.48-27.82-6.59-39.18,15.25c9.95,3.57,19.35,4.12,30.67,7.83ZM145.06,291.1c-.65.97.92,2.32-.35,2.76-1.32-1.25-1.19-3.37-3.47-4.16-.34,2.41,1.41,4.01,1.7,6.35l-4.7-6.45c-.51-.7-7.94-3.81-6.97-.31-3.53-3.02-8.01-4.62-13.18-4.72.77,4.98.22,9.42-.08,14.28,4.08,1.59,8.03,2.32,11.82,3.03.47-.83.77-1.38,1.14-.9,2.38,3.01,14.43,4.98,20.13,6.45.67-3.1.8-6.57-1.51-8.78,1.98-.46,1.62-6.54.73-7.16-.43-.3-1.16-.14-1.61.48l-.72,1c-.33-1.51-1.99-3.26-2.92-1.87ZM49.64,298.51c1.3-1.04.29-2.38-1.06-1.36-.8.48-1.46.72-1.86,1.18-.66.78.33.82.84.8.55-.03.86-.29,2.08-.62Z"/>
        <path class="cls-1" d="M178.41,125.35c-.35-.11-.21-.79-.23-1.12-.05-.89.03-.97.75-.38.9.78,0,1.67-.52,1.5Z"/>
        <path class="cls-1" d="M118.75,228.85h-.76c-.03-.38-.25-.81-.2-1.18.04-.35.47-1.05-.13-1.19-.32-.08-1.23.34-1.8.05-.06-2.37,1.97-4.32,2.25-6.52,1.9-2.2,3.98-4.38,5.24-7.01.81-.06,1.6-.29,2.32-.67.36.52,1.99,2.61,1.18,3.47-3.67,3.95-6.33,8.21-8.1,13.05Z"/>
        <path class="cls-1" d="M86.25,176.03c.41,2.17-24.65-6.85-23.23-8.1l23.23,8.1Z"/>
        <path class="cls-1" d="M67.49,205.96c-2.41-.38-5.29-.66-7.91-3.21,2.91-.55,4.93,1.17,7.91,3.21Z"/>
        <path class="cls-1" d="M150.62,46.06l-1.1-.03c1.11-2.42,2.72-5.2,6.45-3.7-2.83,1.2-4.92,1.28-5.35,3.73Z"/>
        <path class="cls-1" d="M181.72,68.82c-2.01-1.28-4.22-1.47-6.32-3.58,2.96-.27,4.75,1.3,6.32,3.58Z"/>
        <path class="cls-1" d="M181.25,199.19c-.11-.29-.33-.5-.62-.59.35-.95,1.26-2.38,2.09-2.12,1.03,1.13-1,1.98-1.47,2.71Z"/>
        <path class="cls-1" d="M161.49,80.43c-.06.27-.12.55-.13.83-1.18-.07-2.4-.15-3.57.73-.31-.96-.26-1.42-.05-2.36,1.45.27,2.62.42,3.75.8Z"/>
        <path class="cls-1" d="M146.4,56.94c.57.96-.82,1.35-1.44,1.42s-1.22.13-1.81,0c.43-.61.84-1.33,1.59-1.79.5-.3,1.16,0,1.66.37Z"/>
        <path class="cls-1" d="M162.21,83.6c-1.12.17-1.93,1.45-3.3,1.07.45-1.8,1.84-1.49,2.49-2.12.24.33.64.69.81,1.05Z"/>
        <path class="cls-1" d="M190.07,214.48l-2.71-3.68c1.37.65,3.17,1.09,2.71,3.68Z"/>
        <path class="cls-1" d="M157.48,45.27c-.51.16-.79-.51-1.01-.66-.6-.43-.68-1.21.2-1.57.22.87.22,1.17.81,2.24Z"/>
        <path class="cls-1" d="M175.91,60.62v-.76c1.05.24.84,1.41,1.53,2.23-1.12-.16-1.25-.9-1.53-1.47Z"/>
        <path class="cls-2" d="M178.93,123.85c-.72-.58-.79-.51-.75.38.02.33-.12,1.01.23,1.12-2.11-3.31.39-6.24-.44-10.53l-7.96,21.34c-.52,1.39-.99,2.87-1.76,3.43-2.5,1.81-8.85-2.25-13.05-1.78,3.62,2.63,7.72,2.83,11.95,4.8-1.53,3.77-2.61,7.41-4.89,10.4l-5.86-2.55c-6.9-3-4.59-5.06-4.36-12.89l-7.75,20.08c-1.5,3.89-3.81,7.43-3.08,12.08l8.35-22.46c.98,8.2,13.96,4.49,10.18,9.87l-12.05,17.16c-4.79-1.83-9.54-3.09-14.42-2.49-4.74.58-7.96-1.49-11.95-3.04-7.51-2.92-14.63-5.7-21.88-9.42-3.25-1.67-7.57-3.64-8.56-7.22-1.55-5.58,1.2-9.94,3.37-14.51l3.11-6.55c1.37.79.82,1.96,1.33,3.1l24.71,8.47-8.41,21.01c5.64-6.24,6.87-14.55,10.36-21.81.85-1.77,3.94,1.18,4.27-10.75-2.13,2.04-.83,5.26-2.92,6.55-3.87,2.38-8.16,1.48-12.12-.19l-13.66-5.73c-3.88-1.63,1.18-12.06-.59-13.44,2.36-7.56,8.84-17.46,8.11-25.62l-6.93,16.03,2.94-14.13c1.37-6.57.9-13.19-.48-19.45-2.03,12.48.16,23.39-8.65,33.79l-2.39-11.74-1.91-17.46c-3.76,10.96-4.18,22.57-1.87,34.22.89,4.45-.27,8.24-3.08,11.53-1.52,1.78-1.97,4.72-3.76,6.17-.65-.38-.96-1.25-1.15-1.59-.3-.52-.92-1.11-1.4-.41-.35.51-.46,1.05-1.12,2.31-2.53-5.42-27.92-17.54-33.52-13.79l5.97,1.77c-3,.88-5.64.24-8.61.64-2.65-6.99,2.27-7.34,6.41-13.81l11.33-17.7c1.37-2.14,13.89-13.31,10.95-15.65-3.25,2.3-5.01,5.34-7.87,8.01,2.17-11.64,12.77-15.81,22.11-21,2.32,2.24,6.24,2.33,8.12,4.9,4.75,6.53,6.17,14.49,7.39,22.05,1.26-7.6-.51-14.5-3.77-21.18,5.46-2.95,14.59-.49,14.74-2.97-5.41-1.19-10.6,1.48-15.77.94-2.75-.29-4.96-4.23-9-3.53,11.66-6.88,26.27-3.22,40.08-3.5-1.21,4.16-1.43,8.37-2.21,12.74l-3.55,19.75c6.12,1.76,15.71-4.05,15.68,2.24-.04,9.04,6.46,11.32,5.88,17.56l-1.64,17.4c-.34,3.6-2.94,6.75-4.56,9.76-2.78,5.15-3.67,10.57-5.04,16.16-1.68,6.83-8.64,19.03-4.28,16.7.99-.53,6.81-13.86,7.64-17.48,1.01-4.42.51-9.09,3.69-12.82,1.31.39.25,1.86.98,3.09.81-3.75,2.86-6.9,5.8-9.84,6.93-6.93,13.38-13.87,19.49-21.66.86-1.1,4.68-.3,4.36-2.79.61,1.23,2.07,3.72,3.01,2.67,2.44-2.73.09-6.5.88-9.34.62-2.22,3.78-3.21,4.65-5.51,10.6,11.97,3.75,15.48.97,28.14ZM81.81,128.42c.53-5.46-1.32-10.2-2.67-15.38-1.14-6.81-2.26-13.39-5.75-19.68-.61,3.24.04,6.61,1.37,9.95,3.12,7.8,1.78,15.15,7.06,25.11ZM133.03,98.61l1.83,30.07c2.23.27.04-30.75-1.83-30.07ZM125.82,125.75l-23.97-7.99c3.9,2.77,8.41,3.49,12.65,5.64,3.72,1,7.04,3.1,11.32,2.35ZM113.5,134.25c-.32-1.44-1.33-1.82-2.21-2.49-.24,1.49.47,2.96,2.21,2.49Z"/>
        <path class="cls-2" d="M178.41,125.35c.52.17,1.42-.72.52-1.5,1.96,1.16,4.31-8.38,5.65-9.05,1.41,7.37.48,14.22-.7,21.35l-1.38,8.36c3.01,2.21,5.03,11.76,1.59,15.67l-11.37-.79c-3.62-.25-6.42,1.8-10.04,2.23,5.49-5.72,9.41-4.49,14.11-8.42-2.64-1.22-5.16-.06-7.7,1.12,1.5-2.91,4.61-5.33,4.14-8.61-.12-.84-2.43-1.23-1.87-2.29l1.23-2.34c2.5-4.75,6.59-8.33,8.67-13.6-.41-1.16-1.8.32-2.34.94-1.32-.27-.47-2.15-.52-3.08Z"/>
        <path class="cls-1" d="M170.74,203.74c-.58-.52-.12-2.13-1.71-2.09.3.8.96,1.14.69,2.28-2.94-.75-6.21-1.58-9.19-3.1-1.78-6.9-20.11-20.33-11.8-23.77,1.34-.55,3.25-.54,4.59.63,7.34,6.41,14.04,13.24,20.24,20.76,2.53,3.07,4.22,6.54,3.82,10.44-3-.86-4.41-3.13-6.64-5.15ZM150.12,178.53l-1.03.99,6.61,6.87,1.03-.99-6.61-6.87ZM157.02,186.77c-.42.96.66,1.76,1.01,1.75.59-.02.38-1.26.03-1.41-.21-.09-.71-1.11-1.04-.34ZM168.2,199.66c-2.42-5.12-5.76-8.08-9.13-10.84,1.96,5,5.76,8.38,9.13,10.84Z"/>
        <path class="cls-1" d="M169.72,203.92c.32.08.7-.19,1.02-.18-.02.96-1.13,1.21-1.02.18Z"/>
        <path class="cls-2" d="M155.74,117.4l-11.77,12.34c.18-5,3.24-8.04,5.35-11.82,3.5-6.27,5.75-12.93,8.92-19.49,1.51-3.11,7.25,6.4,4.94,9.75-2.24,3.26-4.7,6.33-7.45,9.21Z"/>
        <path class="cls-2" d="M162.56,176.81c-1.61-2.36.97-2.5,2.05-3.29,4.67-3.39,9.5-4.91,15.47-5.96-3.18-3.17-6.37-1.07-9.55-.82-2.26.18-4.6-.63-7.27.28,6.37-4.36,14.51-5.98,22.2-3.87.42,1.42-.4,2.58-.37,4.04,2.04,2.59,4.56,5.35,3.19,9.2-7.64-8.08-17.07-4-25.7.42Z"/>
        <path class="cls-2" d="M46.76,138.14c-3.34,3.31-10.15,3.44-11.58,9.58-3-2.22-1.41-4.66-.88-7.02.88-3.91,2.53-6.28,6.41-7.33,4.98-1.35,15.91-3.27,20.32-.67-19.91,2.46-12.99,4.18-14.27,5.44Z"/>
        <path class="cls-2" d="M98.86,120.26c-3.95,7.57-4.56,14.32-8.91,21.97l3.98-18.17c1.22-1.72,2.58-3.35,4.93-3.8Z"/>
        <path class="cls-2" d="M91.86,114.63c-1.51-2.31-1.68-5.24-1.91-8.31l-.53-7.01c-.18-2.35.58-4.87.72-7.51,1.09,3.65-.06,7.37.6,11.28.62,3.66,1.08,7.05,1.11,11.54Z"/>
        <path class="cls-2" d="M161.47,169.15c-2.34-.34-2.85-.77-.97-1.36,1.48-1.34,2.5.37.97,1.36Z"/>
        <path class="cls-2" d="M47.68,140.19c2.66-1.16,3.91-2.57,5.66-3.88,3.3-2.48,8.15-.86,11.95-1.36,2.66-.35,4.28-.18,7.1.87-6.75-6.88-15.63-7.91-24.64-6.2-3.69.7-7.68-.55-11.05,2.05-1.49-3.18-.05-7.51,3.09-8.15,8.56-1.76,16.76.73,24.83,3.3,5.72,1.82,13.04,7.01,11.08,13.76-6.43-1.3-12.77-1.52-19.33-.63l-8.67.24Z"/>
        <circle class="cls-2" cx="158" cy="169.95" r=".38"/>
        <circle class="cls-2" cx="161.05" cy="176.81" r=".38"/>
        <path class="cls-2" d="M115.49,198.28c-1.55,6.07-10.96,5.79-17.03,10.9,0-7.59-7.67-1.76-15.93-8.72-4.07-3.43-7.45-7.22-9.33-11.67,4.91,3.29,11.22,13.87,17.76,12.73-5.98-7.92-18.15-12.83-22.19-20.55,4.93.37,7.61,3.97,11.33,5.95,4.63,2.47,8.85,4.98,12.68,8.7.74.71,2.13,1.06,3.12,1.33-2.1-4.3-6.1-6.3-9.39-9.82-.63-.68.79-1.5,1.27-1.92.75-.65,1.91-.28,2.93,0l10.89,2.86c8.86,2.33,10.23,1.9,13.9,10.2Z"/>
        <path class="cls-1" d="M81.81,128.42c-5.27-9.96-3.94-17.31-7.06-25.11-1.33-3.34-1.98-6.71-1.37-9.95,3.49,6.28,4.62,12.87,5.75,19.68,1.35,5.18,3.2,9.91,2.67,15.38Z"/>
        <path class="cls-1" d="M133.03,98.61c1.87-.68,4.06,30.33,1.83,30.07l-1.83-30.07Z"/>
        <path class="cls-1" d="M125.82,125.75c-4.28.75-7.6-1.35-11.32-2.35-4.25-2.15-8.76-2.87-12.65-5.64l23.97,7.99Z"/>
        <path class="cls-1" d="M113.5,134.25c-1.74.47-2.44-1-2.21-2.49.88.68,1.89,1.05,2.21,2.49Z"/>
        <path class="cls-1" d="M168.2,199.66c-3.36-2.46-7.17-5.85-9.13-10.84,3.37,2.77,6.71,5.72,9.13,10.84Z"/>
        <rect class="cls-1" x="152.19" y="177.7" width="1.43" height="9.54" transform="translate(-83.79 156.99) rotate(-43.89)"/>
        <path class="cls-1" d="M157.02,186.77c.33-.77.84.25,1.04.34.35.15.56,1.39-.03,1.41-.35,0-1.43-.79-1.01-1.75Z"/>
        <path class="cls-1" d="M178.43,71.05c1.73,3.87-2.42.04-3.33-.26,1.4-.41,2.33.15,3.33.26Z"/>
      </g>
    </g>
  </g>
</svg>