<?xml version="1.0" encoding="UTF-8"?>
<svg id="Layer_2" data-name="Layer 2" xmlns="http://www.w3.org/2000/svg" viewBox="0 0 322.83 256.81">
  <defs>
    <style>
      .cls-1 {
        fill: none;
      }

      .cls-2 {
        fill: #1c1c1c;
      }

      .cls-3 {
        fill: #c6ea2f;
      }
    </style>
  </defs>
  <g id="Layer_1-2" data-name="Layer 1">
    <g>
      <polygon class="cls-3" points="208.09 121.29 242.3 167.34 299.33 226.39 321.57 227.2 322.79 61.37 301.35 54.49 266.16 68.24 268.99 92.92 264.54 121.63 244.95 114.38 228.95 102.62 208.09 121.29"/>
      <g>
        <path class="cls-1" d="M226.14,26.6c-2.47-.42-5.62.79-7.63,2.06-.69.44.03,3.44.84,3.49,3.25.21,5.99-1.76,9.19-2.3-.47-1.33-1.04-3.01-2.41-3.25Z"/>
        <path class="cls-1" d="M184.08,50.16c7.03-5.37,15.04-9.78,23.44-13.22,3.27-1.34,6.7-2.14,9.75-4.24l.32-5.02c.13-1.99,5.67-2.88,8.62-3.16,2.39-.22,2.58,3.74,4.08,4.33,2.9.96,6.16-.92,9.15-.88.06-1.57-.86-3.23.14-4.34,1.3-1.44,3.42-.67,4.92-1.32-5.92-11.12-17.2-18.81-29.84-17.5-6.09.63-8.88,6.67-10.22,12.3-1.92-5.89,2.28-11.07,8.32-14-9.71,1.18-14.77,3.63-16.85,13.17-1.64-3.49.85-6.02,1.74-9.54-7.2,4.25-11.51,11.79-10.95,20.32-1.9-.14-.91-1.75-1.56-3.71-2.71,6.88-2.62,13.98-1.14,21.5.29,1.5-2,3.73.09,5.31Z"/>
        <path class="cls-1" d="M253.8,33.41c-3-7.64-35.85,1.51-41.03,3.34-7.21,2.56-29.68,13.31-32.17,21.68,11.45-7.88,23.77-12.61,36.06-18.88,11.73-5.98,24.44-9.44,37.14-6.14Z"/>
        <path class="cls-1" d="M240.9,24.7c-.56.36-.69,2.67.15,3.01,2.19.9,4.54.07,6.56-.04,0-1.13-.47-1.99-1.02-2.41-1.06-.8-5.51-.69-5.69-.57Z"/>
        <path class="cls-1" d="M5.21,75.94c1.4-.78.07-2.01,1.47-3.85,4.1,1.67,6.58,5.61,7.22,10.27-2.06.49-3.17-.56-4.99.4,2.01,1.32,3.77,3.09,6.79,3.14,2.72-5.26-5.87-18.4-11.58-16.57-1.59,1.1-.48,5.25,1.09,6.61Z"/>
        <path class="cls-1" d="M238.92,35.12c-1.05.94-.85,1.92.55,1.31-.35-1.78,16.04,5.39,9.02.07-2.03-1.54-6.04-.7-9.57-1.38Z"/>
        <path class="cls-1" d="M113.46,123.36c-2.17-1.59-4.84-1.59-6.71-3.24-9.43-8.31-12.1-20.33-35.01-11.56,2.39,8.25,14.31-1.62,17.46,6.03,1.64,3.98,4.4,8.52,7.85,10.88,2.31,1.58,2.07,2.37,3.03,4.48,1.87,4.12,5.74,7.18,8.1,11.6,5.26-4.46,6.83-11.81,5.27-18.19Z"/>
        <path class="cls-1" d="M158.41,143.33c-3.75-2.54-8.53-3.49-12.89-4.76-9.77-2.84-18.7-6.43-27.87-11.33-.44,7.01-2.11,13.09-7.14,16.73l13.71,10.22c10.8,8.05,22.46,14.35,35.94,18.43,5.79-7.11,4.9-24.78-1.75-29.29Z"/>
        <path class="cls-1" d="M75.43,115.4c-2.63.24-4.27-.94-6.29-2.26-1.42-.93-3,1.08-3.43,2.12-.54,1.29-.24,3.69,1.73,4.03,2.9.51,6.81.2,9.75-1.71,1.16-.75-.9-2.26-1.76-2.18Z"/>
        <path class="cls-1" d="M85.54,120.22c-2.3-2.08-10.42,1.89-15.3,2.43-1.31.74.38,4.88,2.13,4.86,5.15-.08,17.21-3.64,13.17-7.29Z"/>
        <path class="cls-1" d="M55.39,87.16l-36.66,10.87c-1.78.53-3.7.07-4.75-1.36l-7.61-10.44c-3.18-4.35,2.69-6.15,2.52-7.35-.11-.8-.65-.97-1.72-.51-2.76,1.2-5.31,4.29-3.52,7.27,2.6,4.35,5.83,8.13,8.69,12.27,1.48,2.15,3.97,2.92,6.63,2.14l39.04-11.37,7.62,6.99c-.33-3.37-3.16-5.85-5.32-8.06-1.16-1.18-3.44-.9-4.93-.46Z"/>
        <path class="cls-1" d="M78.98,136.76c.19,2.58,2.09,3.43,4.11,3.19,3.79-.44,10.66-4.1,9.32-6.8-1.37-2.76-8.86,3.37-13.43,3.61Z"/>
        <path class="cls-1" d="M90.87,125.78c-.71-.61-1.95-1.05-2.99-.43-4.22,2.49-8.55,3.74-13.2,5.14-.67.2-.26,2.18.29,2.48.55.31,1.5,1.4,2.89,1.17,3.83-.62,16.89-5,13.01-8.37Z"/>
        <path class="cls-1" d="M287.52,189.4c8.49-4.37,15.4-8.76,22.96-14.25-10.4-8.08-15.74-20.89-25.92-28.6-13.28-10.05-28.76-16.8-40.94-29.45l-4.45,10.7-10.71-23.46c-11.99,1.92,33.56,57.92,37.71,62.34l21.34,22.72Z"/>
        <path class="cls-1" d="M216.43,114.93c-1.81,1.47-4.05,3.03-4.69,4.97,6.69,13.79,15.59,25.77,25.06,37.68,5.6,7.05,11.39,13.05,18,19.54l18.34,18.02c.53.52,1.48-.38,1.78-.8.23-.32.14-.67-.5-1.39-23.58-25.98-42.9-45.49-57.99-78.03Z"/>
        <path class="cls-1" d="M279.44,65.11l-9.92,3.88,15.7,24.53c-4.33,1.73-7.23,1-11.15,1.6l7.03,24.92c2.11,7.46,3.22,15.73,7.28,22.44,6.86,11.31,16.49,20.27,24.81,30.62,3.08-2.4,6.04-4.77,8.92-7.16v-36.29c-6.39-7.56-12.57-15.22-18.53-23.26-9.9-12.86-17.68-26.27-24.13-41.28Z"/>
        <path class="cls-1" d="M319.1,186.2c-11.09,8.35-22.87,14.88-36.01,19.92l8.68,11.04,30.33-2.46v-25.5c-.97-1.02-1.97-2.02-3-3Z"/>
        <path class="cls-1" d="M246.81,66.43c4.89,6.03-2.58,25.58-7.68,30.82,2.12,1.9,4.19,2.44,6.13,4.85-2.4,1.46-4.04-.89-7.17-1.45,7.56,9.51,15.42,8.61,25.01,14.18-2.77-5.84-1.49-11.02-1.09-17.13.54-8.21-.74-17.42-4.17-24.83-1.65-3.56-6.42-5.97-7.53-9.69-1.92.27-4.23.79-4.63-1.98,1.18-1.15,2.76-.99,4.2-1.82,1.92-4.22,2.6-9.14,1.19-13.67-.77-2.48-3.63-4.4-5.94-3.02-4.36,2.62-.6,9.05-4.55,9.6-4.32.61-2.69-4.79-6.84-7.04-2.71-1.48-4.72-3.13-6.75-6.12l-32.27,15.68c-.87.42-1.48,1.21-1.91,1.56-.85.71-.74,1.97.04,3.07,2.76-2.18,7.59-5.12,10.57-1.51-3.26,1.95-7.6,1.35-8.93,4.55,6.64,10.62,3.73,15.2,15.7,24.8,3.38,2.71,6.74,7.44,11.26,8.09,12.46,1.8,24.82-17.36,25.36-28.93ZM244.55,46.4c.41-.95,1.24-2.7,2.64-2.43.86.16,1.78.73,1.8,1.24.04,1.06-1.3.36-1.92.63-1.07.64-1.28,1.96-.68,2.55l1.84,1.83c1.22,1.21-.45,3.76-1.54,5.3-.27-5.02-3.77-5.36-2.13-9.11ZM227.32,47.11c-10.12.2-15.22,8.53-16.76,5.34-1.35-2.8,11.9-10.28,16.76-5.34ZM226.68,52.1c-1.24,1.85-2.81.4-4.04,1.22-.11,1.64-.77,3.19-2.4,3.28-.88.05-1.69-1.32-2.67-1.7-1.19,1.65-2.29,1.57-2.18-.27,2.4-3.71,7.39-4.57,11.28-2.53ZM202.88,64.56c-.55,1.49-2.67.36-3.53-.48-1.05.57-1.25,1.36-2.16,1.47-.19-2.4,1.04-4.06,2.99-4.7,1.51-.49,4.15-.64,5.23.69-1.46.49-2.02,1.65-2.53,3.02ZM210.16,75.28c-3.02-.68-2.84-3.21-2.92-6.01-.09-3.38-1.83-6.39-.96-10.07,2.9,2.95.87,9.03,3.38,12.81,2.2,3.32,6.73-2.94,9.83-2.75.17,3.34-2.43,2.29-2.91,3.27-1.43,2.92-3.85,3.34-6.43,2.75ZM219.29,87.99l7.42-3.44c-1.43,3.24-4.64,4.14-7.42,3.44ZM233.14,71.61c-4.08-3.42-.87,6.83-10.64,11.87-3.86,1.99-8.65,2.08-11.4-1.92-.29-.43,1.34-1.6,1.9-1.83,5.94-2.53,12.45-6.19,17.86-9.66-1.03-.85-2.13-.53-2.32-1.64,2.44-.73,5.31.84,4.6,3.19Z"/>
        <path class="cls-1" d="M292.34,59.68c2.72,10.53,16.4,31.19,23.38,40.32,2.11,2.75,4.24,5.46,6.39,8.15v-11.5c-11.38-13.34-20.98-32.09-21.58-40.4-2.83.82-5.13,1.94-8.18,3.42Z"/>
        <path class="cls-1" d="M228.24,73.92l-13.84,7.57c1.7,3.53,12.66-3.32,13.84-7.57Z"/>
        <path class="cls-3" d="M73.85,44.14c6.49-4.78-1.12-14.81-5.92-18.53-2.22-1.72-4.59-1.64-6.91.06L5.3,66.38c2.11.61,3.88.96,5.31,2.37,4.52,3.74,7.42,8.24,8.91,15.45l54.32-40.07Z"/>
        <path class="cls-2" d="M227.32,47.11c-4.86-4.94-18.11,2.54-16.76,5.34,1.54,3.19,6.64-5.14,16.76-5.34Z"/>
        <path class="cls-2" d="M248.22,50.21l-1.84-1.83c-.6-.59-.39-1.91.68-2.55.62-.27,1.95.43,1.92-.63-.02-.51-.94-1.08-1.8-1.24-1.4-.26-2.23,1.49-2.64,2.43-1.64,3.76,1.86,4.09,2.13,9.11,1.09-1.54,2.76-4.09,1.54-5.3Z"/>
        <path class="cls-2" d="M291.77,217.16l-8.68-11.04c13.14-5.04,24.92-11.57,36.01-19.92,1.04.98,2.03,1.98,3,3v-23.26c-2.88,2.39-5.84,4.76-8.92,7.16-8.32-10.35-17.95-19.31-24.81-30.62-4.07-6.71-5.17-14.97-7.28-22.44l-7.03-24.92c3.93-.6,6.83.12,11.15-1.6l-15.7-24.53,9.92-3.88c6.45,15.01,14.24,28.42,24.13,41.28,5.97,8.04,12.34,16.01,18.73,23.57l.15-21.49c-2.15-2.69-4.63-5.72-6.73-8.47-6.98-9.13-20.66-29.79-23.38-40.32,3.05-1.48,5.35-2.6,8.18-3.42.61,8.3,10.64,27.43,22.02,40.77l.3-43.48c-5.22-.94-11.16-1.56-16.78-.72-1.62.24-3.44-1.23-5.51-.48-11.8,4.28-23.08,8.89-34.67,14.11-3.85-.86-7.41-1.87-11.03-3.56-2.5-1.16,2.79-12.94-2.14-22.84,2.37-1.74,4.81-3.71,4.81-6.15,0-3.45-2.87-4.09-4.86-6.21-7.08-7.55-8.2-21.99-33.03-26.95-5.53-1.11-9.74-1.01-15.33.39-8.89,2.23-15.33,7.11-19.6,15.42-8.72,16.98-3.37,21.44-4.43,35.98-.11,1.47-5.1,5.74-3.4,8.66,1.65,2.84,8.74.65,12.66.18,6.35,7.46,5.88,14.48,10.78,20.55,4.52,5.6,9.89,10.16,15.51,14.63,3.48,2.76,7.66,3.27,12.01,2-2.06,2.81-4.57,4.86-7.23,7.22l-10.71,9.51c-1.36,1.21-2.34,3.82-3.49,4.78l-11.26,9.46-19.34,8.81c-2.7-2.03-5.78-1.12-8.9-.86-3.17.27-6.8-2.28-10.1.43-13.5-4.04-26.72-7.68-38.85-14.9-1.62-.96-2.01-3.2-4.35-3.77-8.08-1.97-10.37-10.49-17.88-14.69-4.91-2.74-10.91-2.29-16.31-2.93-3.04-.36-2.85-8.76-6.61-10.52-1.52.39-2.58,1.4-4.05,2.19-4.45-5.23-6.04-11.33-14.88-8.72l-36.64,10.84c-2.21-2.06-3.91-4.14-5.17-6.71,2.52.72,5.25,1.05,7.62-.7l55.64-40.99c3.5-2.57,5.11-5.88,3.93-10.33-2-7.53-11.38-19.93-19.97-13.57L1.86,65.6c-4.09,3.02.05,8.66-.19,11.9-.24,3.34-3.27,6.2-.53,10.02l8.73,12.15c2.72,3.78,6.59,4.35,10.88,3.09l36.57-10.74c1.9,1.81,4.51,3.93,4.75,6.44-.16.97-2.38,1.84-2.47,2.75-.46,4.38,4.96,5.61,7.51,8.16-2.51,1.54-4.24,3.65-4.87,5.54-1.3,3.91,2.28,5.66,3.33,8.04,1.58,3.56,6.92,12.14,9.11,14.64,2.27,2.59,3.26,5.52,7.58,6.07,2.88.37,6.75-.23,9.43,1.01,2.14,1,2.52,5.27,5.27,5.85,3.5.74,6.25-2.58,9.14-4.88,22.41,16.11,23.07,18.82,48.86,30.41,3.21,1.44,4.68,6.81,9.7,5.43,2.3-.63,5.91-.74,8.22.12,4.14,1.54,6.02-2.25,8.79-2.86l19.44-4.29,30.66-8.97c3.74-1.1,7.3.47,9.41,3.53l18.44,18.74c7.04,6.8,24.83,28.57,39.19,47.26,6.56,8.54,14.44,15.88,23.28,21.8v-42.11l-30.33,2.46ZM63.34,22.79c1.91.66,6.37,2.5,10.09,7.04,3.72,4.54,4.65,9.27,4.93,11.27-19.72,15.1-39.44,30.2-59.16,45.31-.13-1.94-.75-7.19-4.69-12.21-4.05-5.15-9.18-6.95-11.03-7.51L63.34,22.79ZM4.12,69.33c5.71-1.83,14.3,11.31,11.58,16.57-3.02-.05-4.79-1.82-6.79-3.14,1.82-.96,2.92.09,4.99-.4-.64-4.65-3.11-8.59-7.22-10.27-1.4,1.84-.07,3.07-1.47,3.85-1.57-1.36-2.69-5.52-1.09-6.61ZM58.01,88.69l-39.04,11.37c-2.66.78-5.15,0-6.63-2.14-2.86-4.14-6.08-7.92-8.69-12.27-1.79-2.99.77-6.08,3.52-7.27,1.07-.47,1.6-.29,1.72.51.17,1.2-5.69,3-2.52,7.35l7.61,10.44c1.04,1.43,2.97,1.88,4.75,1.36l36.66-10.87c1.48-.44,3.77-.72,4.93.46,2.17,2.21,4.99,4.69,5.32,8.06l-7.62-6.99ZM67.43,119.29c-1.97-.34-2.26-2.74-1.73-4.03.43-1.04,2.01-3.06,3.43-2.12,2.02,1.33,3.67,2.51,6.29,2.26.86-.08,2.92,1.43,1.76,2.18-2.95,1.91-6.86,2.22-9.75,1.71ZM70.24,122.65c4.88-.54,13-4.52,15.3-2.43,4.04,3.65-8.03,7.22-13.17,7.29-1.75.03-3.44-4.11-2.13-4.86ZM74.97,132.98c-.55-.31-.95-2.28-.29-2.48,4.64-1.4,8.98-2.65,13.2-5.14,1.04-.62,2.28-.18,2.99.43,3.88,3.37-9.18,7.75-13.01,8.37-1.39.22-2.34-.87-2.89-1.17ZM83.09,139.95c-2.02.23-3.92-.62-4.11-3.19,4.57-.24,12.06-6.37,13.43-3.61,1.34,2.7-5.53,6.37-9.32,6.8ZM108.18,141.55c-2.36-4.42-6.24-7.48-8.1-11.6-.96-2.11-.72-2.9-3.03-4.48-3.46-2.36-6.21-6.9-7.85-10.88-3.15-7.65-15.07,2.22-17.46-6.03,22.91-8.77,25.58,3.25,35.01,11.56,1.86,1.64,4.54,1.65,6.71,3.24,1.56,6.38-.01,13.73-5.27,18.19ZM160.16,172.62c-13.49-4.08-25.15-10.39-35.94-18.43l-13.71-10.22c5.03-3.64,6.7-9.72,7.14-16.73,9.18,4.9,18.1,8.49,27.87,11.33,4.36,1.27,9.15,2.22,12.89,4.76,6.65,4.51,7.54,22.18,1.75,29.29ZM247.61,27.68c-2.01.1-4.36.93-6.56.04-.84-.34-.71-2.65-.15-3.01.18-.12,4.63-.23,5.69.57.55.41,1.02,1.28,1.02,2.41ZM185.13,23.36c.65,1.96-.34,3.57,1.56,3.71-.56-8.53,3.75-16.07,10.95-20.32-.9,3.52-3.38,6.05-1.74,9.54,2.09-9.53,7.15-11.98,16.85-13.17-6.05,2.93-10.25,8.11-8.32,14,1.35-5.64,4.13-11.68,10.22-12.3,12.64-1.31,23.92,6.38,29.84,17.5-1.5.65-3.62-.12-4.92,1.32-1,1.11-.08,2.77-.14,4.34-2.98-.05-6.24,1.83-9.15.88-1.5-.59-1.69-4.56-4.08-4.33-2.95.28-8.5,1.17-8.62,3.16l-.32,5.02c-3.05,2.1-6.48,2.9-9.75,4.24-8.4,3.44-16.41,7.85-23.44,13.22-2.09-1.58.2-3.81-.09-5.31-1.48-7.52-1.57-14.61,1.14-21.5ZM228.55,29.85c-3.2.54-5.95,2.51-9.19,2.3-.81-.05-1.53-3.06-.84-3.49,2.01-1.27,5.16-2.48,7.63-2.06,1.36.23,1.94,1.92,2.41,3.25ZM180.6,58.44c2.49-8.37,24.96-19.13,32.17-21.68,5.17-1.83,38.02-10.98,41.03-3.34-12.7-3.29-25.41.16-37.14,6.14-12.29,6.27-24.61,11-36.06,18.88ZM239.47,36.43c-1.4.61-1.6-.37-.55-1.31,3.53.67,7.54-.16,9.57,1.38,7.02,5.32-9.37-1.85-9.02-.07ZM221.45,95.36c-4.52-.65-7.89-5.38-11.26-8.09-11.97-9.61-9.06-14.19-15.7-24.8,1.33-3.19,5.67-2.6,8.93-4.55-2.98-3.61-7.8-.67-10.57,1.51-.78-1.11-.9-2.37-.04-3.07.42-.35,1.04-1.14,1.91-1.56l32.27-15.68c2.02,3,4.03,4.65,6.75,6.12,4.14,2.26,2.51,7.65,6.84,7.04,3.95-.56.18-6.99,4.55-9.6,2.31-1.38,5.17.53,5.94,3.02,1.41,4.54.73,9.45-1.19,13.67-1.44.84-3.02.68-4.2,1.82.4,2.77,2.72,2.25,4.63,1.98,1.1,3.72,5.88,6.14,7.53,9.69,3.43,7.41,4.71,16.62,4.17,24.83-.4,6.11-1.68,11.29,1.09,17.13-9.59-5.57-17.45-4.68-25.01-14.18,3.13.57,4.77,2.91,7.17,1.45-1.94-2.41-4.01-2.95-6.13-4.85,5.1-5.24,12.57-24.79,7.68-30.82-.54,11.57-12.9,30.73-25.36,28.93ZM228.47,104.34l10.71,23.46,4.45-10.7c12.18,12.66,27.66,19.41,40.94,29.45,10.18,7.71,15.52,20.51,25.92,28.6-7.56,5.49-14.47,9.88-22.96,14.25l-21.34-22.72c-4.15-4.42-49.7-60.42-37.71-62.34ZM274.92,194.35c-.3.41-1.25,1.32-1.78.8l-18.34-18.02c-6.61-6.49-12.4-12.49-18-19.54-9.47-11.91-18.37-23.9-25.06-37.68.64-1.94,2.88-3.5,4.69-4.97,15.09,32.54,34.41,52.06,57.99,78.03.65.71.73,1.07.5,1.39Z"/>
        <path class="cls-2" d="M14.52,74.2c3.95,5.02,4.56,10.26,4.69,12.21,19.72-15.1,39.44-30.2,59.16-45.31-.28-2-1.21-6.73-4.93-11.27-3.73-4.54-8.18-6.38-10.09-7.04L3.48,66.68c1.85.56,6.98,2.36,11.03,7.51ZM10.61,68.75c-1.44-1.41-3.2-1.76-5.31-2.37L61.02,25.67c2.32-1.7,4.7-1.78,6.91-.06,4.8,3.73,12.4,13.75,5.92,18.53l-54.32,40.07c-1.49-7.21-4.39-11.71-8.91-15.45Z"/>
        <path class="cls-2" d="M228.53,68.42c.19,1.11,1.29.8,2.32,1.64-5.41,3.47-11.92,7.13-17.86,9.66-.55.24-2.19,1.4-1.9,1.83,2.75,4,7.54,3.91,11.4,1.92,9.77-5.04,6.55-15.29,10.64-11.87.71-2.35-2.16-3.92-4.6-3.19ZM214.4,81.48l13.84-7.57c-1.18,4.24-12.14,11.09-13.84,7.57Z"/>
        <path class="cls-2" d="M216.59,72.53c.48-.98,3.07.07,2.91-3.27-3.1-.19-7.63,6.07-9.83,2.75-2.51-3.77-.48-9.86-3.38-12.81-.87,3.68.86,6.69.96,10.07.08,2.8-.1,5.33,2.92,6.01,2.58.58,5,.17,6.43-2.75Z"/>
        <path class="cls-2" d="M215.4,54.63c-.11,1.84.99,1.93,2.18.27.97.37,1.78,1.75,2.67,1.7,1.63-.09,2.28-1.63,2.4-3.28,1.23-.82,2.8.63,4.04-1.22-3.89-2.05-8.89-1.19-11.28,2.53Z"/>
        <path class="cls-2" d="M200.18,60.85c-1.95.64-3.18,2.3-2.99,4.7.91-.11,1.11-.9,2.16-1.47.87.83,2.98,1.97,3.53.48.51-1.37,1.07-2.53,2.53-3.02-1.08-1.32-3.72-1.18-5.23-.69Z"/>
        <path class="cls-2" d="M226.72,84.55l-7.42,3.44c2.78.7,5.99-.2,7.42-3.44Z"/>
      </g>
    </g>
  </g>
</svg>