<?xml version="1.0" encoding="UTF-8"?>
<svg id="Layer_2" data-name="Layer 2" xmlns="http://www.w3.org/2000/svg" viewBox="0 0 269.98 325.52">
  <defs>
    <style>
      .cls-1 {
        fill: #202333;
      }

      .cls-2 {
        fill: #c4e84a;
      }

      .cls-3 {
        fill: #dbd4c1;
      }
    </style>
  </defs>
  <g id="Layer_1-2" data-name="Layer 1">
    <g>
      <path class="cls-3" d="M268.97,220.35c.87-3.34,1.35-5.18.74-8.83-1.44-8.56-3.75-17.25-4.1-26-1.27-31.78-19.67-36.7-27.54-49.56-1.26-2.07-4.32-1.89-5.83-3.07-3.74-2.93-1.57-7.2.12-10.29,1.34-2.46,1.29-4.73,3.74-6.59,2.29-1.75,2.9-6.75,5.8-7.14l6.14-.84c4.85-.66.59-6.54,2.58-12.25,6.37-18.23-1.44-38.11-19.16-45.85-14.32-6.25-29.69-2.12-39.62,9.79-2.46,2.95-4.21,7.22-7.33,9.41-1.11,1.51-14.05,0-14.69,2.97-1.15,5.41,10.07,7.32,14.31,8.95-1.9,2.58-1.45,4.85-.09,7.21-2.39,4.22-8.12,6.55-8.15,10.8,0,1.21,1.44,2.15,2.81,3.22-1.42,4.02-.56,8.78-.62,12.96-.04,2.63-1.56,4.67.06,7.19,3.67,5.72,10.3,3.65,12.26,6.22,1.99,2.61,2.15,5.99,3.29,9.3-2.24.82-4.93,1.75-7.35,1.57-6.2-.45-10.2,3.09-15.44,5.16-5.11,2.02-11.38,3.3-15.2,7.52-2.78-1.21-4.99-.38-7.45.86-4.6,2.32-21.28,5.55-27.03,6.02.08-6.54-4.27-21.04-3.26-26.36.12-.64.34-1.29-.12-1.52-.19-.09-.43-.1-1.04-.21,2.51-8.69,2.47-29.68,1.82-39.19-.17-2.5-.12-5.55.54-7.68-.43-.84-1.87-1.62-1.91-3.59-2.17,1.69-.6,11.71-3.52,8.84-.54-.53-.79-.5-.18-1.29,2.36-3.05.17-6.67-.42-9.89-.96-5.27.04-10.6-.17-15.98-.29-7.49.41-14.64,1.12-22.01.14-1.5-.76-2.25-1.88-2.76-.87-.4-1.1,1.35-1.78,1.77-1.29-.4-1.5-2.35-1.89-3.45-.7.1-1.04,1.42-1.31,1.21-.29-.22-.47-1.41-.85-2.18l-2.54,1.76c-1.1-2.03-2.65-2.15-4.45-2.44-.74-.12-.74-1.99-1.71-2.07-1.01-.09-2.1.55-3.12.54-2.09,0-3.83-2.94-4.73-4.59-.87.89-.98,1.43-1.08,1.88-.82-1.05-.63-2.07-1.43-2.77-.76,1-.8,2.01-1.49,2.18-.77.18-1.4-.67-2.06-1.25-1.16-1.02-1.79.46-2.36.92-1.68,1.35,1.74,1.56-1.86,6.72-.32-3.17,1.46-5.55-.61-7.8-.43,2.58-1.71,3.94-3.07,6.16-.58-2.09-.54-4.07-1.41-6.14-1.16,7.69-4.62,5.59-2.83,13.4.07.29-.71,1.16-.55,1.44.12.22-.43.54-.68.02-.1-.22-.19-.48-.61-.73-.4.82.19,1.86-1.22,2.02l.11-14.26c.07-8.15.86-18.72-4.27-25.43-.72,1.4-.64,2.42-1.34,2.83-5.93-2.94-9.12-.75-12.17-3.95-.69-.43-2.23.98-2.66,1.44-.52-.82-.82-1.4-1.16-1.53-.26-.09-.78.86-1.03.69-1.29-.85-2.34-2.46-3.99-2.86-.56-.14-1.18.87-1.56.61-.63-.43-1.13-.78-1.62-1.56-4.46,2.93-.12,17.56-1.81,23.44-3.63-2.7-7.61-2.23-10.26.46.94.72,2.01,1.41,1.78,2.17l-.5,1.65c-.22.73,1.46,2.97.7,3.57-3.03,2.38-1.07,4.85-1.39,7.03-.43,3,.08,5.86-.47,8.63-.51,2.59-1.45,5.01-.75,7.64,2.55-.03,5.1.08,7.65.27-2.55-.2-5.1-.3-7.65-.27-3.54,1.35-5.01,6.55-5.07,10.1-3.51,4.19-5.84,9.29-8.83,14.2-2.91,4.79-6.29,9.14-7.99,14.11,1.95-.45,2.73-1.66,3.75-3.13,3.11,3.21-.81,1.87-1.67,8.3-1.02.13-1.91-.51-3.2.09.37.87,2.04,1.62,1.78,2.61-.57,2.19-1.91,3.93-2.3,6.14.64.2,1-.15,1.8-.53C3.91,110.45,1.44,113.42,0,117.84l4.53-6.09c-1.01,9.59,1.32,1.5-2.63,12.23,3.42-.72,3.99-3.47,5.52-5.4.53.94.29,1.68.55,2.43-.04-.11,8.95,2.87,10.32-4.66,2.93,1.3.72,4,.81,5.62.22,4.14-1.17,7.62-5.32,9.27,1.51-.11,2.34,1.17,3.33.82,1.62-.58,1.58-2.81,3.7-2.83-1.52,5.83-4.63,10.45-7.12,15.71l-11.73,24.74c-1.04,2.2-1.6,5.11-1.75,7.49-.12,1.83,2.71.14,3.31.74,1,1,.89,3.4,2.39,4.28.55.32,1.23-.04,1.47.21.5.52.41,1.5.64,2.29,1.23-.24,1.51-1.97,2.97-1.95.71.12.45,2.17.96,2.74,1.74,1.94,5.16-.55,6.64,2.73.23.51,1.07.41,1.33.14.33-.34.7-.58,1.04-.9.13,1.16.24,2.17.95,2.76.63.52,2-.46,2.76-.25.84.23,1.57,2.76,2.77,2.34,2.97-2.81,3.88-7.24,6.33-10.49l3.26-4.33c1.71-2.27,1.93-5.08,3.94-7.76-.07.62,1.44,1.02,1.75,1.65-1.45,8.03.28,16.1,1.09,23.58.68,6.25.4,12.65,2.74,18.49.13.33-1.14,1.28-1.06,1.61.11.48.66,1.13,1.08,1.79.98,1.55.04,3.4,1.44,5.08,1.74-.58,1.76-2.03,3.26-2.89.87,1.88,1.21,3.39,1.72,5.51,2.04-6.2,2.68,6.64,5.46,10.67,1.44-2.22-.71-4.16-.09-6.99.77,2.32,1.89,3.28,4.29,4.07,1.29.78.14,3.59,1.05,5.24,1.6-.97-.53-7.22,2.42-5.48,1.41.83-.96,3.4,1.14,3.96-1.13-4.44,3.6-4.89,4.04-6.72-.06.23-1.56-6.54-3.46-3.44-.61,0,2.3-5.7,3.35-6.84-.36-.26-.94-.55-1.33-.8,1.48-2.76,1-6.27,1.4-9.78,1.33,2.39.81,5.36,1.71,7.84,3.75-.42.69,6.99,2.33,8.2.53.39,1.7.34,1.89-.64.35-1.8-.66-3.33.29-5.38,1.21,1.46-.58,3.25,1.08,4.8.77-5,.02-9.18.12-13.95,2.97-.74.01,16.86,6.12,18.87,2.85-.62,6.74-1.4,9.67-.94,2.44-3.08,6.49-5.45,10.95-3.12,1.34-1.7.77-3.47,1.04-5.46.98.57.48,1.67,1.51,2.84l1.64-3.89c.41,2.6,1.38,1.39,2.23,1.51,4.06.54,1.89-7.61,2.41-9.14,1.67-4.96-2.66-6.18-1.32-15,.19-1.24,2.43-2.01,1.51-3.3l8.51.67,17.13,1.97c4.7,10.31,10.15,4.01,21.12,3.97-3.71,17.27-1.32,28.17-3.03,43.82l-3.99,36.44c-.39,3.6-.45,6.83-.26,10.47.17,3.4-1.74,7.78.43,10.8,1.97,2.75,6.24,2.96,9.39,4.37.07,5.4-.81,10.66.08,16.17.33,1.99,4.23,2.61,5.04.75.49-1.13.33-2.35.98-2.83,1.98-1.46,6.67,2.82,11.27,2.22.21-.69.14-1.16.51-1.6l16.97,5.04c1.22-.6,2.71-.36.66-1.53,3.06-3.42,11.44,3.65,24.23,3.07,3.74-.17,29.16-4.27,28.03-8.57h0c.53-.1.95-.95,1.53-.99.59-.04,1.19.08,1.82-.06.95-.21.76-1.23,1.05-2.22,4.5-15.31.74-27.68,3.45-36.38,3.88-12.45,8.86-24.35,10.48-37.49.79-6.4-2.45-13.31-.86-19.43Z"/>
      <g>
        <path class="cls-2" d="M44.04,212.48c-2.15-5.34-2.48-10.64-1.59-16.2.34,5.47,2.4,10.59,1.59,16.2Z"/>
        <path class="cls-2" d="M114.41,191.67c.93,1.3-1.32,2.06-1.51,3.3-1.34,8.82,3,10.04,1.32,15-.52,1.53,1.65,9.67-2.41,9.14-.85-.11-1.83,1.09-2.24-1.51l-1.64,3.89c-1.03-1.17-.53-2.27-1.51-2.84-.27,1.99.3,3.76-1.04,5.46-4.46-2.33-8.51.04-10.95,3.12-2.93-.46-6.81.32-9.66.94-6.11-2.02-3.15-19.61-6.12-18.87-.1,4.78.65,8.95-.12,13.95-1.66-1.55.14-3.34-1.08-4.8-.95,2.04.07,3.58-.29,5.38-.19.98-1.37,1.03-1.89.64-1.64-1.21,1.42-8.61-2.33-8.2-.9-2.48-.38-5.45-1.71-7.84-.41,3.51.08,7.02-1.4,9.78.61.39,1.71.87,1.64,1.22.66-3.1-4.43,6.42-3.65,6.43,1.9-3.1,3.41,3.67,3.46,3.44-.44,1.83-5.16,2.28-4.04,6.72-2.09-.55.27-3.13-1.14-3.96-2.95-1.73-.82,4.51-2.42,5.48-.91-1.65.23-4.46-1.05-5.24-2.4-.79-3.53-1.75-4.29-4.07-.62,2.84,1.52,4.78.09,6.99-2.79-4.03-3.42-16.87-5.46-10.67-.5-2.12-.85-3.63-1.72-5.51-1.5.86-1.52,2.3-3.26,2.89-1.39-1.67-.46-3.52-1.44-5.08-.41-.66-.96-1.31-1.08-1.79-.08-.33,1.19-1.28,1.06-1.61-2.34-5.85-2.06-12.25-2.74-18.49-.81-7.48-2.54-15.55-1.09-23.58-.32-.64-1.82-1.03-1.75-1.65-2,2.69-2.22,5.49-3.93,7.76l-3.26,4.33c-2.45,3.25-3.36,7.68-6.33,10.49-1.19.42-1.93-2.1-2.77-2.34-.76-.21-2.13.77-2.76.25-.71-.58-.82-1.6-.95-2.76-.34.31-.72.55-1.04.89-.26.27-1.1.37-1.33-.14-1.49-3.28-4.91-.79-6.64-2.73-.51-.57-.25-2.62-.96-2.74-1.46-.02-1.74,1.71-2.97,1.95-.23-.79-.14-1.76-.64-2.29-.24-.25-.92.11-1.47-.21-1.5-.88-1.39-3.28-2.39-4.28-.6-.6-3.43,1.09-3.31-.74.16-2.38.71-5.29,1.75-7.49l11.73-24.74c2.49-5.26,5.6-9.88,7.12-15.71-2.12.02-2.07,2.25-3.7,2.83-.99.35-1.82-.93-3.33-.82,4.16-1.65,5.55-5.13,5.32-9.27-.09-1.62,2.12-4.32-.81-5.62-1.37,7.53-10.36,4.55-10.32,4.66-.26-.75-.02-1.49-.55-2.43-1.53,1.93-2.1,4.69-5.52,5.4,3.95-10.73,1.62-2.65,2.63-12.23l-4.53,6.09c1.44-4.41,3.91-7.38,4.44-11.36-.8.38-1.16.73-1.8.53.39-2.21,1.73-3.95,2.3-6.14.26-1-1.41-1.75-1.78-2.61,1.29-.6,2.17.04,3.2-.09.86-6.43,4.78-5.09,1.67-8.3-1.01,1.47-1.79,2.68-3.75,3.13,1.7-4.97,5.08-9.32,7.99-14.11s5.32-10.01,8.83-14.2c-.05,2.75,1.24,8.31,4.04,9.69l45.8,5.17c2.98.34,5.28-.71,7.26-2.84,6.39,8.04-7.84,7.64-18.51,13.98-2.21,1.31.31,7.51-.38,8.96-.37.78-2.5.95-2.43,1.8l.21,2.95c.04.54-1.35,1.58-2.13,2.01-2.65,1.46.57,5.15-.19,6.85-1.64,3.64-.4,6.24.3,9.69,1.19,5.84,2.16,12.38,9.56,13.52.49,1.64-.02,3.9,1.04,4.98,2.53,2.34,6.1,1.78,9.56.44l8.83,20.17c2.84,6.49,6.42,11.75,11.06,17.14,6.66,7.73,8,11.58,19.28,12.47ZM17.78,145.29c0-.27-.22-.48-.48-.48s-.48.22-.48.48.22.48.48.48.48-.22.48-.48ZM7.71,167.85c6.67-9.1,2.48-11.82,9.34-16.71,1.06-.75-.13-4.9-1.42-4.46-2.16,1.08-2.46,4.22-2.51,6.15-.13.42-1.3.05-1.66.23,1.93-.95-10.6,17.55-3.75,14.79ZM80.56,187.16c-1.3,3.98.38,7.43.63,11.49,3.37-6.76.36,0-.63-11.49ZM112.91,192.14c0-.21-.17-.38-.38-.38s-.38.17-.38.38.17.38.38.38.38-.17.38-.38ZM51.33,215.44c-.17-.95-.84-.95-1.02,0,.11,1.76.91,1.76,1.02,0ZM112.15,217.28c0-.21-.17-.38-.38-.38s-.38.17-.38.38.17.38.38.38.38-.17.38-.38Z"/>
        <path class="cls-2" d="M121.21,159.09c-.62.05-2.12.95-2.65.23-8.7-11.68-10.11-6.36-27.69-30.17l-7.43-10.06c-3.47-4.69-6.26-9.26-11.49-12.03s-1.86-8.05-3.36-9.25c-1-.8-2.66-.85-4.72-2.01-.63-.36-.57-1.88.38-2.26l20.24-8.17c.65-6.22-1.62-12.24-4.53-17.74-1.03-1.94-.98-5.44-3.21-6.6-5.72-1.39-11.69-1.9-17.74-2.72-11.12-1.5-21.96-3.83-32.84-3.7-.69-2.62.24-5.04.75-7.64.55-2.78.04-5.63.47-8.63.32-2.19-1.64-4.65,1.39-7.03.77-.6-.92-2.85-.7-3.57l.5-1.65c.23-.76-.84-1.44-1.78-2.17,2.64-2.69,6.63-3.16,10.26-.46C38.75,17.56,34.41,2.93,38.87,0c.48.78.98,1.14,1.62,1.56.38.26,1-.75,1.56-.61,1.65.4,2.7,2.01,3.99,2.86.25.17.77-.79,1.03-.69.35.13.64.71,1.16,1.53.43-.46,1.97-1.87,2.66-1.44,3.05,3.2,6.24,1.02,12.17,3.95.7-.41.62-1.42,1.34-2.83,5.14,6.71,4.34,17.28,4.27,25.43l-.11,14.26c1.41-.15.82-1.2,1.22-2.02.43.25.51.51.61.73.25.53.81.21.68-.02-.16-.28.62-1.15.55-1.44-1.8-7.81,1.67-5.71,2.83-13.4.87,2.07.83,4.06,1.41,6.14,1.36-2.22,2.64-3.58,3.07-6.16,2.07,2.25.29,4.64.61,7.8,3.6-5.16.18-5.36,1.86-6.72.57-.46,1.2-1.94,2.36-.92.66.58,1.29,1.43,2.06,1.25.69-.16.74-1.17,1.49-2.18.8.7.61,1.71,1.43,2.77.1-.45.21-.99,1.08-1.88.9,1.64,2.64,4.58,4.73,4.59,1.02,0,2.11-.63,3.12-.54s.97,1.95,1.71,2.07c1.81.3,3.35.42,4.45,2.44l2.54-1.76c.38.77.56,1.96.85,2.18.27.21.61-1.11,1.31-1.21.39,1.1.6,3.05,1.89,3.45.68-.43.91-2.18,1.78-1.77,1.12.52,2.02,1.27,1.88,2.76-.71,7.37-1.41,14.52-1.12,22.01.21,5.38-.79,10.71.17,15.99.59,3.22,2.77,6.84.42,9.89-.61.79-.36.76.18,1.29,2.92,2.87,1.35-7.15,3.52-8.84.05,1.97,1.49,2.76,1.91,3.59-.67,2.13-.72,5.19-.54,7.68.66,9.51.69,30.5-1.82,39.19.61.11.85.11,1.04.21.46.23.24.88.12,1.52-1.01,5.33,3.34,19.83,3.26,26.36ZM29.74,25.56c.14,2.49-.65,5.2.46,7.37.55,1.08,2.33-.31,2.56-.92-.19.5-1.85-8.29-3.02-6.45ZM110.01,53.89c.07-2.02.59-3.79-.62-5.37-1.01,6.25-2.01,11.99.17,17.64l.45-12.27ZM106.55,73.61l.33-15.94c.05-2.39,2.13-5.18-.42-7.44-1.11,5.76.17,10.97-.59,16.53-.34,2.48-.64,4.84.67,6.85ZM116.25,128.4c.55.26,1.28-1.24.56-1.79-.29-.22.25-1.04-.76-1.15-.08,1.12-.44,2.14.19,2.94ZM114.78,141.46c.68-1.8.74-2.66-.14-3.1-.32,1.36-.46,2.29.14,3.1ZM115.54,147.56c.68-1.8.74-2.66-.14-3.1-.32,1.36-.46,2.29.14,3.1Z"/>
        <path class="cls-2" d="M25.29,26.38c.23,2.03-1.65,2.22-1.65.41.22-1.59-.31-2.95.47-3.87.51-.59,1.12.48,1.38.76.47.5.32,1.33-.2,2.7Z"/>
        <path class="cls-2" d="M62.89,238.62s3.01.45,2.02,1.56c-.51.57-.89.3-1.19.36-.81.17-1.63-.38-.83-1.92Z"/>
        <path class="cls-2" d="M45.97,69.98c-2.12.07-4.36-2.81-6.51-.01,5.81,5.01,8.12-.88,14.33,4.73-8.04-.32-15.32-.79-22.42-2.71,1.73-1.03,2.65-.75,1.03-1.82,1.21-4.6.82-8.51-1.15-13.78,14.76,2.61,29.49,2.83,43.64,6.71,5,1.37,3.06,11.1.13,13.53-8.57-1.83-19.44.9-23.75-5.73-1.5-2.32-3.24-.99-5.3-.92Z"/>
        <path class="cls-2" d="M25.9,71.93c-4.24-1.52-3.02-10.53-1.43-13.37.57-1.02,2.64-1.4,3.49-1.39.8.01,1.61,1.37,2.31,2.52,2.94,4.78-.74,13.54-4.36,12.24ZM28.58,61.31c-1-1.42-2.59-.93-3.39.25-.15.22-.43,6.14-.44,6.14.34.59,1.38,1.13,2.3,1.01,2.22-.28,2.75-5.67,1.52-7.4Z"/>
        <path class="cls-2" d="M80.15,74.43h.76c1.88,2.97,2.39,6.25,2.09,9.8l-16.88,6.69c-1.52.6-3.36.69-3.85,1.81-.66,1.52.25,2.86-.77,4.62-.62-1.24-1.25-4.05-.48-5.37,3.11-2.39,19.54-7.44,20.46-9.04,1.35-2.36-1.5-5.83-1.34-8.52Z"/>
        <path class="cls-1" d="M28.58,61.31c1.23,1.73.7,7.12-1.52,7.4-.92.12-1.96-.42-2.3-1.01,0,0,.29-5.91.44-6.14.8-1.19,2.38-1.67,3.39-.25Z"/>
        <path class="cls-2" d="M248.62,93.78c-.57,3.46-.83,7.34-3.48,9.91-.68-1.76,2.02-3.51.99-4.53-5.3-2.85-11.37-2.84-16.35-6.91,3.16-.78,17.35,8.55,18.84,1.53Z"/>
        <path class="cls-2" d="M249.05,104.47c-3.47,5.4-30.49-6.38-30.86-11.84,6.21,6.29,21.91,12.77,30.86,11.84Z"/>
        <path class="cls-2" d="M208.46,87.96c-4.39-.87-7.01-3.23-11.64-3.53,4.29-1.99,8.43.51,11.64,3.53Z"/>
        <path class="cls-1" d="M241.76,62.12c.18-.18.35-.36.5-.56.25.36,9.27,11.16,6.59,14.45-1.7-5.37-3.96-9.94-7.09-13.9Z"/>
        <path class="cls-1" d="M207.2,53.79l-.05-.74c1.74-1.29,4.39-.93,6.39-.35-2.24,1.01-4.65.07-6.34,1.09Z"/>
        <path class="cls-2" d="M193.7,62.21c1.16-2.66,3.95-3.98,5.96-5.98-1.83,1.97-3.03,4.43-5.96,5.98Z"/>
        <circle class="cls-2" cx="209.67" cy="88.91" r=".85"/>
        <path class="cls-2" d="M232.7,98.19c.94-1.12,1.58.91,1.91,1.85.15.42-.65-.45-1.1-.43-.72.04-1.49-.62-.82-1.42Z"/>
        <circle class="cls-2" cx="228.72" cy="91.19" r=".85"/>
        <path class="cls-2" d="M223.56,85.7c-.44.83.37,1.17.75.81.19.68,1.05,1.22.29,2.47-.61-1.49-1.72-2.27-2.74-3.12l1.7-.16Z"/>
        <path class="cls-2" d="M221.86,85.86l-.81-.68c.58.17.7.42.81.68Z"/>
        <path class="cls-2" d="M215.64,90.48l.89-.05c.37.05,1,.17.78,1.11-.19.79-.87.04-1.15-.33-.13-.18-.21-.38-.52-.73Z"/>
        <circle class="cls-2" cx="204.34" cy="53.48" r=".48"/>
        <path class="cls-2" d="M216.57,95.79c-.51-.63-1.25-1.13-1.51-2.29,1.43.22,1.16,1.61,1.51,2.29Z"/>
        <circle class="cls-2" cx="226.44" cy="94.62" r=".48"/>
        <path class="cls-2" d="M228.84,108.48c-1.78.4-3.12,1.72-3.95,3.31-.37-.41-.71-.49-.81-.7l4.04-3.25c.37.3.64.46.71.64Z"/>
        <path class="cls-2" d="M213.15,91.9c-.68-.63-1.48-1.02-1.95-2.17,1,.27,1.69.8,1.95,2.17Z"/>
        <path class="cls-1" d="M181.98,102.01c-.94.56-1.49-.17-2-.84,1.44-.48,1.57-2.11,2.62-3.67,1.09,1.6-.52,3.05-.62,4.52Z"/>
        <path class="cls-2" d="M208.15,96.52h-3.05c.15-.99,1.1-1.57,1.93-1.59,1.07-.03,1.21.73,1.12,1.59Z"/>
        <path class="cls-2" d="M208.03,105.82c-.29.21-.56.06-1-.13-.68-.29-.32-.66.17-.91,2.83,1.2,2.3-5.87,1.71-7.5,2.68,2.68,1.53,6.39-.88,8.54Z"/>
        <path class="cls-2" d="M205.1,96.52c-.75.45-1.04.52-.99.44s.42-.31.99-.44Z"/>
        <path class="cls-2" d="M208.91,97.29c-.28-.17-.67-.39-.76-.76l.76.76Z"/>
        <path class="cls-1" d="M199.03,119.53l-.85-.6c.31-.3.65-1.94,1.56-1.59,1.04.4-.35,1.8-.71,2.19Z"/>
        <path class="cls-2" d="M89.79,160.1c4.33,3.14,3.95,6.29,5.27,9.17-2.94-2.72-3.36-6.16-5.27-9.17Z"/>
        <path class="cls-1" d="M227.1,55.06l-7.6-2.33c2.37-.85,5.31-.17,7.6,2.33Z"/>
        <path class="cls-1" d="M224.31,86.51c-.38.36-1.18.02-.75-.81.49-.53,1.49-.02.75.81Z"/>
        <path class="cls-1" d="M223.56,85.7l-1.7.16c-.11-.26-.23-.51-.81-.68-.07-.78.14-1.82,1.16-1.49.62.2,1.27.87,1.36,2.01Z"/>
        <path class="cls-1" d="M268.97,220.35c.87-3.34,1.35-5.18.74-8.83-1.44-8.56-3.75-17.25-4.1-26-1.27-31.78-19.67-36.7-27.54-49.56-1.26-2.07-4.32-1.89-5.83-3.07-3.74-2.93-1.57-7.2.12-10.29,1.34-2.46,1.29-4.73,3.74-6.59,2.29-1.75,2.9-6.75,5.8-7.14l6.14-.84c4.85-.66.59-6.54,2.58-12.25,6.37-18.23-1.44-38.11-19.16-45.85-14.32-6.25-29.69-2.12-39.62,9.79-2.46,2.95-4.21,7.22-7.33,9.41-1.11,1.51-14.05,0-14.69,2.97-1.15,5.41,10.07,7.32,14.31,8.95-1.9,2.58-1.45,4.85-.09,7.21-2.39,4.22-8.12,6.55-8.15,10.8,0,1.21,1.44,2.15,2.81,3.22-1.42,4.02-.56,8.78-.62,12.96-.04,2.63-1.56,4.67.06,7.19,3.67,5.72,10.3,3.65,12.26,6.22,1.99,2.61,2.15,5.99,3.29,9.3-2.24.82-4.93,1.75-7.35,1.57-6.2-.45-10.2,3.09-15.44,5.16-5.11,2.02-11.38,3.3-15.2,7.52-2.78-1.21-4.99-.38-7.45.86-4.6,2.32-21.28,5.55-27.03,6.02-.62.05-2.12.95-2.65.23-8.7-11.68-10.11-6.36-27.69-30.17l-7.43-10.06c-3.47-4.69-6.26-9.26-11.49-12.03-5.17-2.74-1.86-8.05-3.36-9.25-1-.8-2.66-.85-4.72-2.01-.63-.36-.57-1.88.38-2.26l20.24-8.17c.65-6.22-1.62-12.24-4.53-17.74-1.03-1.94-.98-5.44-3.21-6.6-5.72-1.39-11.69-1.9-17.74-2.72-11.12-1.5-21.96-3.83-32.84-3.7-3.54,1.35-5.01,6.55-5.07,10.1-.05,2.75,1.24,8.31,4.04,9.69l45.8,5.17c2.98.34,5.28-.71,7.26-2.84,6.39,8.04-7.83,7.64-18.5,13.98-2.21,1.31.31,7.51-.38,8.96-.37.78-2.5.95-2.43,1.8l.21,2.95c.04.54-1.35,1.58-2.13,2.01-2.65,1.46.57,5.15-.19,6.85-1.64,3.64-.4,6.24.3,9.69,1.19,5.84,2.16,12.38,9.56,13.52.49,1.64-.02,3.9,1.04,4.98,2.53,2.33,6.1,1.78,9.56.44l8.83,20.17c2.84,6.49,6.42,11.75,11.06,17.14,6.66,7.73,8,11.58,19.28,12.47l8.51.67,17.13,1.97c4.7,10.31,10.15,4.01,21.12,3.97-3.71,17.27-1.32,28.17-3.03,43.82l-3.99,36.44c-.39,3.6-.45,6.83-.26,10.47.17,3.39-1.74,7.78.43,10.8,1.97,2.75,6.24,2.96,9.39,4.37.07,5.4-.81,10.66.08,16.17.33,1.99,4.23,2.61,5.04.75.49-1.13.33-2.35.98-2.83,1.98-1.46,6.67,2.82,11.27,2.22.21-.69.14-1.16.51-1.6l16.97,5.04c1.22-.6,2.71-.36.66-1.53,3.06-3.42,11.44,3.65,24.23,3.07,3.74-.17,29.16-4.27,28.03-8.57-9.9,1.81-19.62,5.55-30.06,4.84-13.06-.89-24.26-6.63-34.32-14.33-6.31-4.83-15.01-3.56-25.78-7.82-1.93-.76-4.07-.99-4.21-3.61-.33-6.02,1.11-11.8,1.48-17.46l.9-13.74c.19-2.86-.15-5.8.57-8.98,1.49-6.55,2.3-12.86,3.28-19.2l1.04,4.68.41-6.23c-3.49-3.26-1.46-19.42-.98-24.43l.92-9.6c-.29-1.14-.45-1.71.02-2,.88-.55,1.96-.75,2.5-.39.79.54.11,1.77.46,2.27,3.41,4.8,1.27,8.96,13.87,18.05,5.48,1.79,12.56.28,17.67-2.94,7.72-4.87,11.48-14.02,11.59-22.84l.21-16.64c.11-8.63-2.33-15.92-6.56-23.2-3.13-5.38-6.66-9.76-13.34-12.15,2.54-.99,4.72-.4,7.01-.72,3.19-1.12,6.84-3.71,9.77-3.48,1.06-.34,1.93-2.19,4-1.78,6.75,1.36,13.64,1.66,20.49,1.68,4.68.02,4.43,3.23,9.68,8.69,2.46,2.56,5.29,4.49,7.12,7.27.76.26,1.6.79,1.71,1.55l.12.84c8.99,9.18,11.54,20.13,10.21,32.75l-4.31,41.05c.23,4.57-.16,9.34-1.52,13.71-.58,10.69-1.27,21.36-.71,32.07.17,3.16-.99,6.12-.82,9.17l.91,16.73-1.81,15.17c.59-.04,1.19.08,1.82-.06.95-.21.76-1.23,1.05-2.22,4.5-15.31.74-27.68,3.45-36.38,3.88-12.45,8.86-24.35,10.48-37.49.79-6.4-2.45-13.31-.86-19.43ZM25.9,71.93c-4.24-1.52-3.02-10.53-1.43-13.37.57-1.02,2.64-1.4,3.49-1.39.8.01,1.61,1.37,2.31,2.52,2.94,4.78-.74,13.54-4.36,12.24ZM75.01,76.63c-8.57-1.83-19.44.9-23.75-5.73-1.5-2.32-3.24-.99-5.3-.92-2.12.07-4.36-2.81-6.51-.01,5.81,5.01,8.12-.88,14.33,4.73-8.04-.32-15.32-.79-22.42-2.71,1.73-1.03,2.65-.75,1.03-1.82,1.21-4.6.82-8.51-1.15-13.78,14.76,2.61,29.49,2.83,43.64,6.71,5,1.37,3.06,11.1.13,13.53ZM61.03,91.99c3.11-2.39,19.54-7.44,20.46-9.04,1.35-2.36-1.5-5.83-1.34-8.52-.38-1.11-1.5-3.05.03-3.03,1.33.02.55,2.32.73,3.03,1.88,2.97,2.39,6.25,2.09,9.8l-16.88,6.69c-1.52.6-3.36.69-3.85,1.81-.66,1.52.25,2.86-.77,4.62-.62-1.24-1.25-4.05-.48-5.37ZM58.85,114.89c-.55,1.38-.87,2.14-2.25,3.77-1.24-1.94.36-3.22,2.25-3.77ZM112.66,187.79c-5.91-.42-8.16-2.47-11.15-6.23-5.23-6.56-10.8-12.67-14.41-20.59l-7.85-17.24c-1.38-3.03-2.6-7.42-5.5-9.1-9.52.35-7.53-3.51-14-4.67-3.04-3.75-1.29-9.03-.06-13.18.89-2.97,1.1-4.97,5.16-6.74.25-2.95-11.59,4.2-8.83-1.45,2.48-5.09,19.55.67,23.1,7.38,2.35,4.44,5.49,8.11,8.26,12.31,5.25,7.97,10.38,15.52,17.62,21.88,4.38,3.85,8.55,7.69,12.32,12.23l11.39-.97,1.45,10.26,6.19,17.79-23.69-1.67ZM159.42,158.52c3.47.62,6.33,1.72,8.75,3.96-3.94.16-6.19-2.22-8.75-3.96ZM218.19,92.64c6.21,6.29,21.91,12.77,30.86,11.84-3.47,5.4-30.49-6.38-30.86-11.84ZM225.95,94.62c0-.27.22-.48.48-.48s.48.22.48.48-.22.48-.48.48-.48-.22-.48-.48ZM227.87,91.19c0-.47.38-.85.85-.85s.85.38.85.85-.38.85-.85.85-.85-.38-.85-.85ZM246.13,99.16c-5.3-2.85-11.37-2.84-16.35-6.91,3.16-.78,17.35,8.55,18.84,1.53-.57,3.46-.83,7.34-3.48,9.91-.68-1.76,2.02-3.51.99-4.53ZM233.52,99.61c-.72.04-1.49-.62-.82-1.42.94-1.12,1.58.91,1.91,1.85.15.42-.65-.45-1.1-.43ZM172.06,73.95c-4.34-2.35,14.77-1.34,13.77-2.41l7.82-9.01c.41,3.26-.71,6.63,1.71,8.67,3.34,2.81,7.97,5.43,12.52,4.3-4.65-2.22-9.23-2.35-11.93-6.47-4.48-6.82,7.54-13.02,11.25-15.24l-.05-.74c-.38-.07-.69,0-.89-.14-.33-.25-.3-.69-.23-.95.12-.45,1.04-.07,1.38-.25,7.44-4.09,15.54-2.78,23.02.2,5.26,2.09,8.87,5.45,11.84,9.66.25.36,9.27,11.16,6.59,14.45-1.7-5.37-3.96-9.94-7.09-13.9l-1.69-.57c-.55.07-1.31-.15-2.08.27,1.89,4.01,5.33,7.41,5.07,11.84-1.95-1.6-1.95-5.01-4.41-5.08-1.07-.03-2.1,1.68-3.14,1.2-1.33-.62-2.45-1.3-2.86-2.96-1.27.56-1.71,1.23-1.69,1.97.03.91.53,1.45.82,2.57-1.09-.17-1.49-.84-2.52-1.24-.96,1.07-2.08,2.04-3.29,2.86,1.39,4.71,2.05,10.33-1.67,13.53.19.68,1.05,1.22.29,2.47-.61-1.49-1.72-2.27-2.74-3.12l-.81-.68c-.34,1.83-5.84-7.14-6.1-7.59-2.22.1-3.95-2.27-6.82-1.1-.14,2.62,9.94,3.93,7.16,9.62-5.48-4.19-11.33-6.8-18.27-7.25-.9-.06-2.19-.73-2.54-1.24-.69-1.03,1.31-3.55.46-5.52-.16-.37-3.53-2.75-5.2-2.09.03-.01-3.32,4.65-2.69,5.9,3.88,7.68,19.27.27,29.48,14.5.37.05,1,.17.78,1.11-.19.79-.87.04-1.15-.33-.13-.18-.21-.38-.52-.73-11.09-12.52-24.58-6.24-43.58-16.52ZM192.82,75.17c-.59,1.8-1.13,2.92-2.54,2.33-1.18-.5-1.79-1.5-1.31-3.09.3-.98.62-1.83,1.02-2.51.59-1.02,1.45-.2,1.98.08,1.21.64,1.37,1.62.85,3.18ZM213.15,91.9c-.68-.63-1.48-1.02-1.95-2.17,1,.27,1.69.8,1.95,2.17ZM208.82,88.91c0-.47.38-.85.85-.85s.85.38.85.85-.38.85-.85.85-.85-.38-.85-.85ZM208.46,87.96c-4.39-.87-7.01-3.23-11.64-3.53,4.29-1.99,8.43.51,11.64,3.53ZM227.86,133.12c-17.12,1.22-13.21-4.95-30.56,4.33-2.59-7.14,1.62-12.57,1.73-17.92l-.85-.6c-3.37,1.71-14.44,6.34-17.41,2.95-.92-1.05-1.62-2.96-.76-4.44,1.16-2-.35-3.98.16-5.62.58-1.89.67-2.62-.32-4.7-.01-1.7,2.02-3.46,2.13-5.11-.94.56-1.49-.17-2-.84-.69-.91-1.92-1.6-1.9-2.77.02-1.23,1.32-1.63,1.98-2.49,3.34-4.35,5.66-1.66,6.63-3.81.54-1.2-1.37-3.36-.39-4.47.31-.36,1.71.36,1.82-.11.38-1.55-1.28-2.53-1.66-4.18,2.28-1.05,3.89.77,5.43,1.92,8.93,6.69.47,14.13,4.68,15.51,4.09,1.34,3.6-4.5,7.86-2.86-.59,2.99-1.26,5.41-3.3,7.91,1.23,1.3,2.97,1.16,4.03.32,2.65-2.1-1.04-5.94,2.69-6.97.72,1.34.11,2.98-.34,4.43-.19.41-.42.82-.59,1.24-.07.09-.15.18-.22.28-.02.03-.03.07-.04.11-.04.07-.07.15-.06.26.02.37.09.74.18,1.1.03.14.07.28.12.42-1.41,1.59-2.88,3.47-5.58,3.59-.45.02-1.32-.44-1.85-.3-.66.18-.39,1.29-.1,1.6,3.19,3.32,8.69-.71,10.8-4.07.91,2.49.35,4.52.75,6.58,3.69-1.98.81,7.9,5.95,9.64,2.39.81,4.43,1.33,6.57,2.79,1.27.87,3.69.07,3.96,2.06.15,1.13.78,2.56.45,4.24ZM265.23,246.08c-1.46,7.04-2.93,13.5-5.84,19.78-1.96-13.33,2.42-27.05,2.05-40.54.95-1.01,1.64-1.71,3.72-1.87l1.25,13.56c1.03,3.14-.52,5.9-1.17,9.07Z"/>
        <path class="cls-2" d="M216.47,290.06c.74,2.59,3.09,3.77,5.41,5.24,4.42,2.79,7.99,6.83,13.51,8.11-2.62-5.48-10.49-8.17-14.29-12.57,7.65-.9,13.2-2.62,21.18-3.06,3.87-1.93,7.77-3.18,11.65-3.76l.91,16.73-1.81,15.17c-.58.04-1,.9-1.53.99-9.9,1.81-19.62,5.55-30.06,4.84-13.06-.89-24.26-6.63-34.32-14.33-6.31-4.83-15.01-3.56-25.78-7.82-1.93-.76-4.07-.99-4.21-3.61-.33-6.02,1.11-11.8,1.49-17.46,2.26.34,4.74,1.09,6.92,2.42,4.37,2.67,8.98,3.35,13.8,4.56,3.27.82,6.17,2.15,9.74,2.37,5.38.33,10.57,1.75,16.03,1.62,4.03-.1,7.84-.57,11.38.55Z"/>
        <path class="cls-2" d="M249.24,152.88c.25.38-.03,1.25.56,1.41.42.12.8.19,1.15.13l.12.84c-.01-.1,7.09,16.54,6.1,31.16-.07,1.08.43,2.89,1.59,2.99.78.07,1.71-.95,2.53-1.39l-4.31,41.05c-4.42,1.66-9.15,2.07-13.84,1.62l-3.36-16.85c-.39-1.93.59-3.96-1.08-5.41.25,3.96-.02,7.61.52,11.37l1.78,12.42c-8.4.65-16.91,2.46-25.67,1.69s-16.24-3.15-24.72-3.39c-2.15-.06-4.07-.49-5.54-2.11-6.41-2.17-12.64-4.12-19.34-5.54-1.69-1.9-1.9-4.32-1.18-6.66,1.93-6.25.58-13.44,3.19-15.3,3.41,4.8,1.27,8.96,13.87,18.05,5.48,1.79,12.57.28,17.67-2.94,7.72-4.87,11.48-14.02,11.59-22.84l.21-16.64c.11-8.63-2.33-15.92-6.56-23.2-3.13-5.38-6.65-9.76-13.34-12.15,2.54-.99,4.72-.4,7.01-.72,6.19,2.4,16.57,17.44,17.49,24.62l1.92,15.06c.46,3.61.34,7.08,1.61,10.69,2.83.26,5.55.34,8.47-.71-.9-18.91-1.16-38.44-17.12-50.89-1.08-.84-2.92-.85-2.59-2.24,1.06-.34,1.93-2.19,4-1.78,6.75,1.36,13.64,1.66,20.49,1.68,4.68.02,4.43,3.23,9.68,8.69,2.46,2.56,5.29,4.49,7.12,7.27Z"/>
        <path class="cls-2" d="M255.45,242.78c-.58,10.69-1.27,21.36-.71,32.07-1.37-.48-.82-2.42-1.06-3.91-1.57,0-1.73,1.92-3,2.25-8.8,2.29-22.36,3.42-31.89,4.68l2.78,4.32c-1.97-.71-3.84-2.37-4.14-4.22,3.27-.36-7.44-14.31-8.43-15.49-2.1-2.52-11.26-14.91-11.6-17.33,6.63-.03,13.57,2.45,20.55,2.26l17.06-.46c2.84-.08,5.23-1.1,7.68-1.84.96,7.24,2.93,14.41,6.08,21.82-.9-7.77-2.82-14.71-4.08-22.57,3.46-1.2,7.16-.92,10.74-1.58Z"/>
        <path class="cls-2" d="M186.95,241.94c.83.53,1.49,1.51,1.98,2.72,2.26,5.52,9.3,23.74,14.65,25.68l-3.35-11.2c2.86,3.74,5.23,6.45,8.4,9.1s5.04,6.88,8.02,9.65c-2.85-1.87-6.3-2.39-9.98-2.55l-15.33-.68c-11.35-.5-21.57-6-31.84-9.87.19-2.86-.15-5.8.57-8.98,1.49-6.55,2.3-12.86,3.28-19.2l1.04,4.68.41-6.23c4,1.55,8.06,3.09,12.51,4.22,3.12,1.72,6.4,2.38,9.64,2.65Z"/>
        <path class="cls-2" d="M168.17,162.48c-3.94.16-6.19-2.22-8.75-3.96,3.47.62,6.33,1.72,8.75,3.96Z"/>
        <path class="cls-1" d="M221.1,290.84c3.8,4.4,11.67,7.09,14.29,12.57-5.51-1.28-9.09-5.32-13.51-8.11-2.32-1.47-4.67-2.65-5.41-5.24,1.5.47,3.04.78,4.62.77Z"/>
        <path class="cls-1" d="M243.13,230.7c-.5,5.07.89,9.35,1.58,13.67,1.26,7.86,3.18,14.8,4.08,22.57-3.15-7.41-5.12-14.57-6.08-21.82l-1.72-12.9-1.78-12.42c-.54-3.77-.28-7.41-.52-11.37,1.66,1.45.69,3.48,1.08,5.41l3.36,16.85Z"/>
        <path class="cls-1" d="M197.41,245.16c.35,2.41,9.51,14.81,11.6,17.33.98,1.18,11.69,15.13,8.43,15.49-.22-.08-.58.06-.78-.07-2.99-2.78-4.71-6.88-8.02-9.65s-5.54-5.36-8.4-9.1l3.35,11.2c-5.35-1.94-12.39-20.16-14.65-25.68-.5-1.21-1.15-2.2-1.98-2.72.3-2.2-5.21-11.81-2.03-11.55,2.01.16,4.31,9.63,7.59,12.8,1.08,1.05,4.12.47,4.89,1.97ZM199.77,258.43c0-.21-.17-.38-.38-.38s-.38.17-.38.38.17.38.38.38.38-.17.38-.38Z"/>
        <circle class="cls-2" cx="199.39" cy="258.43" r=".38"/>
      </g>
    </g>
  </g>
</svg>