<?xml version="1.0" encoding="UTF-8"?>
<svg id="Layer_2" data-name="Layer 2" xmlns="http://www.w3.org/2000/svg" viewBox="0 0 477.25 189.28">
  <defs>
    <style>
      .cls-1 {
        fill: #1c1c1c;
      }
    </style>
  </defs>
  <g id="Layer_1-2" data-name="Layer 1">
    <path class="cls-1" d="M477.25,93.6c-.44.93-1.45,1.65-3.39,2.01.09-3.58.62-6.87,1.73-9.35.49,1.32,1.25,2.84,1.65,4.27v-12.48l-.57-.42-111.42-14.18,9.59-5.95,102.41-42.87v-3.19l-103.02,43.18c-6.61,2.77-13.72,2.15-19.75,7.51l-159.27-20.68c32.08-5.28,61.73-9.44,92.98-12.15,6.83-.59,11.57-1.8,17.9-2.65L477.25,3.73V0c-14.88,2.89-29.31,4.67-44.58,6.61l-128.34,16.33c-5.84.74-11.01,1.3-17.1,2.12l-95.92,12.93c-4.38.59-11.09,1.47-15.52.92L38.53,21.85,2.82,42.27c-.98.56-2.19,1.79-2.68,2.53-.62.92,1.05,4.06,2.29,4.21l195.15,23.91.24,9.83c.01.52,1.59,2.18,1.95,1.8l1.79-1.86c.62-.64,1.95-1.58,2.7-1.93.96-.44,3.35,1.68,3.39,3.16l1.73,63.81c-.04-1.45-6.07,12.15,3.56,23.64,2.26,2.69,1.11,5.23-1.34,7.37-2.73,2.39-2,6.94.9,9.21,2.05,1.61,6.35,1.95,8.7-.03,2.77-2.33,3.57-6.87.32-10.04l-3.11,5.16c-.27.44-1.98.36-2.45.21-.62-.2-.41-1.78-.04-2.49l5.36-10.32,4.05-7.88c3.31-6.44-.24-10.33-.03-16.13l2.4-64.52c4.52-.21,7.16-.7,9.74-3.82l145.72,17.59,94.1,11.59v-13.66ZM396.92,72.15l-8.43,9.63-10.03-11.74,18.46,2.11ZM369.19,68.69l-9.54,9.94-10.37-12.35,19.91,2.4ZM366.78,74.91c-.11,3.22-2.42,5.47-5.34,5.58l5.34-5.58ZM347.65,79.12l-10.94-1.17,6.98-11.09,3.96,12.26ZM340.35,65.02l-9.8,9.54-10.13-11.91,19.93,2.36ZM336.54,72.06c-.95,3.83-2.24,6.41-4,4.55l4-4.55ZM328.61,76.72l-7.63-.93-1.29-9.43,8.93,10.36ZM319.13,76.07l-11.66-1.63,7.08-11.4,4.58,13.02ZM310.33,61l-10,10.34-10.86-12.89,20.85,2.55ZM307.29,67.91c-.91,3.13-1.27,6.65-5.32,5.43l5.32-5.43ZM298.38,72.77l-7.39.18-2.47-10.82,9.85,10.64ZM288.52,72.13l-11.71-1.29,7.48-11.42,4.23,12.71ZM280.87,57.32l-10.62,10.69-10.22-13.22,20.84,2.53ZM272.69,69.4l2.94-3.27c.4,2.17-1.1,3.77-2.94,3.27ZM258.46,68.41l-11.45-1.4,7.75-11.32,3.7,12.73ZM251.64,53.79l-11.03,10.07-10.52-12.9,21.55,2.83ZM242.7,66.06l2.94-3.27c.4,2.17-1.1,3.77-2.94,3.27ZM229.22,64.83l-12.18-1.63,7.57-11.2,4.61,12.83ZM194.3,47.4l4.32,13.52-12.47-1.48,8.16-12.04ZM191.28,45.36l-10.79,11.74-12.67-14.29,23.46,2.55ZM184.63,56.68c-.33.76-1.22,2.34-1.34,2.01-.13-.37-.35-1-.35-1.2,0-.23,1.83-1.14,1.68-.8ZM167.87,57.36l-12.63-1.86,8.2-11.94,4.42,13.8ZM160.82,41.6l-10.87,12-12.36-14.99,23.22,2.99ZM138.05,53.58l-14.11-1.9c3.1-4.67,5.58-7.85,9.32-12.24l4.79,14.14ZM130.56,37.67l-11.72,12.08-11.86-14.95,23.58,2.87ZM98.93,33.88l-12.01,12.29-11.95-15.42,23.96,3.14ZM101.93,35.55l4.73,14.12-14.47-1.92,9.74-12.21ZM91.16,45.59l-1.1,2c-.18.34-.77-.98-.46-1.2.31-.22,1.75-1.15,1.55-.79ZM75.34,45.89l-15.28-2.36,10.68-12.65,4.59,15ZM68.2,29.72l-13.08,12.45-11.91-15.76,25,3.31ZM43.1,41.81l-14.81-1.93,10.2-12.8,4.61,14.73ZM31.5,30.38c-1.67,3.05-3.77,6.3-5.45,8.25-1.51,1.75-6.36.51-9.02-.86,4.6-2.83,8.63-4.91,14.48-7.39ZM41.76,49.79l-25.07-3.53c2.03-1.65,4.23-2.17,6.78-1.86l18.7,2.27c.72.09,2.03,1.02,2.48,1.36.47.35-1.93,1.89-2.89,1.76ZM45.1,40.33l-2.03-9.15,8.74,11.02c-1.9.88-6.29.03-6.71-1.86ZM74.59,53.76l-25.46-3.84c10.26-3.83,17.96,1.18,28.03.96l-2.57,2.88ZM76.79,42.68l-1.69-7.6,8.62,11.34c-3,1.26-6.21-.5-6.93-3.75ZM107.63,56.37c-9.19.76-16.83-.56-25.2-2.01-4.36-4.94,30.15.88,25.2,2.01ZM109.2,49.16c-1.15-2.84-2.41-7.61-3.04-10.68l9.84,11.81c-1.67.48-6.21.33-6.8-1.13ZM112.97,57.62c9.98-3.59,15.59,1.16,24.7.8.68.02.81.42.84,2.58-8.74-.3-17.34-1.33-25.53-3.38ZM140.25,52.62c-1.13-2.94-2-6.9-2.59-9.16,3.76,3.73,6.66,6.98,9.59,10.74-1.93.46-6.42-.08-7-1.58ZM142.54,60.86c-.39,0-.71-.32-.71-.71s.32-.71.71-.71.71.32.71.71-.32.71-.71.71ZM145.1,61.86c-1.29-3.56,23.85.11,24.88,2.01-8.71,1.58-16.25-.1-24.88-2.01ZM172.54,64.2c-.39,0-.71-.32-.71-.71s.32-.71.71-.71.71.32.71.71-.32.71-.71.71ZM170.59,57.04c-1.12-2.18-1.93-6.12-1.99-8.68,3.53,3.5,5.82,6.16,8.51,9.78-2.33.28-5.88.14-6.51-1.09ZM199.4,68.69l-23.69-2.5.28-2.66,23.69,2.5-.28,2.66ZM201.23,60.52c-.7-2.67-1.32-6.03-1.64-8.64,3.09,3.39,5.1,5.92,7.75,9.59-1.9.54-5.79.28-6.11-.95ZM206.98,70.84c-.68,0-1.24-.55-1.24-1.24s.55-1.24,1.24-1.24,1.24.55,1.24,1.24-.55,1.24-1.24,1.24ZM199.95,47.41l21.57,2.4-11.11,10.79-10.45-13.19ZM211.96,68.47l1.63-1.15v8.02c-.96-.77-1.84-1.29-1.82-1.84l.1-2.86c.04-1.2-.19-1.97.09-2.17ZM218.89,169.08l-.95.21c.72-3.54.99-3.99.95-.21ZM213.79,154.9l7.92,9.64c-4.55-1.87-7.46-5.18-7.92-9.64ZM213.15,151.94l2.29-1.42c3.06,4.04,4.83,6.23,7.15,10.41l-9.44-8.99ZM215.69,148.56l2.14-.96,6,8.79c-3.39-2.3-5.25-4.45-8.14-7.83ZM222.47,145.05l-10.25-.36-2.4-62.04c1.34-.98,5.5-.86,5.86.54.55,2.1,1.52,4.71,2.81,4.53,1.2-.17,3.34-1.36,3.92-2.24l1.32-2c.22-.34.8-.05.92.33.12.4.47,2.16.43,2.95l-2.61,58.3ZM216.27,74.6c0-.39.32-.71.71-.71s.71.32.71.71-.32.71-.71.71-.71-.32-.71-.71ZM219.1,74.72c1.89-1.07,5.73-1.66,5.72,1.48l-5.72-1.48ZM215.22,69.98c5.58-2.27,11.08-.96,15.38,1.53l-15.38-1.53ZM233.07,77.46c-.4-2.59-.4-4.86.04-6.84.4,2.59.4,4.86-.04,6.84ZM231.46,63.75l-2.04-8.73,8.99,10.25c-1.88.76-6.51.34-6.95-1.52ZM260.22,75.8l-2.16.64-21.97-3.06c9.03-4.24,15.86.77,24.31.13.11,1.41.34,2.13-.19,2.29ZM260.96,67.53c-.97-2.59-1.68-6.09-2.43-9.95l9.51,11.51c-1.82.52-6.45.14-7.08-1.56ZM264.04,74.6c0-.39.32-.71.71-.71s.7.32.7.71-.32.71-.7.71-.71-.32-.71-.71ZM264.72,76.82c.53-3.31,26.16.2,26.38,1.96-9.6,1.54-17.46-.76-26.38-1.96ZM293.76,80.02c10.3-2.25,19.35-.15,27.93,2.5-10.02.71-19.22-.46-27.93-2.5ZM337.78,85.64l-13.02-2.2c5.46-1.49,10.23-.44,15.66.3l8.65,1.18c-4.22,2.12-7.47,1.37-11.29.73ZM348.65,70.65l8.38,9.37c-1.53.38-5.07.22-5.97-.87-1.62-1.98-2.61-5.95-2.42-8.5ZM358.69,87.57l-6.26-.8c3.65-.47,8.31-.88,12.07-.31l10.37,1.59c-5.06.67-10.16.3-16.18-.48ZM366.15,81.4l6.97-10.1,3.55,11.76-10.52-1.66ZM379.99,82.77c-1.34-2.42-2.31-6.16-2.61-9.37l8.69,9.95c-1.31.74-5.37.69-6.07-.58ZM388.08,90.36c2.68-.27,3.95-.34,4.48-.23l-4.48.23ZM390.05,84.11l5.1-5.68c-.33,3.07-.27,7.04-5.1,5.68ZM394.74,91.48c2.68-.27,3.95-.34,4.48-.23l-4.48.23ZM395.95,85.03l5.67-10.53,4.32,12.09c-4.1-.34-7.02-.79-9.99-1.56ZM408.77,86.31c-.78-2.22-1.98-6.34-2.59-9,3.47,3.38,5.79,6.02,8.74,9.68-1.63.56-5.67.66-6.14-.68ZM407.58,73.82l17.6,1.88-8.01,9.28-9.58-11.16ZM419.14,88.76c.76-2.86,2.29-5.09,4.25-7.16-.14,2.98-1.05,5.54-4.25,7.16ZM423.6,88.76l5.16-10.41,4.82,11.9-9.98-1.49ZM436.2,89.29l-3-8.51c3.52,3.2,5.84,5.82,9.36,10.09-1.78.76-5.79.04-6.36-1.57ZM434.7,76.97l17.27,2.25-7.75,8.81-9.53-11.07ZM448.39,92.79c-3.54-4.76,1.01-6.21,3.69-8.25-.6,2.66-1.93,5.76-3.69,8.25ZM452.15,92.47l4.61-10.38,4.28,11.4-8.89-1.02ZM463.78,92.47l-2.19-7.45c3.7,2.87,5.82,5.1,8.36,8.76-1.55.98-5.69.3-6.17-1.31ZM471.14,90.5l-8.87-9.64,11.47.99-2.6,8.65Z"/>
  </g>
</svg>