<?xml version="1.0" encoding="UTF-8"?>
<svg id="Layer_2" data-name="Layer 2" xmlns="http://www.w3.org/2000/svg" viewBox="0 0 410.06 163.11">
  <defs>
    <style>
      .cls-1 {
        stroke: #1e1818;
        stroke-miterlimit: 10;
      }

      .cls-1, .cls-2 {
        fill: #1e1818;
      }

      .cls-3 {
        fill: #c6ea2f;
      }
    </style>
  </defs>
  <g id="Layer_1-2" data-name="Layer 1">
    <g>
      <g>
        <g>
          <path class="cls-3" d="M409.23,61.95c-.03,1.02-.05,2.04-.08,3.06-.02.5-.05.99-.07,1.49-.03.53-.06.86-.09,1.31-.07,2.14.16,3.26.38,4.86-.05-3.56-.09-7.14-.14-10.72Z"/>
          <path class="cls-3" d="M399.08,59.49c-.53.04-1.03.08-1.49.11,1.07-.04,2.16-.09,3.23-.13-.59,0-1.19.01-1.74.02Z"/>
          <path class="cls-3" d="M383.75,60.02c3.02,0,5.91-.08,8.7-.19-2.47-.03-5.33.02-8.7.19Z"/>
          <path class="cls-3" d="M397.53,59.61s.04,0,.07,0c-1.7.07-3.39.15-5.15.22,1.84.02,3.5.09,4.92.19-1.05-.12-1.57-.26.16-.4Z"/>
          <path class="cls-3" d="M400.21,60.27c.11.01.23.02.34.04-.09-.01-.2-.02-.34-.04Z"/>
          <path class="cls-3" d="M397.36,60.01c.86.1,2.13.19,2.85.26-.85-.1-1.79-.18-2.85-.26Z"/>
          <path class="cls-3" d="M409.65,139.84c.56-7.63.15-15.62-.27-23.61-.14,1.17-.28,2.35-.42,3.56.14,4.57.41,5.1.55,1.03-.42,9.32-.35,18.12-.1,27.14.25-.57.55-.46.64-3-.14-1.69-.41-5.11-.41-5.11Z"/>
          <path class="cls-3" d="M409.37,148.07l-1.54-87.29-54.96.97c-2.96-.13-5.34-.21-5.34-.21-22.72.44-44.11.77-65,1.04-1.6.22-2.72.45-4.88.38-1.63-.14-3.28-.21-4.91-.26-3.05.04-6.1.07-9.12.11-1.06.04-2.13.09-3.21.13-.01,0-.06,0-.09,0-1.71.14-1.2.28-.14.4.1,0,.2.01.3.02h-.08c-.07,0-.15-.01-.22-.02-1.44-.1-3.04-.16-4.92-.19-1.2.05-2.44.09-3.69.12.98-.04,1.97-.08,2.97-.12.24,0,.49,0,.72,0,1.39-.06,2.74-.12,4.08-.18.02,0,.03,0,.05,0,0,0,0,0-.01,0,.34-.01.69-.03,1.03-.04.49-.04.97-.07,1.48-.11-6.96.08-13.89.15-20.82.23-1.59.06-3.12.11-4.36.16-5.02.22-10.02.43-13.13.02-1.22.01-2.47.02-3.72.04.23.02.48.05.72.07-.55-.03-1.02-.05-1.4-.07-5.23.05-10.47.1-15.75.15-10.28.1-20.67.2-31.29.3-27.51.24-54.16.58-80.91.95-27.39.39-54.89.79-83.48,1.2.16,13.03.34,27.17.52,41.62.17,18.87.34,37.39.5,55.6,5.83-.05,11.63-.09,17.41-.14,4.91-.02,9.79-.05,14.66-.07,9.74-.03,19.4-.06,29.02-.09,72.14-.15,137.91-2.6,210.82-1.46,27.98.36,79.88-1.02,106.85-1.59,35.85-2.21,17.55-5.97,15.63-6.22l6.29-.11-.07-4.21c.06,1.41.12,2.82.19,4.21,0-.06.01-.13.02-.19-.06-1.77-.12-3.55-.17-5.28-.02.03-.03.07-.05.12ZM183.62,64.33c-4.97.26-11.41.2-16.6-.18,6.43-.52,11.85-.22,16.6.18Z"/>
        </g>
        <g>
          <path class="cls-1" d="M20.59,16.02c-.14-.48-.41-.81-.8-.98-.4-.17-.83-.27-1.29-.29-.47-.02-.92,0-1.37.08-.45.07-.79.1-1.04.1-.59-.03-1.61-.1-3.06-.21-1.45-.1-3.01-.21-4.69-.34-1.67-.12-3.24-.24-4.69-.36-1.45-.12-2.47-.2-3.06-.23,0-.07-.02-.24-.05-.52-.04-.28-.05-.47-.05-.57,0-.48.04-.91.13-1.29.09-.38.42-.67,1.01-.88,3.25.07,6.45.05,9.61-.05s6.32-.25,9.48-.44c3.16-.19,6.32-.37,9.48-.54,3.16-.17,6.34-.26,9.56-.26,0,1.31-.31,2.27-.93,2.87-.62.6-1.39,1.01-2.3,1.22-.92.21-1.92.29-3.03.26-1.11-.03-2.17-.02-3.18.05-1.02.07-1.92.27-2.69.6-.78.33-1.29.92-1.53,1.79-.04.21-.07.6-.1,1.19-.03.59-.06,1.21-.08,1.86-.02.66-.04,1.27-.05,1.84-.02.57-.03.98-.03,1.22,0,1.97.25,3.91.75,5.83.5,1.92,1.05,3.82,1.66,5.7.6,1.88,1.16,3.76,1.66,5.65.5,1.88.75,3.79.75,5.72,0,1.45-.83,2.18-2.49,2.18-1,0-1.89-.69-2.67-2.07-.78-1.38-1.45-3.14-2.02-5.28-.57-2.14-1.04-4.47-1.4-6.99-.36-2.52-.66-4.94-.88-7.25-.23-2.31-.38-4.35-.47-6.11-.09-1.76-.13-2.92-.13-3.47Z"/>
          <path class="cls-1" d="M41.07,25.34c0-.31.02-.63.05-.96.03-.33.1-.62.21-.88s.27-.47.49-.65c.22-.17.54-.26.96-.26.34,0,.73.27,1.17.8.43.54.87,1.21,1.32,2.02.45.81.89,1.7,1.32,2.67.43.97.81,1.86,1.14,2.67.33.81.59,1.51.8,2.1.21.59.33.9.36.93.45-1.21.95-2.52,1.5-3.94.55-1.42,1.23-2.74,2.05-3.96.81-1.23,1.78-2.25,2.9-3.08,1.12-.83,2.49-1.24,4.12-1.24.83,0,1.61.13,2.36.39.74.26,1.4.64,1.97,1.14.57.5,1.03,1.1,1.37,1.79.34.69.52,1.48.52,2.38,0,.76-.3,1.29-.91,1.61-.6.31-1.29.47-2.05.47h-.52l-2.23-2.23c-.07,0-.12-.02-.16-.05-.07,0-.13,0-.18-.03-.05-.02-.11-.03-.18-.03-1.21,0-2.15.34-2.82,1.01-.67.67-1.18,1.5-1.53,2.49-.35.98-.56,2.02-.65,3.11-.09,1.09-.13,2.08-.13,2.98,0,.69.07,1.39.21,2.1.14.71.29,1.4.47,2.07.17.67.33,1.36.47,2.07.14.71.21,1.44.21,2.2,0,1.45-.78,2.18-2.33,2.18-.86,0-1.76-.46-2.69-1.37-.93-.91-1.86-2.08-2.77-3.5-.92-1.42-1.79-2.98-2.62-4.69-.83-1.71-1.55-3.37-2.17-5-.62-1.62-1.11-3.09-1.48-4.4-.36-1.31-.54-2.28-.54-2.9Z"/>
          <path class="cls-1" d="M88.21,40.41c-1.31.9-2.44,1.7-3.39,2.41-.95.71-1.87,1.3-2.77,1.79-.9.48-1.86.85-2.87,1.09-1.02.24-2.27.36-3.75.36-3.21,0-5.59-.85-7.15-2.56-1.55-1.71-2.33-4.25-2.33-7.64,0-1.31.17-2.68.52-4.09.34-1.42.85-2.82,1.53-4.22.67-1.4,1.48-2.73,2.41-3.99.93-1.26,1.98-2.37,3.16-3.34,1.17-.97,2.42-1.74,3.75-2.3,1.33-.57,2.74-.85,4.22-.85,2.49.24,4.44.85,5.85,1.84,1.42.98,2.49,2.24,3.21,3.78.72,1.54,1.23,3.25,1.5,5.13.28,1.88.49,3.82.65,5.83.16,2,.35,4.01.6,6.01.24,2,.74,3.85,1.5,5.54-.45,1.14-.87,1.94-1.27,2.41-.4.47-.84.54-1.32.23-.48-.31-1.04-1.07-1.68-2.28-.64-1.21-1.42-2.92-2.36-5.13ZM70.34,35.96c0,1.97.37,3.41,1.11,4.32.74.92,2.06,1.37,3.96,1.37,1.42,0,2.77-.25,4.07-.75,1.29-.5,2.43-1.19,3.39-2.07.97-.88,1.74-1.94,2.33-3.19s.88-2.62.88-4.14c0-.62.02-1.49.05-2.62.03-1.12-.04-2.23-.21-3.34-.17-1.1-.5-2.06-.98-2.87-.48-.81-1.21-1.22-2.17-1.22-1.8,0-3.45.46-4.97,1.37-1.52.92-2.83,2.08-3.94,3.5-1.11,1.42-1.97,2.98-2.59,4.69-.62,1.71-.93,3.36-.93,4.95Z"/>
          <path class="cls-1" d="M99.41,8.25c.66.28,1.21.73,1.66,1.35.45.62.65,1.18.6,1.68-.05.5-.44.85-1.17,1.04-.72.19-1.93,0-3.62-.6,0-.93.18-1.74.54-2.43.36-.69,1.03-1.04,1.99-1.04ZM98.69,27.67c0-.21,0-.54.03-1.01.02-.47.03-.96.05-1.48.02-.52.03-1.02.05-1.5.02-.48.03-.83.03-1.04.38-.55.87-1,1.48-1.35.6-.34,1.22-.62,1.84-.83.1,1.86.4,3.85.88,5.96.48,2.11,1,4.22,1.55,6.34.55,2.12,1.04,4.22,1.48,6.29.43,2.07.65,4.01.65,5.8,0,1.55-.79,2.33-2.38,2.33-.97,0-1.78-.4-2.43-1.19-.66-.79-1.18-1.8-1.58-3.03-.4-1.23-.72-2.59-.96-4.09-.24-1.5-.41-2.98-.49-4.43-.09-1.45-.14-2.78-.16-3.99-.02-1.21-.03-2.14-.03-2.8Z"/>
          <path class="cls-1" d="M107.14,29.64c0-.9.22-1.54.67-1.94.45-.4,1.17-.6,2.18-.6h.52c.1.55.22,1.19.36,1.92.14.73.34,1.47.62,2.23.28.76.6,1.46.98,2.1.38.64.85,1.15,1.4,1.53.03-1.21.34-2.37.91-3.5.57-1.12,1.28-2.12,2.12-3,.85-.88,1.78-1.62,2.8-2.23,1.02-.6,2.03-1.01,3.03-1.22h1.14c1.66,0,3.07.37,4.25,1.11,1.17.74,2.15,1.71,2.93,2.9.78,1.19,1.37,2.55,1.79,4.07.41,1.52.73,3.06.96,4.64.22,1.57.36,3.09.41,4.56.05,1.47.08,2.72.08,3.75h-3.78c-.21-2.07-.47-4.06-.78-5.96-.1-.76-.24-1.56-.42-2.41-.17-.85-.36-1.64-.57-2.38-.21-.74-.43-1.43-.67-2.07-.24-.64-.52-1.18-.83-1.63-.14-.14-.32-.33-.54-.57-.22-.24-.46-.48-.7-.73-.24-.24-.47-.45-.67-.62-.21-.17-.33-.26-.36-.26-1.04-.28-1.93-.08-2.69.6-.76.67-1.43,1.58-2.02,2.72-.59,1.14-1.06,2.43-1.42,3.88s-.67,2.84-.91,4.17c-.24,1.33-.41,2.49-.52,3.47-.1.98-.17,1.58-.21,1.79-.86.62-1.67.8-2.43.54-.76-.26-1.48-.8-2.15-1.63-.67-.83-1.28-1.86-1.81-3.11-.54-1.24-1.03-2.56-1.48-3.96-.45-1.4-.85-2.8-1.22-4.22-.36-1.42-.68-2.73-.96-3.94Z"/>
          <path class="cls-1" d="M142.63,39.22c.38,0,.7.09.96.26.26.17.44.39.54.65.1.26.17.55.21.88.03.33.05.65.05.96,0,.73-.08,1.58-.23,2.56-.16.98-.39,2.01-.7,3.08s-.7,2.13-1.17,3.19c-.47,1.05-1.01,1.98-1.63,2.8-.62.81-1.32,1.47-2.1,1.97-.78.5-1.63.75-2.56.75,0-.73.08-1.66.23-2.8.16-1.14.38-2.35.67-3.62.29-1.28.65-2.55,1.06-3.81.42-1.26.86-2.4,1.35-3.42.48-1.02,1-1.85,1.55-2.49.55-.64,1.14-.96,1.76-.96Z"/>
          <path class="cls-1" d="M167.11,14.93c0-.17,0-.47.03-.91.02-.43.03-.88.03-1.35s0-.91.03-1.32c.02-.41.03-.69.03-.83.86-.93,1.58-1.48,2.15-1.66.57-.17,1.03-.08,1.37.28.34.36.6.94.75,1.73.16.79.27,1.69.34,2.69.07,1,.1,2.05.1,3.16s.02,2.13.05,3.08c.03.95.1,1.79.21,2.51s.29,1.21.57,1.45h17.76c.73,0,1.24-.22,1.55-.67.31-.45.49-1.04.54-1.76s.03-1.55-.08-2.49-.2-1.89-.29-2.87c-.09-.98-.12-1.95-.1-2.9.02-.95.17-1.79.47-2.51.29-.73.75-1.31,1.37-1.76.62-.45,1.54-.67,2.74-.67.45.66.73,1.37.83,2.15s.13,1.58.08,2.41c-.05.83-.14,1.65-.26,2.46-.12.81-.18,1.6-.18,2.36,0,2.04.13,4.07.39,6.11.26,2.04.54,4.07.83,6.11.29,2.04.57,4.07.83,6.09.26,2.02.39,4.01.39,5.98.07,2.14-.07,3.67-.41,4.58-.35.91-.78,1.33-1.29,1.24-.52-.09-1.1-.61-1.73-1.58-.64-.97-1.23-2.26-1.76-3.88-.54-1.62-.97-3.53-1.29-5.72-.33-2.19-.46-4.57-.39-7.12h-18.7c.24,2.38.56,4.63.96,6.73.4,2.11.71,3.96.93,5.57s.31,2.88.26,3.83c-.05.95-.41,1.44-1.06,1.48-1,0-1.85-.34-2.54-1.01-.69-.67-1.29-1.6-1.79-2.77-.5-1.17-.91-2.55-1.22-4.12-.31-1.57-.57-3.23-.78-4.97-.21-1.74-.37-3.53-.49-5.36-.12-1.83-.23-3.59-.34-5.28-.1-1.69-.23-3.27-.36-4.74-.14-1.47-.31-2.72-.52-3.75Z"/>
          <path class="cls-1" d="M203.95,8.25c.66.28,1.21.73,1.66,1.35.45.62.65,1.18.6,1.68-.05.5-.44.85-1.17,1.04-.72.19-1.93,0-3.62-.6,0-.93.18-1.74.54-2.43.36-.69,1.03-1.04,1.99-1.04ZM203.22,27.67c0-.21,0-.54.03-1.01.02-.47.03-.96.05-1.48.02-.52.03-1.02.05-1.5.02-.48.03-.83.03-1.04.38-.55.87-1,1.48-1.35.6-.34,1.22-.62,1.84-.83.1,1.86.4,3.85.88,5.96.48,2.11,1,4.22,1.55,6.34.55,2.12,1.04,4.22,1.48,6.29.43,2.07.65,4.01.65,5.8,0,1.55-.79,2.33-2.38,2.33-.97,0-1.78-.4-2.43-1.19-.66-.79-1.18-1.8-1.58-3.03-.4-1.23-.72-2.59-.96-4.09-.24-1.5-.41-2.98-.49-4.43-.09-1.45-.14-2.78-.16-3.99-.02-1.21-.03-2.14-.03-2.8Z"/>
          <path class="cls-1" d="M211.68,25.34c0-.31.02-.63.05-.96.03-.33.1-.62.21-.88s.27-.47.49-.65c.22-.17.54-.26.96-.26.34,0,.73.27,1.17.8.43.54.87,1.21,1.32,2.02.45.81.89,1.7,1.32,2.67.43.97.81,1.86,1.14,2.67.33.81.59,1.51.8,2.1.21.59.33.9.36.93.45-1.21.95-2.52,1.5-3.94.55-1.42,1.23-2.74,2.05-3.96.81-1.23,1.78-2.25,2.9-3.08,1.12-.83,2.49-1.24,4.12-1.24.83,0,1.61.13,2.36.39.74.26,1.4.64,1.97,1.14.57.5,1.03,1.1,1.37,1.79.34.69.52,1.48.52,2.38,0,.76-.3,1.29-.91,1.61-.6.31-1.29.47-2.05.47h-.52l-2.23-2.23c-.07,0-.12-.02-.16-.05-.07,0-.13,0-.18-.03-.05-.02-.11-.03-.18-.03-1.21,0-2.15.34-2.82,1.01-.67.67-1.18,1.5-1.53,2.49-.35.98-.56,2.02-.65,3.11-.09,1.09-.13,2.08-.13,2.98,0,.69.07,1.39.21,2.1.14.71.29,1.4.47,2.07.17.67.33,1.36.47,2.07.14.71.21,1.44.21,2.2,0,1.45-.78,2.18-2.33,2.18-.86,0-1.76-.46-2.69-1.37-.93-.91-1.86-2.08-2.77-3.5-.92-1.42-1.79-2.98-2.62-4.69-.83-1.71-1.55-3.37-2.17-5-.62-1.62-1.11-3.09-1.48-4.4-.36-1.31-.54-2.28-.54-2.9Z"/>
          <path class="cls-1" d="M236.55,32.7c0-1.86.22-3.73.67-5.59.45-1.86,1.17-3.54,2.15-5.02.98-1.48,2.26-2.69,3.83-3.63,1.57-.93,3.48-1.4,5.72-1.4,1.28,0,2.4.23,3.37.7.97.47,1.78,1.08,2.43,1.84.66.76,1.15,1.65,1.48,2.67.33,1.02.49,2.08.49,3.19,0,1.76-.41,3.47-1.22,5.13-.81,1.66-1.9,3.12-3.26,4.38-1.36,1.26-2.93,2.21-4.69,2.85-1.76.64-3.56.79-5.39.44.03,1,.37,1.8,1.01,2.41.64.6,1.41,1.06,2.3,1.37.9.31,1.83.51,2.8.6.97.09,1.83.13,2.59.13s1.54-.07,2.23-.21c.69-.14,1.38-.29,2.07-.47.69-.17,1.39-.33,2.1-.47.71-.14,1.46-.21,2.25-.21.31,0,.62.02.93.05.31.03.6.11.88.23.28.12.5.31.67.57.17.26.26.58.26.96,0,.66-.24,1.2-.73,1.63-.48.43-1.1.8-1.84,1.11-.74.31-1.56.54-2.46.7-.9.16-1.77.28-2.62.36-.85.09-1.62.14-2.33.16-.71.02-1.24.03-1.58.03-2.21,0-4.2-.35-5.96-1.06-1.76-.71-3.25-1.69-4.45-2.95-1.21-1.26-2.13-2.78-2.77-4.56-.64-1.78-.96-3.75-.96-5.93ZM242.04,29.33c0,1.21.16,2.09.49,2.64.33.55,1.13.83,2.41.83.9,0,1.78-.16,2.64-.49.86-.33,1.65-.79,2.36-1.37.71-.59,1.27-1.28,1.68-2.07.41-.79.62-1.66.62-2.59,0-.52-.04-1.05-.13-1.61-.09-.55-.27-1.06-.54-1.53-.28-.47-.63-.85-1.06-1.14-.43-.29-.99-.44-1.68-.44-1.04,0-1.98.23-2.82.7-.85.47-1.56,1.07-2.15,1.81-.59.74-1.04,1.57-1.35,2.49-.31.92-.47,1.84-.47,2.77Z"/>
          <path class="cls-1" d="M270.96,39.22c.38,0,.7.09.96.26.26.17.44.39.54.65.1.26.17.55.21.88.03.33.05.65.05.96,0,.73-.08,1.58-.23,2.56-.16.98-.39,2.01-.7,3.08s-.7,2.13-1.17,3.19c-.47,1.05-1.01,1.98-1.63,2.8-.62.81-1.32,1.47-2.1,1.97-.78.5-1.63.75-2.56.75,0-.73.08-1.66.23-2.8.16-1.14.38-2.35.67-3.62.29-1.28.65-2.55,1.06-3.81.42-1.26.86-2.4,1.35-3.42.48-1.02,1-1.85,1.55-2.49.55-.64,1.14-.96,1.76-.96Z"/>
          <path class="cls-1" d="M297.3,8.46c.41-2.11,1.17-3.77,2.28-5,1.1-1.23,2.37-2.06,3.81-2.51,1.43-.45,2.97-.56,4.61-.34,1.64.23,3.19.73,4.66,1.53,1.47.79,2.75,1.82,3.86,3.08,1.1,1.26,1.88,2.69,2.33,4.3.45,1.61.45,3.34,0,5.2-.45,1.86-1.47,3.78-3.06,5.75,1.24.45,2.4.9,3.47,1.35,1.07.45,1.98,1,2.72,1.66.74.66,1.32,1.45,1.74,2.38.41.93.62,2.09.62,3.47,0,1.14-.21,2.35-.62,3.62-.42,1.28-.99,2.54-1.74,3.78-.74,1.24-1.61,2.43-2.59,3.55-.98,1.12-2.05,2.12-3.18,2.98-1.14.86-2.3,1.55-3.5,2.05-1.19.5-2.36.75-3.5.75-.76,0-1.5-.48-2.23-1.45-.73-.97-1.43-2.24-2.12-3.83-.69-1.59-1.36-3.42-2.02-5.49-.66-2.07-1.26-4.22-1.81-6.45-.55-2.23-1.05-4.44-1.5-6.63-.45-2.19-.84-4.22-1.17-6.09-.33-1.86-.59-3.48-.78-4.84-.19-1.36-.29-2.3-.29-2.82ZM303.2,13.27c0,.62-.02,1.39-.05,2.31-.04.92-.04,1.86,0,2.82.03.97.14,1.93.31,2.9.17.97.48,1.8.93,2.49,1.69-.31,3.17-.9,4.43-1.76,1.26-.86,2.28-1.87,3.06-3.03.78-1.16,1.34-2.39,1.68-3.7.34-1.31.47-2.59.39-3.83-.09-1.24-.38-2.38-.88-3.42-.5-1.04-1.2-1.84-2.1-2.41-.9-.57-1.99-.85-3.26-.85s-2.75.41-4.4,1.24c0,.28,0,.76-.03,1.45-.02.69-.04,1.42-.05,2.18-.02.76-.03,1.48-.03,2.18v1.45ZM306.51,30.88c0,.59.14,1.36.42,2.33.28.97.63,1.93,1.06,2.9.43.97.91,1.86,1.42,2.67.52.81,1.07,1.36,1.66,1.63.48.28,1.05.25,1.71-.08.66-.33,1.32-.85,1.99-1.55.67-.71,1.32-1.52,1.94-2.43.62-.91,1.18-1.82,1.68-2.72.5-.9.9-1.73,1.19-2.51s.44-1.37.44-1.79c0-.9-.12-1.63-.36-2.2-.24-.57-.6-1.03-1.06-1.37-.47-.34-1.02-.59-1.66-.73-.64-.14-1.34-.21-2.1-.21-.86,0-1.78.14-2.75.41-.97.28-1.86.67-2.67,1.19-.81.52-1.5,1.16-2.07,1.92-.57.76-.85,1.61-.85,2.54Z"/>
          <path class="cls-1" d="M326.05,25.96c0-.21,0-.58.03-1.11.02-.54.03-1.1.03-1.68s0-1.13.03-1.63c.02-.5.03-.85.03-1.06.24-.41.53-.82.85-1.22.33-.4.67-.67,1.04-.83.36-.16.76-.18,1.19-.08s.87.45,1.32,1.04v1.09c-.04.17-.1.58-.21,1.22-.1.64-.23,1.34-.36,2.1-.14.76-.27,1.46-.39,2.1-.12.64-.18,1.04-.18,1.22,0,.66.07,1.48.21,2.46.14.98.34,2.01.6,3.08.26,1.07.59,2.14.98,3.21.4,1.07.87,2.03,1.42,2.87.55.85,1.17,1.55,1.84,2.1.67.55,1.46.83,2.36.83,1.1,0,2.08-.29,2.93-.88.85-.59,1.58-1.35,2.2-2.28.62-.93,1.13-1.99,1.53-3.16.4-1.17.72-2.36.96-3.55.24-1.19.41-2.34.52-3.44.1-1.1.16-2.07.16-2.9s-.06-1.61-.18-2.36c-.12-.74-.27-1.48-.44-2.2-.17-.72-.32-1.44-.44-2.15-.12-.71-.18-1.42-.18-2.15,0-.66.23-1.12.7-1.4.47-.28.99-.41,1.58-.41.72,0,1.31.22,1.76.65.45.43.8.98,1.06,1.63.26.66.43,1.41.52,2.25.08.85.13,1.68.13,2.51s-.02,1.61-.05,2.36c-.03.74-.05,1.34-.05,1.79,0,1.17-.09,2.5-.26,3.99-.17,1.49-.47,3.01-.91,4.58-.43,1.57-.97,3.12-1.61,4.64-.64,1.52-1.42,2.87-2.33,4.07-.92,1.19-1.97,2.15-3.16,2.87s-2.53,1.09-4.01,1.09-2.92-.37-4.09-1.11c-1.17-.74-2.17-1.73-2.98-2.95-.81-1.23-1.49-2.62-2.05-4.17-.55-1.55-.98-3.11-1.27-4.66-.29-1.55-.5-3.06-.62-4.53-.12-1.47-.18-2.74-.18-3.81Z"/>
          <path class="cls-1" d="M353.98,8.25c.66.28,1.21.73,1.66,1.35.45.62.65,1.18.6,1.68-.05.5-.44.85-1.17,1.04-.72.19-1.93,0-3.62-.6,0-.93.18-1.74.54-2.43.36-.69,1.03-1.04,1.99-1.04ZM353.26,27.67c0-.21,0-.54.03-1.01.02-.47.03-.96.05-1.48.02-.52.03-1.02.05-1.5.02-.48.03-.83.03-1.04.38-.55.87-1,1.48-1.35.6-.34,1.22-.62,1.84-.83.1,1.86.4,3.85.88,5.96.48,2.11,1,4.22,1.55,6.34.55,2.12,1.04,4.22,1.48,6.29.43,2.07.65,4.01.65,5.8,0,1.55-.79,2.33-2.38,2.33-.97,0-1.78-.4-2.43-1.19-.66-.79-1.18-1.8-1.58-3.03-.4-1.23-.72-2.59-.96-4.09-.24-1.5-.41-2.98-.49-4.43-.09-1.45-.14-2.78-.16-3.99-.02-1.21-.03-2.14-.03-2.8Z"/>
          <path class="cls-1" d="M362.96,17.78c0-1-.07-1.98-.21-2.93-.14-.95-.17-1.79-.1-2.54.07-.74.34-1.34.8-1.79.47-.45,1.32-.67,2.56-.67.38.79.75,2,1.11,3.63.36,1.62.72,3.49,1.06,5.59.34,2.11.67,4.39.98,6.86.31,2.47.59,4.95.85,7.43.26,2.49.48,4.93.67,7.33.19,2.4.34,4.58.44,6.55-1.14.76-2.05.81-2.75.16-.69-.66-1.26-1.77-1.71-3.34-.45-1.57-.79-3.49-1.04-5.75-.24-2.26-.47-4.61-.7-7.04s-.49-4.83-.8-7.2c-.31-2.36-.71-4.46-1.19-6.29Z"/>
          <path class="cls-1" d="M371.1,40.98c0-2,.5-3.78,1.5-5.33,1-1.55,2.24-2.91,3.73-4.07,1.48-1.16,3.09-2.14,4.82-2.95,1.73-.81,3.33-1.48,4.82-2.02,1.48-.53,2.73-.97,3.73-1.29,1-.33,1.5-.6,1.5-.8,0-1.21-.06-2.39-.18-3.55-.12-1.16-.25-2.32-.39-3.5-.14-1.17-.27-2.34-.39-3.5-.12-1.16-.18-2.3-.18-3.44v-3.37c1.42-.52,2.43-.47,3.03.16.6.62.7,1.69.29,3.21.14.76.33,1.95.57,3.57.24,1.62.51,3.45.8,5.49.29,2.04.6,4.18.93,6.42.33,2.25.64,4.39.93,6.45.29,2.05.54,3.88.75,5.49s.36,2.81.47,3.6c.03.17.07.51.1,1.01.03.5.06,1.04.08,1.61s.03,1.1.05,1.58c.02.48.03.83.03,1.04-1.31,0-2.2-.05-2.67-.16-.47-.1-.76-.31-.88-.62-.12-.31-.18-.76-.18-1.35s-.17-1.4-.52-2.43c-1.28,1-2.49,1.83-3.62,2.49-1.14.66-2.28,1.18-3.42,1.58-1.14.4-2.29.67-3.44.83-1.16.16-2.39.23-3.7.23-1.11,0-2.17-.1-3.19-.28-1.02-.19-1.92-.53-2.72-1.01-.79-.48-1.43-1.14-1.92-1.97s-.72-1.86-.72-3.11ZM375.61,39.9c0,.55.12,1,.36,1.35.24.35.55.64.93.88.38.24.79.41,1.22.49.43.09.85.13,1.27.13,1.21,0,2.51-.23,3.91-.7,1.4-.47,2.69-1.12,3.88-1.97,1.19-.85,2.17-1.86,2.95-3.03.78-1.17,1.17-2.45,1.17-3.83,0-1.07-.19-1.81-.57-2.23-.38-.41-1.11-.62-2.18-.62s-2.39.26-3.86.78-2.88,1.21-4.25,2.07c-1.37.86-2.51,1.87-3.44,3.03-.93,1.16-1.4,2.37-1.4,3.65Z"/>
        </g>
      </g>
      <g>
        <path class="cls-2" d="M106.04,143.47h19.86v12.88h-34.89v-85.03h15.03v72.16Z"/>
        <path class="cls-2" d="M172.04,76.76c3.91,4.26,5.89,10.24,5.89,17.93v38.28c0,7.73-1.98,13.71-5.93,17.97s-9.58,6.42-16.83,6.42-12.83-2.15-16.7-6.42-5.8-10.24-5.8-17.97v-38.28c0-7.69,1.93-13.67,5.84-17.93s9.45-6.37,16.66-6.37,12.96,2.11,16.88,6.37ZM162.72,92.18c0-5.27-2.86-8.75-7.29-8.75s-7.56,3.47-7.56,8.75v43.37c0,5.27,3.03,8.75,7.47,8.75s7.38-3.47,7.38-8.75v-43.37Z"/>
        <path class="cls-2" d="M235.36,119.83v16.26c0,6.77-1.89,12-5.71,15.69-3.82,3.74-9.23,5.58-16.26,5.58s-12.74-2.15-16.66-6.42-5.84-10.24-5.84-17.97v-38.28c0-7.69,1.93-13.67,5.84-17.93s9.45-6.37,16.66-6.37,12.44,1.85,16.26,5.49,5.71,8.83,5.71,15.56v14.85h-14.77v-14.19c0-5.27-2.68-8.66-7.03-8.66-2.15,0-3.96.79-5.36,2.37-1.41,1.63-2.11,3.69-2.11,6.28v43.46c0,5.27,3.03,8.75,7.38,8.75s7.12-3.47,7.12-8.75v-15.73h14.77Z"/>
        <path class="cls-2" d="M280.89,156.34l-2.64-17.53-17.89-.18-2.72,17.71h-15.47l16.3-85.03h22.15l16,85.03h-15.73ZM262.34,125.93h13.93l-3.87-25.84-2.59-15.29h-1.01l-2.5,15.29-3.96,25.84Z"/>
        <path class="cls-2" d="M320.13,143.47h19.86v12.88h-34.89v-85.03h15.03v72.16Z"/>
      </g>
    </g>
  </g>
</svg>