<?xml version="1.0" encoding="UTF-8"?>
<svg id="Layer_2" data-name="Layer 2" xmlns="http://www.w3.org/2000/svg" viewBox="0 0 384.21 205.92">
  <defs>
    <style>
      .cls-1 {
        fill: #1c1c1c;
      }

      .cls-2 {
        fill: #c6ea2f;
      }
    </style>
  </defs>
  <g id="Layer_1-2" data-name="Layer 1">
    <g>
      <polygon class="cls-2" points="84.4 75.97 43.98 169.68 24 203.67 77.97 202.06 74.76 177.72 65.57 176.8 57.07 172.89 54.78 160.03 67.87 156.36 75.91 157.96 96.81 158.19 109.44 167.38 112.88 175.42 162.72 176.11 186.38 129.26 185.46 117.54 165.25 105.37 128.96 144.64 124.14 79.41 84.4 75.97"/>
      <rect class="cls-2" x="325.41" y="182.09" width="6.38" height="14.66"/>
      <rect class="cls-2" x="208.6" y="179.06" width="24.11" height="7.1"/>
      <rect class="cls-2" x="116.86" y="181.75" width="6.16" height="15.2"/>
      <g>
        <path class="cls-1" d="M366.81,201.3c4.45,1.22,22.24-3.24,16.15,4.62H1.13c-1.6-.75-1.35-4.33-.19-4.35l21.43-.36,16.38-28.74c-12.54-5.31-30.54-10.83-35.06-24.37-2.09-6.25,1.34-12.5,4.92-17.36,3.24-4.39,7.67-7.06,11.55-10.76,10.48-9.99,25.45-19.43,36.41-29.08,4.88-4.29,10.22-7.23,15.31-10.92s8.82-7.29,15.94-6.19,14.09,2.22,20.84,2.9c-1.57-2.86-3.93-4.56-3.23-8.16,16.83,6.83,4.61-25.18,34.71-24.47.87-1.42,2.69-5.29,1.42-6.61-2.02-2.09-3.71-3.04-3.79-5.64-.1-3.61,3.09-3.54,4.99-5.37,11.16-10.79,10.96-21.33,34.11-25.81,6.17-1.19,11.42-.49,17.26.7,9.43,1.91,15.65,6.77,20.37,14.75,10.5,17.75,6.56,24.92,3.82,43.91.65,3.27,5.67,6.05,4.53,10.16-1.22,4.38-10.59-1.02-13.99-1.87-1.96,3.36-4.86,6.17-6.25,9.78-2.12,5.5-4.04,10.78-8.59,14.77-6.15,5.39-13.04,9.71-19.95,13.83,13.86,10.93,8.88,6.44,18.38,18.07l11.37,13.93,18.28,17.66c1.42,1.37,5.37,3.31,7.31,3.73,5.29,1.16,11.17.83,16.52,1.48,7.92.96,15.6.21,23.45.02,1.39-.03,2.69,1.02,4.04.89l26.26-2.42c10.97,3.4,21.19,7.4,30.44,14.04l34.16.04c1.62,0,2.51,1.51,2.51,2.9v24.3ZM167.5,35.91c3.73,1.86,6.55,3.37,9.99,4.24.78-1.22.41-2.55,1.78-3.3,1.05,1.5.02,2.63-.01,3.68,11.05,6.61,24.61,10.15,34.97,18.39,1.24-1.89,1.85-3.66,1.82-5.6-.93-.17-1.34-.19-1.52-.49-.36-.61.68-1.34.84-1.78,3.2-8.62,3.36-18.12-.82-26.81-1.1,3.35.89,6.29-1.49,9l-.64-10.79c-.42-7.13-6-12.74-12.54-15.8,3.15,4.34,4.85,9.3,3.65,14.07-1.8-12.17-5.8-15.2-17.79-16.96,9.39,4.32,10.25,12.97,8.67,21.95-.36-4.93-.06-8.9-2.18-12.95-3.19-6.1-8.39-9.15-15.43-8.21-11.09,1.5-20.11,8.41-25.48,18.68,2.14.64,3.92.62,5.25,2.08-1.92,1.77-5.92-1.29-7.78.34-.45.39-1.29,1.57-1.24,2.55,1.72,1.85,11.22,2.83,8.53,1.79.71.27.94,1.21,1.61,1.55,2.68,1.35,5.42,2.13,7.93,3.24,1.37-1.07,1.7-3.41,3.41-4.07,3.06-1.17,6.76.75,8.83,2.93-2.94.15-5.03-2.77-7.43-1.51-1.41.74-2.41,2.39-2.93,3.76ZM213.93,60.88c-9.79-6.53-19.88-11.91-30.49-16.22l-14.01-5.68c-5.48-2.22-23.76-11.01-28.52-7.2,11.31,1.41,22.2,5.78,31.83,12.62,8.17,5.8,16.61,10.15,25.71,14.28,6.75,3.05,12.55,6.79,20.69,9.2-1.81-1.46-2.44-5.16-5.2-7ZM155.63,39.97c-3.18-1.68-5.97-2.65-8.66-2.41-1.18.1-1.57,3.03-1.17,3.96,3.46-1.59,6.5-1.46,9.83-1.55ZM198.82,74.58c-1.99.31-4.04,1.41-4.87-.67-.35-.87-.2-1.94-.77-2.1l-2.49-.69c1.69-1.35,3.88-1.57,5.68-1.06,2.26.64,3.81,1.63,3.7,4.67,1.2-1.23,2.28-2.41,3.13-4.43l-9.33-3.5c4.65-4.55,12.11,3.84,10.96-.51-12.39-6.56-21.42-10.18-33.51-17.85-5.78,1.65-12.68,9.68-17,6.85-1.92-1.26-.19-8-4.21-8.76-1.58-.3-3.89.44-4.87,2.28-2.54,4.75-2.16,10.73.16,15.46,1.53.52,2.82.59,3.76,1.26.22,2.08-1.8,2.38-2.49,3.52-3.36,5.58-6.77,10.79-12.46,14.67-2.03,10.13-2.77,20.62-.13,30.8,1.3,5,2.19,9.55,2.13,14.74,7.62-4.18,13.66-9.52,17.22-17-.7-.19-1.52.4-2.23-.58,1.69-3.04,4-4.3,6.33-6.77-5.11-4.97-11.61-23.08-8.85-29.43.73,7.9,14.22,32.26,24.19,27.64,8.78-4.07,27.62-16.56,25.96-28.56ZM57.5,147.36c5.24,2.68,9.8,4.68,14.2,8.42,11.26-19.54,21.84-48.59,24.25-71.04.18-1.7.75-4.89-.67-5.71-2.52-1.46-5.56-.98-8.35-1.27,6.16,12.72-9.04,68.77-27.83,63.7-.56,2.18-2.11,3.86-1.61,5.9ZM121.03,159.4c1.95-16.53,1.11-32.39,1.28-48.32-4.58-.22-7.59,1-12.65-.08,2.95-9.99,7.09-19.27,11.54-28.67l-11.46-1.44c-.49,23.59-11.93,53.87-21.93,75.13,2.96.75,6.04-.7,8.65.63,5.22,2.66,9.98,6.49,14.07,10.6,2.03,2.04,1.28,4.9,3.84,7.22,2.22-4.77,5.98-9.37,6.65-15.09ZM119.79,173.93l26.75-.07c11.31-20.21,19.47-41.34,23.49-63.83.3-1.67-2.51-2.75-3.51-3.13-.67,9.08-1.75,17.71-4.16,27.25-3.58-1.96-4.46-5.23-6.47-8.99-8.13,14.06-18.43,26.09-30.35,37.25-3.14,2.94-3.53,8.25-5.75,11.52ZM161.32,173.16c9.32-15.67,17.16-31.55,22.26-48.91.44-1.5,1.04-3.68.12-4.9-.65-.88-1.8-1.82-3.96-2.7-3.72,19.47-10.59,38.08-20.26,55.69-.3.55-.26,1.68.08,1.55.3-.11,1.24.13,1.75-.73ZM53.26,144.37c1.27-1.57,1.74-3.51,2.01-5.52-2.13.76-4.27,1.65-5.93,3.46,1.2,1.19,2.94,2.49,3.92,2.06ZM97.08,178.81l2.5,11.85c.19.88.95,1.56,1.61,1.45,3.08-.53,1.06-14.21.04-17.37-1.22-3.78-4.78-5.92-5.38-10.39,3.81,2.52,7.5,5.77,8.73,9.9l2.8,9.39c.27.91,1.13,1.7,1.96,1.4,3.08-1.12,1.01-12.25-1.9-15.8-3.08-3.76-8.02-7.99-12.8-9.24-4.25-1.12-9.13.17-13.36.28-5.57.14-9.84-1.39-15.1-2.08-4.98-.65-9.81,7.02-8.78,11.19,11.54,4.47,6.25,8.48,18.33,5.41,4.91,1.67,7.22,15.37,9.98,14.73,1.18-.27,1.18-1.72.91-2.7l-4.67-17.21c5.84,5.72,7.44,13.66,9.35,21.09.34,1.31,2.93,3.3,3.23,1.72.91-4.79-.46-9.91-1.35-14.53-.76-3.98-4.51-6.41-3.59-11.26,2.8,3.83,6.49,7.44,7.49,12.18ZM189.04,173.78c-5.32-4.49-10.46-8.77-16.74-11.73-2.29,4.68-4.23,8.42-7.1,12.12l23.84-.39ZM304.68,180.56c1.81-4.83-13.18-8.31-12.87-13.15,5.54,2.59,10.31,3.24,15.58,4.15s10.18,3.63,16.36,2.1c-27.29-14.01-24.28-9.21-54.55-7.62-1.34,1.83-2.75,5.67-1.7,7.22,1.82,2.68,6.22-.75,8.24-.26,4.07,1,7.83,3.36,12.53,2.84,5.82-.65,14.87,8.83,16.42,4.72ZM61.32,176.56c-3.53,3.32-13.16-2.05-18.6-2.64,9,8.35,19.27,14.53,30.34,20.95l-.06-15.36c-4.43.81-8.02-.41-11.69-2.95ZM296.17,182.85c-6.38-1.83-47.97.18-56.77-1.84l53.68-1.2-15.51-1.72-40.56-.42c-.56,1.98-.34,3.28-.32,4.96.04,3.4-2.41,5.5-5.77,5.5l-20.49-.04c-3.31,0-5.85-1.99-5.93-5.38-.04-1.63.02-3.04-.18-4.9l-40.03-.15-50.07.23c-.62,0-.05,2.68.35,2.39,3.9-2.81,7.16-.43,10.93-.37l75.47,1.15-68.2,1.05c-1.81.03-3.2.29-4.99-.04,3.83,4.19,4.14,10.35.04,14.54h193.05c-4.12-4.31-3.61-10.3-.25-14.45-23.61-1.61-6.14,5.93-24.46.68ZM335.24,179.85c7.67,1.14,15.93.14,22.89.29.65.01.65-2.44-.58-2.44l-49.05.15c-.13.86-.43,2,0,2.11,1.33.34,12.89.66,14.24.14,4.6-1.77,7.47-1,12.5-.25ZM213.66,184.12c1.25-1.37.81-3.74.08-4.13-.58-.31-2.29-.48-2.92.12-1.45,1.39,1.7,5.25,2.83,4.01ZM215.77,179.81v4.87h9.96v-4.87h-9.96ZM230.28,180.13c-.73-.52-2.69-.63-2.97.14s-.85,3.08.06,3.93,1.93-.33,2.42-.92c.62-.74,1.32-2.56.48-3.16ZM358.51,196.58l-.1-14.26c-7.35-.63-14.07-.71-21.2.16,3.26,4.61,2.93,9.5.03,14.07l21.27.03ZM122.06,195.47c-.51-4.43.33-8-.38-11.94-.18-1.01-3.02-.56-3.89-.18l-.05,12.54c1.57.27,2.88.56,4.32-.42ZM329.37,183.27c-1.28-.02-2.29-.29-2.99.43-.59.6-.1,1.35.4,1.66.1.06,4.53,1.27,4.42-.57-.05-.84.05-1.49-1.82-1.51ZM115.78,194.39l.32-10.83c-1.76,1.62-3.14,3.33-2.98,6.05.09,1.58.45,3.87,2.66,4.78ZM123.53,194.73c3.17-1.33,3.44-4.11,3.08-6.47-.23-1.48-1.1-3.71-3.07-4.72v11.19ZM324.59,194.5c.61-3.93.59-7.18,0-10.52-3.43,2.9-3.69,7.87,0,10.52ZM332.68,194.51c4.27-2,3.41-8.05-.03-10.98l.03,10.98ZM55.46,201.24c-7.96-4.54-13.67-9.21-19.87-14.57-2.97,5.06-5.53,9.41-7.88,14.54l27.75.03ZM326.31,194.96c.75,1.64,4.08,1.63,4.69.52l.43-8.42c-2.07-.41-3.86-.68-5.59.35.6,1.51,1.82,1.5,2.44,2.27-.69.68-2.03.52-2.06.93-.04.68-.11,1.46.34,1.45.62,0,1.17.33,2,.4,1.86-.26,1.59,1.56-.03,1.43-1.03-.2-2.69,0-2.2,1.07ZM95.03,196.38c6.04.58,11.24.31,17.35.06-4.66-3.46-1.8-7.24-5.01-8.21s.36,5.19-4.05,7.28c-1.53.73-3.37.1-5.04-1.07l-3.25,1.94ZM92.75,196.36c-1.62-.86-3.1-1.37-4.13-3.17-2.18.42-4.18.45-6.24-1.02-.56,1.4-.56,2.7-.06,4.42,3.56.02,6.66.33,10.43-.23ZM82.04,198.25v2.87h276.45v-2.87H82.04Z"/>
        <path class="cls-1" d="M184.92,90.08c-4.35,4.92-10.14,4.53-14.14.66-2.69-2.6-4.27-5.17-5.18-9.03-.16-.69-1.79-1.2-1.68-1.74.19-.98,1.3-1.34,2.73-1.73,1.88.22,1.53,1.58-.97,1.72,6.06,3.51,11.72,7.18,19.24,10.13ZM180.23,89.8c-5.16-1.44-8.04-3.99-11.77-5.86.98,5.15,11.57,10.69,11.77,5.86Z"/>
        <path class="cls-1" d="M170.28,54.7c11.91-3.7,20.15,10.59,14.42,7.49s-4.75-5.69-14.42-7.49Z"/>
        <path class="cls-1" d="M180.18,62.94c.29.73-2.94,3.47-4.51,3.09-1.3-.31-1.84-1.82-1.69-3.51-1.34-1.26-3.51.27-4.99-2.05,2.55-1.32,10.09-.3,11.18,2.47Z"/>
        <path class="cls-1" d="M179.34,80.94c2.48.34,2.89,1.51,3.86,1.73,5.39,1.24,2.37-7.56,5.8-12.08-1.32,6.65.39,14.27-5.94,14.28-2.03,0-4.04-1.15-3.71-3.93Z"/>
        <path class="cls-1" d="M149.27,60.03c-1.59.21-1.21-1.24-1.39-2.26-.82-1.3-.88-2.59.14-3.42.83-.68,1.86-1.76,3.37-.16-1.48,1.63-1.85,2.8-2.11,5.83Z"/>
        <path class="cls-1" d="M172.73,95.73c-1.92.88-3.79-.67-3.72-2.44,1.89.69,2.31,1.72,3.72,2.44Z"/>
        <circle class="cls-1" cx="350.92" cy="189.39" r="3.46"/>
      </g>
    </g>
  </g>
</svg>