<?xml version="1.0" encoding="UTF-8"?>
<svg id="Layer_2" data-name="Layer 2" xmlns="http://www.w3.org/2000/svg" viewBox="0 0 519.31 184.22">
  <defs>
    <style>
      .cls-1 {
        fill: #c6ea2f;
      }

      .cls-2 {
        fill: #1e1818;
      }
    </style>
  </defs>
  <g id="Layer_1-2" data-name="Layer 1">
    <g>
      <path class="cls-2" d="M332.01,36.52c-.06.76-1.15.84-1.32.09l-8.26-33.1c-.3-1.57-1.68-2.71-3.28-2.71h-18.31c-1.83,0-3.32,1.47-3.34,3.29l-1.47,75.24c-.03,1.87,1.48,3.4,3.34,3.4h18.85c.59,0,1.07-.48,1.07-1.07v-38.27c0-1.2,1.66-1.49,2.08-.37l14.43,39.02c.16.42.56.7,1,.7h12.76c1.81,0,3.3-1.45,3.34-3.26l2.17-70.84c.05-2.16-1.92-3.8-4.03-3.36l-15.19,3.18c-.95.2-1.65,1-1.73,1.96l-2.12,26.09Z"/>
      <path class="cls-2" d="M0,76.08c0,2.31,1.85,4.18,4.16,4.22l26.68.4,13.79-.41c2.08-.06,3.89-1.43,4.53-3.41l3.8-11.93c.35-1.11.3-2.32-.16-3.39l-6.14-14.54c-.61-1.46-.77-3.06-.44-4.61l3.7-17.55c.22-1.03.22-2.1.01-3.13l-2.69-13.3c-.04-.22-.19-.41-.4-.5L29.68.06c-.09-.04-.2-.06-.3-.06L4.19.17C1.87.19,0,2.07,0,4.39v71.69ZM23.42,48.88l.73-.15c3.42,0,6.19-1.12,6.19,2.3v9.27c0,3.04-2.19,5.56-5.07,6.09-1.43.26-2.75-.85-2.75-2.31v-10.8c0-.9-.17-4.13.91-4.41ZM31.76,36.23c0,3.81-3.09,6.9-6.9,6.9h0c-1.3,0-2.34-1.05-2.34-2.34v-20.04c0-1.3,1.05-2.35,2.35-2.35h0c3.81,0,6.9,3.09,6.9,6.9v10.94Z"/>
      <path class="cls-2" d="M168.55,88.65l-19.22.03c-1.64-.38-3.29.55-3.82,2.15l-4.48,16.59c-1.17,3.53-6.38,2.65-6.33-1.06l.16-14.41c.03-2.05-1.83-3.61-3.85-3.23l-20.74-.06c-1.71.32-2.86,1.92-2.62,3.64l8.15,55.88c.05.35.04.7-.02,1.04l-7.37,20.97c-.4,2.15,1.39,4.07,3.56,3.83l18.93-2.13c1.41-.16,2.55-1.21,2.83-2.6l6.86-16.57c.06-.29.15-.57.29-.84l29.84-57.2c.95-1.88-.12-5.55-2.17-6.03Z"/>
      <path class="cls-2" d="M220.79,90.85c-1.23-1.19-2.8-1.96-4.5-2.2h-25.04c-3.39-.47-6.7,1.25-8.27,4.29l-12.6,19.17c-.62,1.21-.93,2.55-.89,3.91l1.5,43.32c.1,3.38,2.3,6.34,5.51,7.41l21.76,7.21c1.74.58,3.62.54,5.34-.1l16.31-6.08c2.34-.87,4.14-2.78,4.88-5.17l6.31-12.08c.21-.7.33-1.42.35-2.15l1.22-38.84c.06-2.25-.82-4.42-2.43-5.99l-9.47-12.7ZM204.09,150.06c-.05,1.22-.67,2.34-1.69,3.02-2.57,1.71-5.99-.19-5.9-3.27l1.21-30.43c.07-2.29,2.14-4.01,4.4-3.64l.39.06c1.89.31,3.26,1.98,3.19,3.89l-1.6,30.37Z"/>
      <path class="cls-2" d="M256.9,16.4l-11.26-10.75c-.81-.78-1.88-1.24-3-1.31l-22.74-1.43c-.37-.02-.75,0-1.11.06l-10.18,1.76c-2.29.4-3.97,2.38-3.97,4.71l-.04,67.5c0,2.63,2.12,4.76,4.75,4.78l36.04.26c1.63.01,3.16-.81,4.05-2.18l8.97-13.82c.52-.8.79-1.74.77-2.69l-.8-43.52c-.02-1.28-.56-2.49-1.48-3.37ZM232.18,64.28c-.05,1.22-.67,2.34-1.69,3.02-2.57,1.71-5.99-.19-5.9-3.27l1.21-30.43c.07-2.29,2.14-4.01,4.4-3.64l.39.06c1.89.31,3.26,1.98,3.19,3.89l-1.6,30.37Z"/>
      <path class="cls-2" d="M353.89,151.79c1.04-2.9,2.15-5.79,3.21-8.59.06-.17.13-.33.19-.5l.09-2.02c-1.45.49-3,.77-4.61.77-4.62,0-9.1-2.15-11.98-5.76-2.73-3.43-3.74-7.88-2.75-12.2,1.61-7.05,4.91-12.15,11.06-17.03.75-.59,1.54-1.1,2.39-1.55,1.62-1.15,3.31-2.18,5.04-3.09l-13.4-11.7c-1.07-.94-2.45-1.45-3.88-1.45l-34.4.12c-1.87.23-3.3,1.8-3.34,3.68l-1.9,78.84c-.05,2.13,1.67,3.89,3.8,3.89h23.8c.92,0,1.81-.33,2.5-.94l23.43-20.45c.27-.7.53-1.38.76-2.01ZM332.05,148.78c-.05,1.22-.67,2.34-1.69,3.02-2.57,1.71-5.99-.19-5.9-3.27l1.21-37.06c.07-2.29,2.14-3.03,4.4-2.67l.39.06c1.89.31,3.26,1,3.19,2.92l-1.6,37Z"/>
      <path class="cls-2" d="M272.6,128.16c-.06.76-1.15.84-1.32.09l-8.26-37.02c-.3-1.57-1.68-2.71-3.28-2.71h-18.31c-1.83,0-3.32,1.47-3.34,3.29l-1.47,79.16c-.03,1.87,1.48,3.4,3.34,3.4h18.85c.59,0,1.07-.48,1.07-1.07v-38.27c0-1.2,1.66-1.49,2.08-.37l14.43,39.02c.16.42.56.7,1,.7h12.76c1.81,0,3.3-1.45,3.34-3.26l2.17-70.84c.05-2.16-1.92-3.8-4.03-3.36l-15.19,3.18c-.95.2-1.65,1-1.73,1.96l-2.12,26.09Z"/>
      <path class="cls-2" d="M101.08,88.65l-36.44-.13c-2.74-.1-5.03,2.06-5.08,4.8l-1.52,76.05c-.06,2.89,2.38,5.2,5.27,4.99l36.22-2.72c2.56-.19,4.53-2.32,4.53-4.89v-5.74c0-2.51-1.9-4.62-4.4-4.87l-8.66-.89c-9.89-1.54-11.29-14.85-1.67-18l8.55-4.22c3.02-1.49,3.67-2.6,1.27-4.97l-11.61-11.45c-2.2-2.17-1.87-5.81.69-7.54l15.41-8.12c1.34-.91,2.15-2.43,2.15-4.05v-3.35c0-2.63-2.08-4.8-4.72-4.9Z"/>
      <path class="cls-2" d="M43.58,130.4c-.24-.51-.2-1.1.1-1.57l9.36-14.68c.99-1.56,1.26-3.47.74-5.24l-5.2-12.39c-.51-1.73-1.83-3.1-3.55-3.66l-11.8-3.85c-1.19-.39-2.47-.46-3.7-.2l-24.94-.15C1.92,89.22,0,91.58,0,94.32v75.72c0,1.83,1.46,3.33,3.28,3.38l31.8.87.35-.03,8.58-1.63c.22-.04.43-.13.62-.26l4.38-3.01c.25-.17.45-.41.57-.69l5.37-12.15c.68-1.55.67-3.32-.05-4.85l-11.33-21.27ZM23.42,115.2l.73-.15c3.42,0,6.19-1.12,6.19,2.3v5.73c0,3.41-2.75,6.17-6.16,6.19-.91,0-1.67-.72-1.67-1.64v-8.03c0-.9-.17-4.13.91-4.41ZM31.76,149.2c0,3.42-2.77,6.19-6.19,6.19h-1.42c-.9,0-1.64-.73-1.64-1.64v-17.92c0-.9.73-1.64,1.64-1.64h1.42c3.42,0,6.19,2.77,6.19,6.19v8.81Z"/>
      <g>
        <path class="cls-1" d="M390.93,150.36c-2.27.76-4.5,1.59-6.69,2.49-.94.39-1.95-.38-1.82-1.39.81-6.31,3.24-12.77,4.67-18.44,1.92-7.57,5.53-16.16-.44-22.83-8.22-9.2-21.69-6.01-30.73.98-.05.04-.1.07-.16.1-.46.22-.91.5-1.37.88-4.16,3.49-6.47,6.8-7.55,12.18-1.44,7.2,9.07,11.1,12.28,4.25,1-2.13,4.56-3.36,6.8-3.08,5.62.7,3.17,6.23,2,9.78-1.8,5.46-3.81,10.85-5.61,16.31-2.91,8.78-9.48,22.06-.68,29.69,7.66,6.63,18.69.6,25.98-3.62,4.38-2.54,10.03-5.91,12.96-10.23,3.03-4.46.69-8.48-1.35-12.93-1.48-3.23-4.64-5.34-8.3-4.12Z"/>
        <path class="cls-1" d="M449.42,137.13c.41-9.44-10.43-18.46-19.1-21.52-2.07-.73-4.07-1.11-6-1.21-9.67-1.74-19.31.7-24.38,8.68-5.29,8.34-3.55,19.22,3.56,27.58,16.12,18.95,44.96,8.38,45.91-13.53ZM430.31,131.71c6.15,5.24-.97,9.36-5.86,9.35-2.49,0-6.18-.61-8.35-2.32-3.12-2.46-2.39-3.89-.6-5.82,4.29-2.78,10.14-5.18,14.81-1.2Z"/>
        <path class="cls-1" d="M452.34,60.17c-8.34,1.51-16.7,8.41-22.03,15.35-4.53,5.9.71,14.47,6.53,9.68.14-.11.28-.23.42-.35,1.46-1.21,3.32-1.86,5.22-1.72,1.79.14,2.74,1.02,2.56,4.83-.2,4.47-3.34,9.64-4.92,13.8-.91,2.38-1.54,4.54-1.73,6.98-.08.97.01,1.95.32,2.87.52,1.57,1.52,2.93,3.5,3.77,18.24,7.8,21.18,32.16,3.62,42.7-4.8,2.88-11.11,6.36-8.43,13.23,2.72,6.96,10.53,5.09,15.8,2.64,13.92-6.46,22.01-21.97,20.86-37.04-.75-9.86-6.06-24.4-15.17-31.18-1.04-.78-1.37-2.2-.79-3.37,1.66-3.38,3.08-6.83,4.26-9.72,2.84-6.93,5.88-15.87,4.15-23.42-1.53-6.69-7.46-10.27-14.17-9.05Z"/>
        <path class="cls-1" d="M499.42,124.68c-.39.19-.8-.22-.61-.61,3.54-7.55,7.08-15.09,10.57-22.66,3.39-7.34,7.33-16.16,1-23.21-6.26-6.96-16.15-5.49-24.07-2.74-6.38,2.21-17.21,5.97-13.88,14.65.56,1.45,1.74,2.97,3.26,3.62,2.26,1.91,5.85,2.52,8.6-.07,3.08-2.9,8.42-2.2,7.43,2.88-.75,3.81-3.56,7.82-5.24,11.28-3.26,6.73-6.82,13.59-9.21,20.68-3.25,9.68,1.73,21.84,13.67,19,6.91-1.64,15.27-4.9,21.57-8.18,4.44-2.32,7.79-6.14,6.55-11.44-2.28-9.82-11.78-6.94-19.63-3.22Z"/>
      </g>
      <path class="cls-2" d="M91.62,4.57c-.7-.13-1.34.4-1.35,1.1l-.81,56.81c-.05,1.26-.67,2.41-1.69,3.11-2.57,1.76-5.99-.19-5.9-3.37l1.11-56.15c.05-2.56-2.08-4.63-4.64-4.5l-16.3.83c-2.36.12-4.2,2.07-4.19,4.43l.19,68.88c0,2.43,1.98,4.4,4.41,4.41l43.34.07c2.04,0,3.81-1.39,4.3-3.37l3.82-15.56c.08-.32.12-.65.13-.98l.83-47.56c.04-2.13-1.46-3.99-3.55-4.41l-19.68-3.73Z"/>
      <path class="cls-2" d="M143.74,78.27l1.3-72.32c.03-1.59-1.19-2.93-2.78-3.04l-19.15-1.35c-1.75-.12-3.24,1.28-3.21,3.04l1.27,72.79c.03,1.57,1.27,2.86,2.84,2.94l16.57.88c1.69.09,3.12-1.24,3.15-2.94Z"/>
      <path class="cls-2" d="M266.22,78.26c.02,2.07,1.72,3.74,3.79,3.73l17.68-.1c2.1-.01,3.78-1.74,3.74-3.84l-1.31-68.55c-.1-3.63-.34-7.93-5.51-7.95l-13.64.22c-1.89.03-3.46,1.45-3.68,3.33l-1.07,73.17Z"/>
      <path class="cls-2" d="M173.74,57.64c-.09,1.7,1.35,3.08,3.05,2.93l20.35-1.89c1.55-.14,2.92,1.01,3.04,2.56l1.37,17.38c.13,1.62-1.15,3-2.77,3.01l-45.12.21c-1.54,0-2.8-1.24-2.81-2.78l-.17-38.67.76-35.05c.04-1.64,1.47-2.9,3.11-2.71l15.69,1.78c1.31.15,2.34,1.2,2.47,2.52l1.04,50.71Z"/>
      <path class="cls-2" d="M418.88,32.73c1.06,0,1.92-.83,1.96-1.89l.24-7.74c.06-2.07-.74-4.08-2.2-5.54-.06-.06-.11-.12-.16-.18l-8.71-10.27c-.08-.1-.16-.2-.25-.28-1.09-1.01-1.75-1.67-3.21-1.91-.11-.02-.22-.03-.34-.03h-26.78c-3.18-.44-6.3,1.17-7.77,4.03l-11.77,16.49c-.05.08-.1.16-.14.24-.54,1.1-.81,2.32-.77,3.55l1.41,55.11c.09,3.18,2.16,5.96,5.18,6.96l26.7,6.77c1.64.54,3.41.51,5.02-.09l15.34-5.72c2.16-.8,3.83-2.54,4.54-4.73.03-.09.06-.18.11-.26l5.06-15.29c.07-.13.12-.26.16-.39.16-.59.26-1.2.27-1.81l.85-16.05c.01-1.08-.86-1.97-1.95-1.97h-27.92c-1.08,0-1.95.87-1.95,1.95v7.99c0,1.08.87,1.95,1.95,1.95h2.21c1.12,0,2.01.94,1.95,2.06l-.17,9.31c0,4.12-5,5.6-6.66,5.31-2.85-.5-6.03-1.15-6.03-4.97l-.28-42.99c.06-2.16,2.01-3.77,4.14-3.42l7.34.06c1.33.21,2.38,1.14,2.8,2.35.27.78,1,1.32,1.83,1.32l18,.08Z"/>
    </g>
  </g>
</svg>