<?xml version="1.0" encoding="UTF-8"?>
<svg id="Layer_2" data-name="Layer 2" xmlns="http://www.w3.org/2000/svg" viewBox="0 0 533.54 188.88">
  <defs>
    <style>
      .cls-1 {
        fill: #c6ea2f;
      }

      .cls-2 {
        fill: #f9f4f4;
      }
    </style>
  </defs>
  <g id="Layer_1-2" data-name="Layer 1">
    <g>
      <path class="cls-2" d="M332.01,36.52c-.06.76-1.15.84-1.32.09l-8.26-33.1c-.3-1.57-1.68-2.71-3.28-2.71h-18.31c-1.83,0-3.32,1.47-3.34,3.29l-1.47,75.24c-.03,1.87,1.48,3.4,3.34,3.4h18.85c.59,0,1.07-.48,1.07-1.07v-38.27c0-1.2,1.66-1.49,2.08-.37l14.43,39.02c.16.42.56.7,1,.7h12.76c1.81,0,3.3-1.45,3.34-3.26l2.17-70.84c.05-2.16-1.92-3.8-4.03-3.36l-15.19,3.18c-.95.2-1.65,1-1.73,1.96l-2.12,26.09Z"/>
      <path class="cls-2" d="M0,76.08c0,2.31,1.85,4.18,4.16,4.22l26.68.4,13.79-.41c2.08-.06,3.89-1.43,4.53-3.41l3.8-11.93c.35-1.11.3-2.32-.16-3.39l-6.14-14.54c-.61-1.46-.77-3.06-.44-4.61l3.7-17.55c.22-1.03.22-2.1.01-3.13l-2.69-13.3c-.04-.22-.19-.41-.4-.5L29.68.06c-.09-.04-.2-.06-.3-.06L4.19.17C1.87.19,0,2.07,0,4.39v71.69ZM23.42,48.88l.73-.15c3.42,0,6.19-1.12,6.19,2.3v9.27c0,3.04-2.19,5.56-5.07,6.09-1.43.26-2.75-.85-2.75-2.31v-10.8c0-.9-.17-4.13.91-4.41ZM31.76,36.23c0,3.81-3.09,6.9-6.9,6.9h0c-1.3,0-2.34-1.05-2.34-2.34v-20.04c0-1.3,1.05-2.35,2.35-2.35h0c3.81,0,6.9,3.09,6.9,6.9v10.94Z"/>
      <path class="cls-2" d="M168.55,88.65l-19.22.03c-1.64-.38-3.29.55-3.82,2.15l-4.48,16.59c-1.17,3.53-6.38,2.65-6.33-1.06l.16-14.41c.03-2.05-1.83-3.61-3.85-3.23l-20.74-.06c-1.71.32-2.86,1.92-2.62,3.64l8.15,55.88c.05.35.04.7-.02,1.04l-7.37,20.97c-.4,2.15,1.39,4.07,3.56,3.83l18.93-2.13c1.41-.16,2.55-1.21,2.83-2.6l6.86-16.57c.06-.29.15-.57.29-.84l29.84-57.2c.95-1.88-.12-5.55-2.17-6.03Z"/>
      <path class="cls-2" d="M220.79,90.85c-1.23-1.19-2.8-1.96-4.5-2.2h-25.04c-3.39-.47-6.7,1.25-8.27,4.29l-12.6,19.17c-.62,1.21-.93,2.55-.89,3.91l1.5,43.32c.1,3.38,2.3,6.34,5.51,7.41l21.76,7.21c1.74.58,3.62.54,5.34-.1l16.31-6.08c2.34-.87,4.14-2.78,4.88-5.17l6.31-12.08c.21-.7.33-1.42.35-2.15l1.22-38.84c.06-2.25-.82-4.42-2.43-5.99l-9.47-12.7ZM204.09,150.06c-.05,1.22-.67,2.34-1.69,3.02-2.57,1.71-5.99-.19-5.9-3.27l1.21-30.43c.07-2.29,2.14-4.01,4.4-3.64l.39.06c1.89.31,3.26,1.98,3.19,3.89l-1.6,30.37Z"/>
      <path class="cls-2" d="M256.9,16.4l-11.26-10.75c-.81-.78-1.88-1.24-3-1.31l-22.74-1.43c-.37-.02-.75,0-1.11.06l-10.18,1.76c-2.29.4-3.97,2.38-3.97,4.71l-.04,67.5c0,2.63,2.12,4.76,4.75,4.78l36.04.26c1.63.01,3.16-.81,4.05-2.18l8.97-13.82c.52-.8.79-1.74.77-2.69l-.8-43.52c-.02-1.28-.56-2.49-1.48-3.37ZM232.18,64.28c-.05,1.22-.67,2.34-1.69,3.02-2.57,1.71-5.99-.19-5.9-3.27l1.21-30.43c.07-2.29,2.14-4.01,4.4-3.64l.39.06c1.89.31,3.26,1.98,3.19,3.89l-1.6,30.37Z"/>
      <path class="cls-2" d="M353.89,151.79c1.04-2.9,2.15-5.79,3.21-8.59.06-.17.13-.33.19-.5l.09-2.02c-1.45.49-3,.77-4.61.77-4.62,0-9.1-2.15-11.98-5.76-2.73-3.43-3.74-7.88-2.75-12.2,1.61-7.05,4.91-12.15,11.06-17.03.75-.59,1.54-1.1,2.39-1.55,1.62-1.15,3.31-2.18,5.04-3.09l-13.4-11.7c-1.07-.94-2.45-1.45-3.88-1.45l-34.4.12c-1.87.23-3.3,1.8-3.34,3.68l-1.9,78.84c-.05,2.13,1.67,3.89,3.8,3.89h23.8c.92,0,1.81-.33,2.5-.94l23.43-20.45c.27-.7.53-1.38.76-2.01ZM332.05,148.78c-.05,1.22-.67,2.34-1.69,3.02-2.57,1.71-5.99-.19-5.9-3.27l1.21-37.06c.07-2.29,2.14-3.03,4.4-2.67l.39.06c1.89.31,3.26,1,3.19,2.92l-1.6,37Z"/>
      <path class="cls-2" d="M272.6,128.16c-.06.76-1.15.84-1.32.09l-8.26-37.02c-.3-1.57-1.68-2.71-3.28-2.71h-18.31c-1.83,0-3.32,1.47-3.34,3.29l-1.47,79.16c-.03,1.87,1.48,3.4,3.34,3.4h18.85c.59,0,1.07-.48,1.07-1.07v-38.27c0-1.2,1.66-1.49,2.08-.37l14.43,39.02c.16.42.56.7,1,.7h12.76c1.81,0,3.3-1.45,3.34-3.26l2.17-70.84c.05-2.16-1.92-3.8-4.03-3.36l-15.19,3.18c-.95.2-1.65,1-1.73,1.96l-2.12,26.09Z"/>
      <path class="cls-2" d="M101.08,88.65l-36.44-.13c-2.74-.1-5.03,2.06-5.08,4.8l-1.52,76.05c-.06,2.89,2.38,5.2,5.27,4.99l36.22-2.72c2.56-.19,4.53-2.32,4.53-4.89v-5.74c0-2.51-1.9-4.62-4.4-4.87l-8.66-.89c-9.89-1.54-11.29-14.85-1.67-18l8.55-4.22c3.02-1.49,3.67-2.6,1.27-4.97l-11.61-11.45c-2.2-2.17-1.87-5.81.69-7.54l15.41-8.12c1.34-.91,2.15-2.43,2.15-4.05v-3.35c0-2.63-2.08-4.8-4.72-4.9Z"/>
      <path class="cls-2" d="M43.58,130.4c-.24-.51-.2-1.1.1-1.57l9.36-14.68c.99-1.56,1.26-3.47.74-5.24l-5.2-12.39c-.51-1.73-1.83-3.1-3.55-3.66l-11.8-3.85c-1.19-.39-2.47-.46-3.7-.2l-24.94-.15C1.92,89.22,0,91.58,0,94.32v75.72c0,1.83,1.46,3.33,3.28,3.38l31.8.87.35-.03,8.58-1.63c.22-.04.43-.13.62-.26l4.38-3.01c.25-.17.45-.41.57-.69l5.37-12.15c.68-1.55.67-3.32-.05-4.85l-11.33-21.27ZM23.42,115.2l.73-.15c3.42,0,6.19-1.12,6.19,2.3v5.73c0,3.41-2.75,6.17-6.16,6.19-.91,0-1.67-.72-1.67-1.64v-8.03c0-.9-.17-4.13.91-4.41ZM31.76,149.2c0,3.42-2.77,6.19-6.19,6.19h-1.42c-.9,0-1.64-.73-1.64-1.64v-17.92c0-.9.73-1.64,1.64-1.64h1.42c3.42,0,6.19,2.77,6.19,6.19v8.81Z"/>
      <g>
        <path class="cls-1" d="M395.51,152.48c-2.45.82-4.84,1.71-7.19,2.67-1.01.41-2.09-.41-1.96-1.5.87-6.78,3.48-13.73,5.02-19.83,2.06-8.13,5.94-17.37-.47-24.55-8.84-9.89-23.32-6.46-33.04,1.05-.05.04-.11.08-.17.1-.49.24-.98.54-1.47.95-4.47,3.75-6.95,7.31-8.11,13.1-1.55,7.74,9.75,11.93,13.21,4.57,1.08-2.29,4.9-3.61,7.31-3.31,6.04.75,3.41,6.7,2.15,10.51-1.94,5.87-4.09,11.67-6.04,17.53-3.13,9.44-10.19,23.72-.73,31.92,8.23,7.13,20.09.64,27.93-3.89,4.71-2.73,10.78-6.36,13.93-11,3.26-4.8.75-9.11-1.46-13.9-1.59-3.47-4.99-5.75-8.92-4.43Z"/>
        <path class="cls-1" d="M458.39,138.26c.44-10.15-11.22-19.85-20.53-23.14-2.23-.79-4.38-1.2-6.45-1.3-10.39-1.87-20.76.76-26.21,9.34-5.69,8.97-3.82,20.66,3.82,29.65,17.34,20.37,48.34,9.01,49.36-14.55ZM437.86,132.43c6.61,5.63-1.04,10.06-6.31,10.05-2.68,0-6.64-.66-8.97-2.5-3.35-2.65-2.57-4.18-.64-6.26,4.61-2.98,10.9-5.57,15.92-1.3Z"/>
        <path class="cls-1" d="M461.54,55.52c-8.96,1.62-17.95,9.04-23.68,16.5-4.87,6.34.76,15.55,7.02,10.41.15-.12.3-.25.45-.37,1.57-1.3,3.57-2,5.61-1.85,1.93.15,2.94,1.09,2.76,5.19-.22,4.8-3.59,10.36-5.29,14.84-.98,2.56-1.65,4.88-1.86,7.5-.08,1.04.01,2.09.34,3.08.56,1.69,1.64,3.15,3.76,4.05,19.61,8.39,22.77,34.57,3.9,45.9-5.16,3.09-11.94,6.84-9.06,14.23,2.92,7.48,11.32,5.47,16.98,2.84,14.96-6.95,23.66-23.62,22.43-39.82-.81-10.6-6.52-26.23-16.31-33.52-1.12-.84-1.47-2.36-.85-3.62,1.78-3.64,3.31-7.34,4.58-10.46,3.05-7.45,6.32-17.06,4.47-25.18-1.64-7.2-8.02-11.04-15.24-9.73Z"/>
        <path class="cls-1" d="M512.16,124.88c-.42.2-.86-.23-.66-.66,3.8-8.11,7.61-16.23,11.36-24.36,3.64-7.89,7.88-17.37,1.07-24.95-6.73-7.49-17.36-5.9-25.88-2.94-6.86,2.38-18.5,6.42-14.92,15.75.6,1.56,1.87,3.19,3.5,3.89,2.43,2.05,6.29,2.7,9.25-.07,3.31-3.11,9.06-2.37,7.99,3.1-.8,4.1-3.83,8.41-5.63,12.13-3.5,7.23-7.34,14.61-9.9,22.24-3.5,10.4,1.86,23.48,14.7,20.43,7.43-1.76,16.42-5.26,23.19-8.8,4.78-2.49,8.37-6.6,7.05-12.3-2.45-10.55-12.67-7.46-21.11-3.46Z"/>
      </g>
      <path class="cls-2" d="M91.62,4.57c-.7-.13-1.34.4-1.35,1.1l-.81,56.81c-.05,1.26-.67,2.41-1.69,3.11-2.57,1.76-5.99-.19-5.9-3.37l1.11-56.15c.05-2.56-2.08-4.63-4.64-4.5l-16.3.83c-2.36.12-4.2,2.07-4.19,4.43l.19,68.88c0,2.43,1.98,4.4,4.41,4.41l43.34.07c2.04,0,3.81-1.39,4.3-3.37l3.82-15.56c.08-.32.12-.65.13-.98l.83-47.56c.04-2.13-1.46-3.99-3.55-4.41l-19.68-3.73Z"/>
      <path class="cls-2" d="M143.74,78.27l1.3-72.32c.03-1.59-1.19-2.93-2.78-3.04l-19.15-1.35c-1.75-.12-3.24,1.28-3.21,3.04l1.27,72.79c.03,1.57,1.27,2.86,2.84,2.94l16.57.88c1.69.09,3.12-1.24,3.15-2.94Z"/>
      <path class="cls-2" d="M266.22,78.26c.02,2.07,1.72,3.74,3.79,3.73l17.68-.1c2.1-.01,3.78-1.74,3.74-3.84l-1.31-68.55c-.1-3.63-.34-7.93-5.51-7.95l-13.64.22c-1.89.03-3.46,1.45-3.68,3.33l-1.07,73.17Z"/>
      <path class="cls-2" d="M173.74,57.64c-.09,1.7,1.35,3.08,3.05,2.93l20.35-1.89c1.55-.14,2.92,1.01,3.04,2.56l1.37,17.38c.13,1.62-1.15,3-2.77,3.01l-45.12.21c-1.54,0-2.8-1.24-2.81-2.78l-.17-38.67.76-35.05c.04-1.64,1.47-2.9,3.11-2.71l15.69,1.78c1.31.15,2.34,1.2,2.47,2.52l1.04,50.71Z"/>
      <path class="cls-2" d="M418.88,32.73c1.06,0,1.92-.83,1.96-1.89l.24-7.74c.06-2.07-.74-4.08-2.2-5.54-.06-.06-.11-.12-.16-.18l-8.71-10.27c-.08-.1-.16-.2-.25-.28-1.09-1.01-1.75-1.67-3.21-1.91-.11-.02-.22-.03-.34-.03h-26.78c-3.18-.44-6.3,1.17-7.77,4.03l-11.77,16.49c-.05.08-.1.16-.14.24-.54,1.1-.81,2.32-.77,3.55l1.41,55.11c.09,3.18,2.16,5.96,5.18,6.96l26.7,6.77c1.64.54,3.41.51,5.02-.09l15.34-5.72c2.16-.8,3.83-2.54,4.54-4.73.03-.09.06-.18.11-.26l5.06-15.29c.07-.13.12-.26.16-.39.16-.59.26-1.2.27-1.81l.85-16.05c.01-1.08-.86-1.97-1.95-1.97h-27.92c-1.08,0-1.95.87-1.95,1.95v7.99c0,1.08.87,1.95,1.95,1.95h2.21c1.12,0,2.01.94,1.95,2.06l-.17,9.31c0,4.12-5,5.6-6.66,5.31-2.85-.5-6.03-1.15-6.03-4.97l-.28-42.99c.06-2.16,2.01-3.77,4.14-3.42l7.34.06c1.33.21,2.38,1.14,2.8,2.35.27.78,1,1.32,1.83,1.32l18,.08Z"/>
    </g>
  </g>
</svg>