<?xml version="1.0" encoding="UTF-8"?>
<svg id="Layer_2" data-name="Layer 2" xmlns="http://www.w3.org/2000/svg" viewBox="0 0 328.7 59.3">
  <defs>
    <style>
      .cls-1 {
        fill: #c6ea2f;
      }

      .cls-2 {
        fill: #1e1818;
      }

      .cls-3 {
        fill: #f9f4f4;
        stroke: #f9f4f4;
        stroke-miterlimit: 10;
      }
    </style>
  </defs>
  <g id="Layer_1-2" data-name="Layer 1">
    <g>
      <g>
        <path class="cls-3" d="M.5,36.69c0-1.76.23-3.55.7-5.36.47-1.81,1.12-3.55,1.97-5.2.85-1.66,1.87-3.2,3.08-4.64,1.21-1.43,2.55-2.68,4.01-3.73,1.47-1.05,3.06-1.88,4.79-2.49,1.73-.6,3.54-.91,5.44-.91s3.55.37,4.95,1.11c1.4.74,2.56,1.74,3.5,2.98.93,1.24,1.62,2.67,2.07,4.27.45,1.61.67,3.24.67,4.89,0,2.9-.43,5.76-1.29,8.57-.86,2.81-2.14,5.33-3.83,7.56-1.69,2.23-3.79,4.02-6.29,5.39-2.5,1.36-5.38,2.05-8.62,2.05-1.93,0-3.6-.44-5-1.32-1.4-.88-2.56-2.02-3.47-3.42-.92-1.4-1.59-2.95-2.02-4.66-.43-1.71-.65-3.41-.65-5.1ZM4.9,37.83c0,.93.16,1.92.47,2.95.31,1.04.74,1.99,1.29,2.85.55.86,1.25,1.59,2.1,2.18.85.59,1.8.88,2.87.88,2.31,0,4.42-.53,6.32-1.58,1.9-1.05,3.54-2.42,4.92-4.09,1.38-1.67,2.45-3.55,3.21-5.62.76-2.07,1.14-4.13,1.14-6.16,0-1.17-.04-2.38-.1-3.63-.07-1.24-.29-2.37-.67-3.39-.38-1.02-.98-1.85-1.79-2.49s-1.98-.96-3.5-.96c-.48,0-1.13.02-1.94.05-.81.03-1.61.13-2.41.28-.79.16-1.49.39-2.1.7-.6.31-.91.74-.91,1.29,0,.07.06.22.18.44.12.22.25.46.39.7.14.24.26.47.36.7s.16.37.16.44-.14.25-.41.54-.5.47-.67.54c-1.73.45-3.17,1.01-4.33,1.68-1.16.67-2.07,1.55-2.74,2.62-.67,1.07-1.15,2.35-1.42,3.83s-.41,3.23-.41,5.23Z"/>
        <path class="cls-3" d="M33.25,29.96c0-.21,0-.58.03-1.11s.03-1.1.03-1.68,0-1.13.03-1.63c.02-.5.03-.85.03-1.06.24-.41.53-.82.85-1.22.33-.4.67-.67,1.04-.83.36-.16.76-.18,1.19-.08s.87.45,1.32,1.04v1.09c-.04.17-.1.58-.21,1.22-.1.64-.23,1.34-.36,2.1s-.27,1.46-.39,2.1c-.12.64-.18,1.04-.18,1.22,0,.66.07,1.48.21,2.46.14.98.34,2.01.6,3.08.26,1.07.59,2.14.98,3.21.4,1.07.87,2.03,1.42,2.87.55.85,1.17,1.55,1.84,2.1.67.55,1.46.83,2.36.83,1.1,0,2.08-.29,2.93-.88.85-.59,1.58-1.35,2.2-2.28.62-.93,1.13-1.98,1.53-3.16.4-1.17.72-2.36.96-3.55.24-1.19.41-2.34.52-3.44.1-1.1.16-2.07.16-2.9s-.06-1.61-.18-2.36c-.12-.74-.27-1.48-.44-2.2-.17-.73-.32-1.44-.44-2.15-.12-.71-.18-1.42-.18-2.15,0-.66.23-1.12.7-1.4.47-.28.99-.41,1.58-.41.72,0,1.31.22,1.76.65.45.43.8.98,1.06,1.63.26.66.43,1.41.52,2.25.08.85.13,1.68.13,2.51s-.02,1.62-.05,2.36c-.03.74-.05,1.34-.05,1.79,0,1.17-.09,2.5-.26,3.99-.17,1.48-.47,3.01-.91,4.58-.43,1.57-.97,3.12-1.61,4.64-.64,1.52-1.42,2.87-2.33,4.07s-1.97,2.15-3.16,2.87c-1.19.73-2.53,1.09-4.01,1.09s-2.92-.37-4.09-1.11c-1.17-.74-2.17-1.73-2.98-2.95-.81-1.23-1.49-2.62-2.05-4.17-.55-1.55-.98-3.11-1.27-4.66-.29-1.55-.5-3.06-.62-4.53-.12-1.47-.18-2.74-.18-3.81Z"/>
        <path class="cls-3" d="M58.28,29.34c0-.31.02-.63.05-.96.03-.33.1-.62.21-.88s.27-.47.49-.65c.22-.17.54-.26.96-.26.34,0,.73.27,1.17.8s.87,1.21,1.32,2.02c.45.81.89,1.7,1.32,2.67.43.97.81,1.86,1.14,2.67.33.81.59,1.51.8,2.1.21.59.33.9.36.93.45-1.21.95-2.52,1.5-3.94.55-1.42,1.23-2.74,2.05-3.96.81-1.23,1.78-2.25,2.9-3.08,1.12-.83,2.49-1.24,4.12-1.24.83,0,1.61.13,2.36.39.74.26,1.4.64,1.97,1.14.57.5,1.03,1.1,1.37,1.79.34.69.52,1.49.52,2.38,0,.76-.3,1.29-.91,1.61-.6.31-1.29.47-2.05.47h-.52l-2.23-2.23c-.07,0-.12-.02-.16-.05-.07,0-.13,0-.18-.03-.05-.02-.11-.03-.18-.03-1.21,0-2.15.34-2.82,1.01s-1.18,1.5-1.53,2.49c-.35.98-.56,2.02-.65,3.11-.09,1.09-.13,2.08-.13,2.98,0,.69.07,1.39.21,2.1.14.71.29,1.4.47,2.07.17.67.33,1.36.47,2.07.14.71.21,1.44.21,2.2,0,1.45-.78,2.17-2.33,2.17-.86,0-1.76-.46-2.69-1.37s-1.86-2.08-2.77-3.5c-.92-1.42-1.79-2.98-2.62-4.69-.83-1.71-1.55-3.37-2.17-5-.62-1.62-1.11-3.09-1.48-4.4-.36-1.31-.54-2.28-.54-2.9Z"/>
      </g>
      <path class="cls-1" d="M328.49,51.8c.26-.34.31-.67,0-1V4.96h-51.98c-1.69-.13-3.3-.25-4.79-.37-5.78-.06-11.62-.11-17.56-.17-26.12-.29-51.4-.33-77.24-.81-9.37-.19-29.82-.24-38.91-.62l113.89.58c-1.03-.05-2.06-.09-3.07-.14l-59.87-.83c-3.39-.01-6.81-.05-10.34-.14l10.34.14c8.87.03,17.48-.16,27.14-.2,5.96.05,12.78.34,18.75.39,4.87.07,9.35.41,13.98.64l8.94.13c.87-.03,1.8-.06,2.76-.07-.03,0-.09-.01-.12-.02C253.01,1.9,177.75-.26,165.27.03c-9.95.19-19.03,1.45-30.1,1.6-3.7.05-6.82-.29-9.66,0-.28.19-1.7.34-3.12.48-3.69.05-7.38-.11-10.85-.2-1.74-.05-3.42-.08-5.03-.07-.99.02-1.95.04-2.88.06-1.07.04-2.09.09-3.04.16-.97.04-2.29-.02-3.9-.15-.13,1.9-.33,4.11-.56,6.54-.12,1.26-.23,2.53-.35,3.77-.12.85-.23,1.68-.34,2.47-.44,3.1-.77,5.57-.57,5.98,1.79,3.7.49,1.01.32,12.17-.04,1.35.69,5.74.61,8.45-.06,1.15-.1,2.19-.12,3.16,0,.74-.02,1.45-.03,2.15,0,.72,0,1.41-.01,2.08,0,2.7.04,5.09.1,7.47,3.55-.14,7.31-.28,13.26-.51,13.06-.68,15.92.67,27.55-.68,1.41-.15,19.58-1.02,19.58-1.02,14.2.19,23-.87,34.08.62,12.77-1.3,29.82.24,43.44,0,13.63-.24,19.32.82,31.25,1.74,3.41.14,5.96.05,7.95.34,1.99.29,6.81-.53,10.22-.39l-.85.58c1.14.05,3.41.14,4.55.19,1.14.05.85.24.57.44-.57.39-1.13.77.86,1.06,4.75.33,9.6.58,14.57.76,4.91-.29,9.76-.62,14.53-.98.28-.27.6-.53,1.27-.75,1.42-.15,2.84-.29,4.26-.43.85-.58.56-1.21,1.14-1.6,0-1.21,3.26-2.4,4.37-3.55h.15v-.18Z"/>
      <g>
        <path class="cls-2" d="M131.25,21.89h-7.43v-3.74c0-2.35-1.21-3.52-3.65-3.52-2.22,0-3.47,1.28-3.47,3.01v3.56c0,1.93.77,2.77,2.88,3.56l4.11,1.38c2.75.99,4.79,2.22,6.13,3.67,1.34,1.47,2,3.62,2,6.5v4.59c0,3.23-1.03,5.82-3.08,7.76-2.04,1.96-4.77,2.92-8.17,2.92s-6.22-.88-8.22-2.62c-2-1.74-2.99-4.09-2.99-7.03v-5.34h7.52v4.62c0,2.22,1.3,3.84,3.69,3.84,1.12,0,2-.35,2.66-1.05.66-.68.99-1.54.99-2.55v-4.37c0-1.96-1.16-3.32-3.47-4.09l-4.31-1.41c-2.48-.81-4.33-1.96-5.49-3.47-1.16-1.49-1.76-3.58-1.76-6.24v-3.96c0-2.75.95-5.08,2.83-6.99,1.89-1.89,4.66-2.83,8.28-2.83s6.22.83,8.11,2.53c1.89,1.69,2.83,3.91,2.83,6.66v4.59Z"/>
        <path class="cls-2" d="M157.53,11.3c1.96,2.13,2.94,5.12,2.94,8.96v19.14c0,3.87-.99,6.86-2.97,8.99-1.98,2.13-4.79,3.21-8.42,3.21s-6.42-1.08-8.35-3.21c-1.93-2.13-2.9-5.12-2.9-8.99v-19.14c0-3.84.97-6.83,2.92-8.96,1.96-2.13,4.72-3.19,8.33-3.19s6.48,1.05,8.44,3.19ZM152.87,19.01c0-2.64-1.43-4.37-3.65-4.37s-3.78,1.74-3.78,4.37v21.69c0,2.64,1.52,4.37,3.74,4.37s3.69-1.74,3.69-4.37v-21.69Z"/>
        <path class="cls-2" d="M175.02,44.65h9.93v6.44h-17.45V8.57h7.51v36.08Z"/>
        <path class="cls-2" d="M210.39,8.57v32.98c0,6.53-3.98,10.08-10.94,10.08-3.45,0-6.13-.86-8.02-2.57s-2.83-4.15-2.83-7.34V8.57h7.52v32.48c0,2.7,1.38,4.02,3.38,4.02,2.26,0,3.38-1.34,3.38-4.02V8.57h7.51Z"/>
        <path class="cls-2" d="M237.92,8.57v6.44h-7.87v36.08h-7.52V15.01h-7.89v-6.44h23.27Z"/>
        <path class="cls-2" d="M242.34,8.57h7.51v42.52h-7.51V8.57Z"/>
        <path class="cls-2" d="M276.55,11.3c1.96,2.13,2.94,5.12,2.94,8.96v19.14c0,3.87-.99,6.86-2.97,8.99-1.98,2.13-4.79,3.21-8.42,3.21s-6.42-1.08-8.35-3.21c-1.93-2.13-2.9-5.12-2.9-8.99v-19.14c0-3.84.97-6.83,2.92-8.96,1.96-2.13,4.72-3.19,8.33-3.19s6.48,1.05,8.44,3.19ZM271.89,19.01c0-2.64-1.43-4.37-3.65-4.37s-3.78,1.74-3.78,4.37v21.69c0,2.64,1.52,4.37,3.74,4.37s3.69-1.74,3.69-4.37v-21.69Z"/>
        <path class="cls-2" d="M302.04,31.47l-.26-10.9v-12h7.1v42.52h-7.36l-7.71-25.69h-.4l.26,9.67v16.02h-7.14V8.57h8.22l6.86,22.9h.44Z"/>
      </g>
    </g>
  </g>
</svg>