<?xml version="1.0" encoding="UTF-8"?>
<svg id="Layer_2" data-name="Layer 2" xmlns="http://www.w3.org/2000/svg" viewBox="0 0 304.42 59.3">
  <defs>
    <style>
      .cls-1 {
        stroke: #1e1818;
        stroke-miterlimit: 10;
      }

      .cls-1, .cls-2 {
        fill: #1e1818;
      }

      .cls-3 {
        fill: #c6ea2f;
      }
    </style>
  </defs>
  <g id="Layer_1-2" data-name="Layer 1">
    <g>
      <g>
        <path class="cls-1" d="M.5,35.59c0-1.76.23-3.55.7-5.36.47-1.81,1.12-3.55,1.97-5.2.85-1.66,1.87-3.2,3.08-4.64,1.21-1.43,2.55-2.68,4.01-3.73,1.47-1.05,3.06-1.88,4.79-2.49,1.73-.6,3.54-.91,5.44-.91s3.55.37,4.95,1.11c1.4.74,2.56,1.74,3.5,2.98.93,1.24,1.62,2.67,2.07,4.27.45,1.61.67,3.24.67,4.89,0,2.9-.43,5.76-1.29,8.57-.86,2.81-2.14,5.33-3.83,7.56-1.69,2.23-3.79,4.02-6.29,5.39-2.5,1.36-5.38,2.05-8.62,2.05-1.93,0-3.6-.44-5-1.32-1.4-.88-2.56-2.02-3.47-3.42-.92-1.4-1.59-2.95-2.02-4.66-.43-1.71-.65-3.41-.65-5.1ZM4.9,36.73c0,.93.16,1.92.47,2.95.31,1.04.74,1.99,1.29,2.85.55.86,1.25,1.59,2.1,2.18.85.59,1.8.88,2.87.88,2.31,0,4.42-.53,6.32-1.58,1.9-1.05,3.54-2.42,4.92-4.09,1.38-1.67,2.45-3.55,3.21-5.62.76-2.07,1.14-4.13,1.14-6.16,0-1.17-.04-2.38-.1-3.63-.07-1.24-.29-2.37-.67-3.39-.38-1.02-.98-1.85-1.79-2.49s-1.98-.96-3.5-.96c-.48,0-1.13.02-1.94.05-.81.03-1.61.13-2.41.28-.79.16-1.49.39-2.1.7-.6.31-.91.74-.91,1.29,0,.07.06.22.18.44.12.22.25.46.39.7.14.24.26.47.36.7s.16.37.16.44-.14.25-.41.54-.5.47-.67.54c-1.73.45-3.17,1.01-4.33,1.68-1.16.67-2.07,1.55-2.74,2.62-.67,1.07-1.15,2.35-1.42,3.83s-.41,3.23-.41,5.23Z"/>
        <path class="cls-1" d="M33.25,28.86c0-.21,0-.58.03-1.11s.03-1.1.03-1.68,0-1.13.03-1.63c.02-.5.03-.85.03-1.06.24-.41.53-.82.85-1.22.33-.4.67-.67,1.04-.83.36-.16.76-.18,1.19-.08s.87.45,1.32,1.04v1.09c-.04.17-.1.58-.21,1.22-.1.64-.23,1.34-.36,2.1s-.27,1.46-.39,2.1c-.12.64-.18,1.04-.18,1.22,0,.66.07,1.48.21,2.46.14.98.34,2.01.6,3.08.26,1.07.59,2.14.98,3.21.4,1.07.87,2.03,1.42,2.87.55.85,1.17,1.55,1.84,2.1.67.55,1.46.83,2.36.83,1.1,0,2.08-.29,2.93-.88.85-.59,1.58-1.35,2.2-2.28.62-.93,1.13-1.98,1.53-3.16.4-1.17.72-2.36.96-3.55.24-1.19.41-2.34.52-3.44.1-1.1.16-2.07.16-2.9s-.06-1.61-.18-2.36c-.12-.74-.27-1.48-.44-2.2-.17-.73-.32-1.44-.44-2.15-.12-.71-.18-1.42-.18-2.15,0-.66.23-1.12.7-1.4.47-.28.99-.41,1.58-.41.72,0,1.31.22,1.76.65.45.43.8.98,1.06,1.63.26.66.43,1.41.52,2.25.08.85.13,1.68.13,2.51s-.02,1.62-.05,2.36c-.03.74-.05,1.34-.05,1.79,0,1.17-.09,2.5-.26,3.99-.17,1.48-.47,3.01-.91,4.58-.43,1.57-.97,3.12-1.61,4.64-.64,1.52-1.42,2.87-2.33,4.07s-1.97,2.15-3.16,2.87c-1.19.73-2.53,1.09-4.01,1.09s-2.92-.37-4.09-1.11c-1.17-.74-2.17-1.73-2.98-2.95-.81-1.23-1.49-2.62-2.05-4.17-.55-1.55-.98-3.11-1.27-4.66-.29-1.55-.5-3.06-.62-4.53-.12-1.47-.18-2.74-.18-3.81Z"/>
        <path class="cls-1" d="M58.28,28.24c0-.31.02-.63.05-.96.03-.33.1-.62.21-.88s.27-.47.49-.65c.22-.17.54-.26.96-.26.34,0,.73.27,1.17.8s.87,1.21,1.32,2.02c.45.81.89,1.7,1.32,2.67.43.97.81,1.86,1.14,2.67.33.81.59,1.51.8,2.1.21.59.33.9.36.93.45-1.21.95-2.52,1.5-3.94.55-1.42,1.23-2.74,2.05-3.96.81-1.23,1.78-2.25,2.9-3.08,1.12-.83,2.49-1.24,4.12-1.24.83,0,1.61.13,2.36.39.74.26,1.4.64,1.97,1.14.57.5,1.03,1.1,1.37,1.79.34.69.52,1.49.52,2.38,0,.76-.3,1.29-.91,1.61-.6.31-1.29.47-2.05.47h-.52l-2.23-2.23c-.07,0-.12-.02-.16-.05-.07,0-.13,0-.18-.03-.05-.02-.11-.03-.18-.03-1.21,0-2.15.34-2.82,1.01s-1.18,1.5-1.53,2.49c-.35.98-.56,2.02-.65,3.11-.09,1.09-.13,2.08-.13,2.98,0,.69.07,1.39.21,2.1.14.71.29,1.4.47,2.07.17.67.33,1.36.47,2.07.14.71.21,1.44.21,2.2,0,1.45-.78,2.17-2.33,2.17-.86,0-1.76-.46-2.69-1.37s-1.86-2.08-2.77-3.5c-.92-1.42-1.79-2.98-2.62-4.69-.83-1.71-1.55-3.37-2.17-5-.62-1.62-1.11-3.09-1.48-4.4-.36-1.31-.54-2.28-.54-2.9Z"/>
      </g>
      <path class="cls-3" d="M304.23,51.8c.23-.34.28-.67,0-1V4.96h-46.59c-1.52-.13-2.95-.25-4.29-.37-5.18-.06-10.41-.11-15.73-.17-23.41-.29-46.06-.33-69.23-.81-8.4-.19-26.73-.24-34.87-.62l102.07.58c-.92-.05-1.84-.09-2.75-.14l-53.66-.83c-3.04-.01-6.11-.05-9.27-.14l9.27.14c7.95.03,15.67-.16,24.33-.2,5.34.05,11.45.34,16.8.39,4.37.07,8.38.41,12.53.64l8.01.13c.78-.03,1.62-.06,2.47-.07-.03,0-.08-.01-.11-.02C236.59,1.9,169.14-.26,157.96.03c-8.92.19-17.05,1.45-26.98,1.6-3.32.05-6.12-.29-8.66,0-.25.19-1.52.34-2.8.48-3.3.05-6.61-.11-9.73-.2-1.56-.05-3.07-.08-4.51-.07-.88.02-1.75.04-2.58.06-.96.04-1.87.09-2.72.16-.87.04-2.05-.02-3.5-.15-.11,1.9-.3,4.11-.5,6.54-.1,1.26-.21,2.53-.31,3.77-.11.85-.21,1.68-.31,2.47-.4,3.1-.69,5.57-.51,5.98,1.6,3.7.44,1.01.29,12.17-.03,1.35.62,5.74.55,8.45-.05,1.15-.09,2.19-.11,3.16,0,.74-.02,1.45-.03,2.15,0,.72,0,1.41,0,2.08,0,2.7.03,5.09.09,7.47,3.18-.14,6.55-.28,11.88-.51,11.71-.68,14.26.67,24.69-.68,1.26-.15,17.55-1.02,17.55-1.02,12.73.19,20.61-.87,30.54.62,11.45-1.3,26.72.24,38.93,0,12.22-.24,17.31.82,28,1.74,3.05.14,5.34.05,7.12.34,1.78.29,6.11-.53,9.16-.39l-.76.58c1.02.05,3.05.14,4.07.19,1.02.05.76.24.51.44-.51.39-1.01.77.77,1.06,4.25.33,8.61.58,13.06.76,4.4-.29,8.74-.62,13.02-.98.25-.27.54-.53,1.14-.75,1.28-.15,2.55-.29,3.82-.43.76-.58.51-1.21,1.02-1.6,0-1.21,2.92-2.4,3.92-3.55h.14v-.18Z"/>
      <g>
        <path class="cls-2" d="M118.57,37.88l1.23-9.18,3.91-21.23h10.92v42.52h-7.14l.09-17.64.26-11.93h-.48l-5.23,29.58h-8.04l-4.79-29.58h-.48l.22,11.89v17.69h-7.1V7.47h11.14l3.69,21.23,1.32,9.18h.48Z"/>
        <path class="cls-2" d="M142.26,7.47h7.51v42.52h-7.51V7.47Z"/>
        <path class="cls-2" d="M178.93,20.79h-7.43v-3.74c0-2.35-1.21-3.52-3.65-3.52-2.22,0-3.47,1.28-3.47,3.01v3.56c0,1.93.77,2.77,2.88,3.56l4.11,1.38c2.75.99,4.79,2.22,6.13,3.67,1.34,1.47,2,3.62,2,6.5v4.59c0,3.23-1.03,5.82-3.08,7.76-2.04,1.96-4.77,2.92-8.17,2.92s-6.22-.88-8.22-2.62c-2-1.74-2.99-4.09-2.99-7.03v-5.34h7.51v4.62c0,2.22,1.3,3.84,3.69,3.84,1.12,0,2-.35,2.66-1.05.66-.68.99-1.54.99-2.55v-4.37c0-1.96-1.17-3.32-3.47-4.09l-4.31-1.41c-2.48-.81-4.33-1.96-5.49-3.47-1.17-1.49-1.76-3.58-1.76-6.24v-3.96c0-2.75.94-5.08,2.83-6.99,1.89-1.89,4.66-2.83,8.28-2.83s6.22.83,8.11,2.53c1.89,1.69,2.83,3.91,2.83,6.66v4.59Z"/>
        <path class="cls-2" d="M207.67,20.79h-7.43v-3.74c0-2.35-1.21-3.52-3.65-3.52-2.22,0-3.47,1.28-3.47,3.01v3.56c0,1.93.77,2.77,2.88,3.56l4.11,1.38c2.75.99,4.79,2.22,6.13,3.67,1.34,1.47,2,3.62,2,6.5v4.59c0,3.23-1.03,5.82-3.08,7.76-2.04,1.96-4.77,2.92-8.17,2.92s-6.22-.88-8.22-2.62c-2-1.74-2.99-4.09-2.99-7.03v-5.34h7.52v4.62c0,2.22,1.3,3.84,3.69,3.84,1.12,0,2-.35,2.66-1.05.66-.68.99-1.54.99-2.55v-4.37c0-1.96-1.16-3.32-3.47-4.09l-4.31-1.41c-2.48-.81-4.33-1.96-5.49-3.47-1.16-1.49-1.76-3.58-1.76-6.24v-3.96c0-2.75.95-5.08,2.83-6.99,1.89-1.89,4.66-2.83,8.28-2.83s6.22.83,8.11,2.53c1.89,1.69,2.83,3.91,2.83,6.66v4.59Z"/>
        <path class="cls-2" d="M214.81,7.47h7.51v42.52h-7.51V7.47Z"/>
        <path class="cls-2" d="M249.02,10.2c1.96,2.13,2.94,5.12,2.94,8.96v19.14c0,3.87-.99,6.86-2.97,8.99-1.98,2.13-4.79,3.21-8.42,3.21s-6.42-1.08-8.35-3.21c-1.93-2.13-2.9-5.12-2.9-8.99v-19.14c0-3.84.97-6.83,2.92-8.96,1.96-2.13,4.72-3.19,8.33-3.19s6.48,1.05,8.44,3.19ZM244.36,17.91c0-2.64-1.43-4.37-3.65-4.37s-3.78,1.74-3.78,4.37v21.69c0,2.64,1.52,4.37,3.74,4.37s3.69-1.74,3.69-4.37v-21.69Z"/>
        <path class="cls-2" d="M274.51,30.37l-.26-10.9V7.47h7.1v42.52h-7.36l-7.71-25.69h-.4l.26,9.67v16.02h-7.14V7.47h8.22l6.86,22.9h.44Z"/>
      </g>
    </g>
  </g>
</svg>